<svg xmlns="http://www.w3.org/2000/svg" xmlns:xlink="http://www.w3.org/1999/xlink" width="2000" zoomAndPan="magnify" viewBox="0 0 1500 449.999984" height="600" preserveAspectRatio="xMidYMid meet" version="1.0"><defs><g/><clipPath id="911454f829"><rect x="0" width="1273" y="0" height="251"/></clipPath><clipPath id="19bbf24b90"><rect x="0" width="656" y="0" height="175"/></clipPath><clipPath id="5073026911"><rect x="0" width="195" y="0" height="117"/></clipPath></defs><g transform="matrix(1, 0, 0, 1, 136, 110)"><g clip-path="url(#911454f829)"><g fill="#000000" fill-opacity="1"><g transform="translate(1.142338, 191.397727)"><g><path d="M 7.5 -179 L 7.5 -182.25 L 69.75 -182.25 L 69.75 -179 C 63.75 -179 59.375 -178.207031 56.625 -176.625 C 53.875 -175.039062 52.5 -171.332031 52.5 -165.5 L 52.5 -16.5 C 52.5 -10.5 54.914062 -6.789062 59.75 -5.375 C 64.582031 -3.957031 73.332031 -3.25 86 -3.25 C 100.332031 -3.25 112.039062 -6.289062 121.125 -12.375 C 130.207031 -18.457031 137.539062 -26.707031 143.125 -37.125 C 148.707031 -47.539062 153.414062 -59.082031 157.25 -71.75 L 160.5 -71.75 L 142.75 0 L 7.5 0 L 7.5 -3.25 C 13 -3.25 17.164062 -3.707031 20 -4.625 C 22.832031 -5.539062 24.414062 -8.664062 24.75 -14 L 24.75 -165.5 C 24.75 -171.332031 23.375 -175.039062 20.625 -176.625 C 17.875 -178.207031 13.5 -179 7.5 -179 Z M 7.5 -179 "/></g></g></g><g fill="#000000" fill-opacity="1"><g transform="translate(167.890024, 191.397727)"><g><path d="M 42.75 0 L 3.75 0 L 3.75 -3.25 C 7.914062 -3.25 12.125 -4.75 16.375 -7.75 C 20.625 -10.75 23.664062 -14.5 25.5 -19 L 80 -149.5 L 73 -166.5 C 71 -171.5 67.914062 -174.832031 63.75 -176.5 C 59.582031 -178.164062 55 -179 50 -179 L 50 -182.25 L 93.75 -182.25 L 159.5 -25.25 C 163 -17.082031 166.875 -11.375 171.125 -8.125 C 175.375 -4.875 180.582031 -3.25 186.75 -3.25 L 186.75 0 L 116.5 0 L 116.5 -3.25 L 123.25 -3.25 C 129.75 -3.25 133.457031 -5.375 134.375 -9.625 C 135.289062 -13.875 134.5 -19 132 -25 L 117.75 -59.75 L 45.75 -59.75 L 29.25 -20 C 27.082031 -14.664062 27.5 -10.539062 30.5 -7.625 C 33.5 -4.707031 37.582031 -3.25 42.75 -3.25 Z M 81.75 -145.75 L 47.25 -63 L 116.25 -63 Z M 81.75 -145.75 "/></g></g></g><g fill="#000000" fill-opacity="1"><g transform="translate(358.387396, 191.397727)"><g><path d="M 10 -179 L 10 -182.25 L 73 -182.25 L 73 -179 C 67 -179 62.539062 -178.207031 59.625 -176.625 C 56.707031 -175.039062 55.25 -170.832031 55.25 -164 L 55.25 -65 C 55.25 -44.164062 59.539062 -28.582031 68.125 -18.25 C 76.707031 -7.914062 88.5 -2.75 103.5 -2.75 C 114.164062 -2.75 123.539062 -4.5 131.625 -8 C 139.707031 -11.5 146.082031 -17.625 150.75 -26.375 C 155.414062 -35.125 157.75 -47.414062 157.75 -63.25 L 157.75 -166.5 C 157.414062 -172 155.789062 -175.457031 152.875 -176.875 C 149.957031 -178.289062 145.664062 -179 140 -179 L 140 -182.25 L 178.75 -182.25 L 178.75 -179 C 174.082031 -179 169.957031 -178.207031 166.375 -176.625 C 162.789062 -175.039062 161 -170.832031 161 -164 L 161 -63.25 C 161 -58.414062 160.664062 -53.082031 160 -47.25 C 159.332031 -41.414062 157.832031 -35.539062 155.5 -29.625 C 153.164062 -23.707031 149.707031 -18.289062 145.125 -13.375 C 140.539062 -8.457031 134.375 -4.5 126.625 -1.5 C 118.875 1.496094 109.164062 3 97.5 3 C 79.832031 3 65.914062 0.0390625 55.75 -5.875 C 45.582031 -11.789062 38.375 -19.875 34.125 -30.125 C 29.875 -40.375 27.75 -52 27.75 -65 L 27.75 -164 C 27.75 -170.832031 26.289062 -175.039062 23.375 -176.625 C 20.457031 -178.207031 16 -179 10 -179 Z M 10 -179 "/></g></g></g><g fill="#000000" fill-opacity="1"><g transform="translate(543.384801, 191.397727)"><g><path d="M 7.5 0 L 7.5 -3.25 C 13.332031 -3.25 17.664062 -4.082031 20.5 -5.75 C 23.332031 -7.414062 24.75 -11.082031 24.75 -16.75 L 24.75 -165.5 C 24.75 -171.332031 23.332031 -175.039062 20.5 -176.625 C 17.664062 -178.207031 13.332031 -179 7.5 -179 L 7.5 -182.25 L 78.5 -182.25 C 87.832031 -182.25 96.957031 -181.789062 105.875 -180.875 C 114.789062 -179.957031 122.875 -178 130.125 -175 C 137.375 -172 143.164062 -167.539062 147.5 -161.625 C 151.832031 -155.707031 154 -147.75 154 -137.75 C 154 -127.914062 152 -120 148 -114 C 144 -108 138.707031 -103.414062 132.125 -100.25 C 125.539062 -97.082031 118.414062 -94.957031 110.75 -93.875 C 103.082031 -92.789062 95.582031 -92.25 88.25 -92.25 L 77.75 -92.25 C 81.082031 -87.082031 84.789062 -83.289062 88.875 -80.875 C 92.957031 -78.457031 97 -77.25 101 -77.25 C 105.664062 -77.25 110 -78.832031 114 -82 L 159 -16.75 C 162.832031 -11.414062 166.832031 -7.832031 171 -6 C 175.164062 -4.164062 179.582031 -3.25 184.25 -3.25 L 184.25 0 L 159.5 0 C 152.664062 0 146.707031 -1.457031 141.625 -4.375 C 136.539062 -7.289062 132.082031 -10.957031 128.25 -15.375 C 124.414062 -19.789062 120.914062 -24.25 117.75 -28.75 L 74 -92.25 L 52.25 -92.25 L 52.25 -16.75 C 52.25 -11.082031 53.625 -7.414062 56.375 -5.75 C 59.125 -4.082031 63.5 -3.25 69.5 -3.25 L 69.5 0 Z M 52.25 -95.5 L 78.75 -95.5 C 87.582031 -95.5 95.625 -96.664062 102.875 -99 C 110.125 -101.332031 115.914062 -105.539062 120.25 -111.625 C 124.582031 -117.707031 126.75 -126.332031 126.75 -137.5 C 126.75 -151 123 -161.289062 115.5 -168.375 C 108 -175.457031 97.332031 -179 83.5 -179 L 52.25 -179 Z M 52.25 -95.5 "/></g></g></g><g fill="#000000" fill-opacity="1"><g transform="translate(730.132188, 191.397727)"><g><path d="M 7.5 0 L 7.5 -3.25 C 13 -3.25 17.164062 -3.914062 20 -5.25 C 22.832031 -6.582031 24.5 -9.582031 25 -14.25 L 24.75 -165.5 C 24.75 -171.332031 23.375 -175.039062 20.625 -176.625 C 17.875 -178.207031 13.5 -179 7.5 -179 L 7.5 -182.25 L 136.75 -182.25 L 150 -142.75 L 146.75 -142.75 C 143.75 -152.25 140.332031 -159.625 136.5 -164.875 C 132.664062 -170.125 127.789062 -173.75 121.875 -175.75 C 115.957031 -177.75 108.25 -178.75 98.75 -178.75 C 86.75 -178.75 77.414062 -178.457031 70.75 -177.875 C 64.082031 -177.289062 59.375 -176.082031 56.625 -174.25 C 53.875 -172.414062 52.5 -169.5 52.5 -165.5 L 52.5 -97.25 L 81.25 -97.25 C 90.25 -97.414062 96.789062 -98.914062 100.875 -101.75 C 104.957031 -104.582031 107.5 -108.832031 108.5 -114.5 C 109.5 -120.164062 110 -127.164062 110 -135.5 L 113.25 -135.5 L 113.25 -52.75 L 110 -52.75 C 110 -61.25 109.582031 -68.582031 108.75 -74.75 C 107.914062 -80.914062 105.539062 -85.664062 101.625 -89 C 97.707031 -92.332031 90.914062 -94 81.25 -94 L 52.5 -94 L 52.5 -16.75 C 52.5 -11.082031 54.914062 -7.414062 59.75 -5.75 C 64.582031 -4.082031 73.332031 -3.25 86 -3.25 C 100.332031 -3.25 112.039062 -6.289062 121.125 -12.375 C 130.207031 -18.457031 137.539062 -26.707031 143.125 -37.125 C 148.707031 -47.539062 153.414062 -59.082031 157.25 -71.75 L 160.5 -71.75 L 142.75 0 Z M 7.5 0 "/></g></g></g><g fill="#000000" fill-opacity="1"><g transform="translate(897.129894, 191.397727)"><g><path d="M 6.25 -182.25 L 54.25 -182.25 L 151 -47.25 L 150.75 -165.5 C 150.75 -172.164062 149.289062 -176.082031 146.375 -177.25 C 143.457031 -178.414062 139.082031 -179 133.25 -179 L 133.25 -182.25 L 171.75 -182.25 L 171.75 -179 C 166.082031 -179 161.789062 -178.457031 158.875 -177.375 C 155.957031 -176.289062 154.332031 -172.75 154 -166.75 L 154.25 0 L 151 0 L 35.25 -161.5 L 35.25 -16.75 C 35.25 -10.082031 36.75 -6.164062 39.75 -5 C 42.75 -3.832031 47.164062 -3.25 53 -3.25 L 53 0 L 14.25 0 L 14.25 -3.25 C 20.25 -3.25 24.707031 -3.832031 27.625 -5 C 30.539062 -6.164062 32 -10.082031 32 -16.75 L 32 -166 C 29 -171 25.375 -174.414062 21.125 -176.25 C 16.875 -178.082031 11.914062 -179 6.25 -179 Z M 6.25 -182.25 "/></g></g></g><g fill="#000000" fill-opacity="1"><g transform="translate(1075.127453, 191.397727)"><g><path d="M 12.5 -168.5 C 12.5 -171.664062 13.75 -174.75 16.25 -177.75 C 18.75 -180.75 22.332031 -182.25 27 -182.25 C 32.5 -182.25 36.832031 -180.039062 40 -175.625 C 43.164062 -171.207031 44.164062 -164.914062 43 -156.75 C 42.164062 -150.582031 40.164062 -145.164062 37 -140.5 C 33.832031 -135.832031 30.289062 -132.25 26.375 -129.75 C 22.457031 -127.25 18.914062 -126 15.75 -126 L 15.75 -136.5 C 15.75 -136.5 16.625 -136.664062 18.375 -137 C 20.125 -137.332031 22.289062 -138.25 24.875 -139.75 C 27.457031 -141.25 30.039062 -143.582031 32.625 -146.75 C 35.207031 -149.914062 37.332031 -154.332031 39 -160 L 37.5 -160 C 35.332031 -156.332031 31.664062 -154.5 26.5 -154.5 C 22.832031 -154.5 19.582031 -155.707031 16.75 -158.125 C 13.914062 -160.539062 12.5 -164 12.5 -168.5 Z M 12.5 -168.5 "/></g></g></g><g fill="#000000" fill-opacity="1"><g transform="translate(1131.126635, 191.397727)"><g><path d="M 12.5 0 L 12.5 -75 L 15.75 -75 C 15.75 -58.332031 18.164062 -44.707031 23 -34.125 C 27.832031 -23.539062 34.414062 -15.75 42.75 -10.75 C 51.082031 -5.75 60.332031 -3.25 70.5 -3.25 C 76.832031 -3.25 82.625 -4.207031 87.875 -6.125 C 93.125 -8.039062 97.332031 -11.207031 100.5 -15.625 C 103.664062 -20.039062 105.25 -25.914062 105.25 -33.25 C 105.25 -40.25 103.039062 -46.664062 98.625 -52.5 C 94.207031 -58.332031 88.457031 -63.914062 81.375 -69.25 C 74.289062 -74.582031 66.832031 -79.875 59 -85.125 C 51.164062 -90.375 43.707031 -95.832031 36.625 -101.5 C 29.539062 -107.164062 23.789062 -113.332031 19.375 -120 C 14.957031 -126.664062 12.75 -134 12.75 -142 C 12.75 -151.664062 15.375 -159.664062 20.625 -166 C 25.875 -172.332031 32.5 -177.082031 40.5 -180.25 C 48.5 -183.414062 56.582031 -185 64.75 -185 C 71.082031 -185 76.457031 -184.375 80.875 -183.125 C 85.289062 -181.875 89.082031 -180.375 92.25 -178.625 C 95.414062 -176.875 98.289062 -175.375 100.875 -174.125 C 103.457031 -172.875 106 -172.25 108.5 -172.25 C 111.832031 -172.25 114.082031 -173 115.25 -174.5 C 116.414062 -176 117 -178.582031 117 -182.25 L 120.25 -182.25 L 120.25 -123.25 L 117 -123.25 C 117 -134.414062 114.875 -144.207031 110.625 -152.625 C 106.375 -161.039062 100.582031 -167.582031 93.25 -172.25 C 85.914062 -176.914062 77.582031 -179.25 68.25 -179.25 C 58.25 -179.25 51.082031 -176.875 46.75 -172.125 C 42.414062 -167.375 40.25 -161.332031 40.25 -154 C 40.25 -145.832031 42.414062 -138.625 46.75 -132.375 C 51.082031 -126.125 56.664062 -120.457031 63.5 -115.375 C 70.332031 -110.289062 77.582031 -105.332031 85.25 -100.5 C 92.914062 -95.664062 100.164062 -90.539062 107 -85.125 C 113.832031 -79.707031 119.414062 -73.664062 123.75 -67 C 128.082031 -60.332031 130.25 -52.5 130.25 -43.5 C 130.25 -35 128.539062 -27.25 125.125 -20.25 C 121.707031 -13.25 116 -7.625 108 -3.375 C 100 0.871094 88.914062 3 74.75 3 C 67.914062 3 62.164062 2.414062 57.5 1.25 C 52.832031 0.0820312 48.789062 -1.289062 45.375 -2.875 C 41.957031 -4.457031 38.832031 -5.832031 36 -7 C 33.164062 -8.164062 30.25 -8.75 27.25 -8.75 C 19.582031 -8.75 15.75 -5.832031 15.75 0 Z M 12.5 0 "/></g></g></g></g></g><g transform="matrix(1, 0, 0, 1, 844, 256)"><g clip-path="url(#19bbf24b90)"><g fill="#bc9c22" fill-opacity="1"><g transform="translate(50.253778, 106.004407)"><g><path d="M 87.6875 -39.140625 C 87.8125 -38.609375 87.757812 -38.113281 87.53125 -37.65625 C 87.300781 -37.195312 86.957031 -36.875 86.5 -36.6875 C 83.5 -35.769531 79.921875 -34.671875 75.765625 -33.390625 C 71.609375 -32.117188 67.046875 -30.734375 62.078125 -29.234375 C 61.429688 -25.628906 60.765625 -22.0625 60.078125 -18.53125 C 59.390625 -15 58.75 -11.566406 58.15625 -8.234375 C 56.59375 -0.0664062 55.222656 7.085938 54.046875 13.234375 C 52.867188 19.378906 51.984375 23.828125 51.390625 26.578125 C 51.191406 27.554688 50.570312 28.046875 49.53125 28.046875 C 49.394531 28.046875 49.265625 28.046875 49.140625 28.046875 C 48.679688 27.921875 48.300781 27.644531 48 27.21875 C 47.707031 26.789062 47.628906 26.316406 47.765625 25.796875 C 48.085938 23.960938 48.59375 21.328125 49.28125 17.890625 C 49.96875 14.460938 50.753906 10.441406 51.640625 5.828125 C 52.523438 1.222656 53.457031 -3.691406 54.4375 -8.921875 C 55.019531 -11.929688 55.601562 -15.035156 56.1875 -18.234375 C 56.78125 -21.441406 57.40625 -24.710938 58.0625 -28.046875 C 58 -27.984375 57.945312 -27.953125 57.90625 -27.953125 C 57.875 -27.953125 57.828125 -27.953125 57.765625 -27.953125 C 51.554688 -26.054688 44.9375 -24.046875 37.90625 -21.921875 C 30.875 -19.796875 23.925781 -17.65625 17.0625 -15.5 C 14.707031 -4.25 12.742188 5.394531 11.171875 13.4375 C 9.609375 21.476562 8.316406 28.195312 7.296875 33.59375 C 6.285156 38.988281 5.503906 43.316406 4.953125 46.578125 C 4.398438 49.847656 3.992188 52.335938 3.734375 54.046875 C 4.835938 54.503906 5.195312 55.285156 4.8125 56.390625 C 4.476562 57.441406 4.097656 58.375 3.671875 59.1875 C 3.253906 60.007812 2.648438 60.421875 1.859375 60.421875 C 1.660156 60.421875 1.429688 60.382812 1.171875 60.3125 C 0.191406 60.050781 -0.3125 59.363281 -0.34375 58.25 C -0.375 57.144531 -0.226562 55.515625 0.09375 53.359375 C 0.488281 50.347656 1.175781 46.0625 2.15625 40.5 C 3.925781 30.894531 6.539062 17.492188 10 0.296875 C 10.457031 -2.054688 10.929688 -4.457031 11.421875 -6.90625 C 11.910156 -9.363281 12.421875 -11.800781 12.953125 -14.21875 C 10.265625 -13.375 7.644531 -12.539062 5.09375 -11.71875 C 2.550781 -10.90625 0.0664062 -10.070312 -2.359375 -9.21875 C -9.878906 -6.738281 -15.859375 -4.660156 -20.296875 -2.984375 C -24.742188 -1.316406 -28.078125 0.0195312 -30.296875 1.03125 C -32.523438 2.039062 -34.066406 2.84375 -34.921875 3.4375 C -34.265625 3.894531 -34 4.515625 -34.125 5.296875 C -34.320312 6.335938 -34.945312 6.859375 -36 6.859375 C -36.125 6.859375 -36.253906 6.828125 -36.390625 6.765625 C -37.691406 6.503906 -38.554688 6.09375 -38.984375 5.53125 C -39.410156 4.976562 -39.65625 4.441406 -39.71875 3.921875 C -39.71875 3.265625 -39.472656 2.609375 -38.984375 1.953125 C -38.492188 1.304688 -37.492188 0.539062 -35.984375 -0.34375 C -34.484375 -1.226562 -32.265625 -2.289062 -29.328125 -3.53125 C -23.835938 -5.820312 -15.957031 -8.695312 -5.6875 -12.15625 C -2.613281 -13.144531 0.535156 -14.160156 3.765625 -15.203125 C 7.003906 -16.242188 10.328125 -17.320312 13.734375 -18.4375 C 14.972656 -24.457031 16.179688 -30.3125 17.359375 -36 C 18.535156 -41.6875 19.644531 -47 20.6875 -51.9375 C 21.738281 -56.875 22.65625 -61.21875 23.4375 -64.96875 C 24.226562 -68.726562 24.847656 -71.691406 25.296875 -73.859375 L 25.796875 -75.8125 C 26.378906 -78.625 26.65625 -80.695312 26.625 -82.03125 C 26.59375 -83.375 26.476562 -84.257812 26.28125 -84.6875 C 26.082031 -85.113281 25.984375 -85.328125 25.984375 -85.328125 C 25.859375 -85.390625 25.414062 -85.304688 24.65625 -85.078125 C 23.90625 -84.847656 22.75 -84.050781 21.1875 -82.6875 C 18.894531 -80.71875 16.488281 -78.066406 13.96875 -74.734375 C 11.457031 -71.398438 9.21875 -67.9375 7.25 -64.34375 C 5.164062 -60.414062 3.710938 -56.898438 2.890625 -53.796875 C 2.078125 -50.691406 1.992188 -48.320312 2.640625 -46.6875 C 2.773438 -46.351562 3.1875 -45.84375 3.875 -45.15625 C 4.5625 -44.476562 6.015625 -44.203125 8.234375 -44.328125 C 8.753906 -44.390625 9.210938 -44.238281 9.609375 -43.875 C 10.003906 -43.519531 10.234375 -43.082031 10.296875 -42.5625 C 10.296875 -42.039062 10.128906 -41.582031 9.796875 -41.1875 C 9.472656 -40.800781 9.050781 -40.609375 8.53125 -40.609375 C 5.519531 -40.410156 3.328125 -40.847656 1.953125 -41.921875 C 0.585938 -43.003906 -0.351562 -44.132812 -0.875 -45.3125 C -1.664062 -47.269531 -1.796875 -49.65625 -1.265625 -52.46875 C -0.742188 -55.28125 0.21875 -58.269531 1.625 -61.4375 C 3.03125 -64.613281 4.710938 -67.738281 6.671875 -70.8125 C 8.628906 -73.882812 10.671875 -76.710938 12.796875 -79.296875 C 14.921875 -81.878906 16.867188 -83.957031 18.640625 -85.53125 C 22.554688 -88.925781 25.628906 -89.9375 27.859375 -88.5625 C 30.535156 -86.988281 31.054688 -82.507812 29.421875 -75.125 L 29.03125 -73.0625 C 26.8125 -62.601562 24.785156 -52.941406 22.953125 -44.078125 C 21.117188 -35.222656 19.414062 -27.101562 17.84375 -19.71875 C 24.445312 -21.738281 31.082031 -23.757812 37.75 -25.78125 C 44.425781 -27.8125 50.738281 -29.742188 56.6875 -31.578125 C 57.007812 -31.640625 57.351562 -31.738281 57.71875 -31.875 C 58.082031 -32.007812 58.457031 -32.109375 58.84375 -32.171875 C 60.082031 -38.835938 61.335938 -45.457031 62.609375 -52.03125 C 63.890625 -58.601562 65.117188 -64.832031 66.296875 -70.71875 C 67.472656 -76.601562 68.566406 -81.832031 69.578125 -86.40625 C 70.597656 -90.976562 71.4375 -94.609375 72.09375 -97.296875 C 72.21875 -97.816406 72.507812 -98.207031 72.96875 -98.46875 C 73.425781 -98.726562 73.882812 -98.796875 74.34375 -98.671875 C 74.863281 -98.535156 75.253906 -98.238281 75.515625 -97.78125 C 75.773438 -97.320312 75.84375 -96.863281 75.71875 -96.40625 C 75.0625 -93.789062 74.257812 -90.273438 73.3125 -85.859375 C 72.363281 -81.453125 71.316406 -76.421875 70.171875 -70.765625 C 69.023438 -65.109375 67.832031 -59.09375 66.59375 -52.71875 C 65.351562 -46.34375 64.113281 -39.914062 62.875 -33.4375 C 67.445312 -34.8125 71.644531 -36.070312 75.46875 -37.21875 C 79.289062 -38.363281 82.578125 -39.394531 85.328125 -40.3125 C 85.785156 -40.4375 86.257812 -40.382812 86.75 -40.15625 C 87.238281 -39.925781 87.550781 -39.585938 87.6875 -39.140625 Z M 87.6875 -39.140625 "/></g></g></g><g fill="#bc9c22" fill-opacity="1"><g transform="translate(133.711847, 106.004407)"><g><path d="M 41.09375 -21.765625 C 41.550781 -21.578125 41.859375 -21.238281 42.015625 -20.75 C 42.179688 -20.257812 42.171875 -19.785156 41.984375 -19.328125 C 40.734375 -16.773438 39.375 -14.222656 37.90625 -11.671875 C 36.4375 -9.117188 34.898438 -6.78125 33.296875 -4.65625 C 31.691406 -2.53125 30.039062 -0.832031 28.34375 0.4375 C 26.644531 1.71875 24.945312 2.359375 23.25 2.359375 C 22.914062 2.359375 22.554688 2.320312 22.171875 2.25 C 17.785156 1.40625 15.070312 -4.472656 14.03125 -15.390625 C 12.914062 -13.890625 11.617188 -12.207031 10.140625 -10.34375 C 8.671875 -8.476562 7.125 -6.632812 5.5 -4.8125 C 5.226562 -4.539062 4.796875 -4.128906 4.203125 -3.578125 C 3.617188 -3.023438 2.9375 -2.582031 2.15625 -2.25 C 1.375 -1.925781 0.585938 -1.960938 -0.203125 -2.359375 C -1.765625 -2.941406 -2.515625 -4.640625 -2.453125 -7.453125 C -2.453125 -9.085938 -2.140625 -11.113281 -1.515625 -13.53125 C -0.898438 -15.945312 -0.0195312 -18.378906 1.125 -20.828125 C 2.269531 -23.285156 3.609375 -25.460938 5.140625 -27.359375 C 6.679688 -29.253906 8.398438 -30.53125 10.296875 -31.1875 C 11.472656 -31.644531 12.910156 -31.726562 14.609375 -31.4375 C 16.304688 -31.144531 18.070312 -29.914062 19.90625 -27.75 C 20.238281 -27.363281 20.382812 -26.90625 20.34375 -26.375 C 20.3125 -25.851562 20.101562 -25.429688 19.71875 -25.109375 C 19.320312 -24.785156 18.863281 -24.640625 18.34375 -24.671875 C 17.820312 -24.703125 17.394531 -24.910156 17.0625 -25.296875 C 15.5 -27.128906 14.144531 -27.992188 13 -27.890625 C 11.851562 -27.796875 10.890625 -27.457031 10.109375 -26.875 C 8.660156 -25.820312 7.347656 -24.316406 6.171875 -22.359375 C 4.992188 -20.398438 4.015625 -18.34375 3.234375 -16.1875 C 2.453125 -14.03125 1.894531 -12.019531 1.5625 -10.15625 C 1.238281 -8.289062 1.144531 -6.929688 1.28125 -6.078125 C 1.46875 -6.210938 1.675781 -6.375 1.90625 -6.5625 C 2.132812 -6.757812 2.378906 -7.023438 2.640625 -7.359375 C 4.609375 -9.515625 6.410156 -11.65625 8.046875 -13.78125 C 9.679688 -15.90625 11.085938 -17.785156 12.265625 -19.421875 C 12.585938 -19.878906 12.894531 -20.316406 13.1875 -20.734375 C 13.488281 -21.160156 13.769531 -21.539062 14.03125 -21.875 C 14.550781 -22.53125 15.234375 -22.722656 16.078125 -22.453125 C 16.929688 -22.265625 17.390625 -21.710938 17.453125 -20.796875 C 17.648438 -16.546875 17.992188 -13.128906 18.484375 -10.546875 C 18.972656 -7.960938 19.507812 -6.03125 20.09375 -4.75 C 20.6875 -3.476562 21.242188 -2.613281 21.765625 -2.15625 C 22.296875 -1.695312 22.691406 -1.46875 22.953125 -1.46875 C 24.191406 -1.207031 26.179688 -2.484375 28.921875 -5.296875 C 31.671875 -8.109375 34.878906 -13.304688 38.546875 -20.890625 C 38.804688 -21.410156 39.179688 -21.753906 39.671875 -21.921875 C 40.160156 -22.085938 40.632812 -22.035156 41.09375 -21.765625 Z M 41.09375 -21.765625 "/></g></g></g><g fill="#bc9c22" fill-opacity="1"><g transform="translate(170.194083, 106.004407)"><g><path d="M 28.734375 -22.359375 C 29.191406 -22.097656 29.46875 -21.707031 29.5625 -21.1875 C 29.664062 -20.664062 29.585938 -20.175781 29.328125 -19.71875 C 28.085938 -17.75 26.515625 -15.554688 24.609375 -13.140625 C 22.710938 -10.722656 20.65625 -8.414062 18.4375 -6.21875 C 16.21875 -4.03125 14.007812 -2.21875 11.8125 -0.78125 C 9.625 0.652344 7.613281 1.375 5.78125 1.375 C 5 1.375 4.316406 1.242188 3.734375 0.984375 C 1.503906 0.00390625 0.273438 -2.363281 0.046875 -6.125 C -0.179688 -9.882812 0.585938 -15.195312 2.359375 -22.0625 C 2.484375 -22.59375 2.773438 -22.988281 3.234375 -23.25 C 3.691406 -23.507812 4.148438 -23.570312 4.609375 -23.4375 C 5.128906 -23.3125 5.519531 -23.019531 5.78125 -22.5625 C 6.039062 -22.101562 6.109375 -21.644531 5.984375 -21.1875 C 4.929688 -17 4.273438 -13.675781 4.015625 -11.21875 C 3.753906 -8.769531 3.707031 -6.925781 3.875 -5.6875 C 4.039062 -4.445312 4.285156 -3.613281 4.609375 -3.1875 C 4.929688 -2.757812 5.128906 -2.546875 5.203125 -2.546875 C 6.046875 -2.160156 7.285156 -2.441406 8.921875 -3.390625 C 10.554688 -4.335938 12.382812 -5.738281 14.40625 -7.59375 C 16.4375 -9.457031 18.484375 -11.613281 20.546875 -14.0625 C 22.609375 -16.519531 24.457031 -19.085938 26.09375 -21.765625 C 26.414062 -22.222656 26.820312 -22.5 27.3125 -22.59375 C 27.800781 -22.695312 28.273438 -22.617188 28.734375 -22.359375 Z M 5.59375 -30.203125 C 4.28125 -30.273438 3.609375 -30.648438 3.578125 -31.328125 C 3.546875 -32.015625 3.835938 -32.71875 4.453125 -33.4375 C 5.078125 -34.164062 5.71875 -34.660156 6.375 -34.921875 C 7.414062 -35.242188 8.179688 -35.175781 8.671875 -34.71875 C 9.171875 -34.257812 9.398438 -33.671875 9.359375 -32.953125 C 9.328125 -32.234375 9 -31.578125 8.375 -30.984375 C 7.757812 -30.398438 6.832031 -30.140625 5.59375 -30.203125 Z M 5.59375 -30.203125 "/></g></g></g><g fill="#bc9c22" fill-opacity="1"><g transform="translate(195.005945, 106.004407)"><g><path d="M 43.0625 -22.265625 C 43.519531 -22.003906 43.84375 -21.628906 44.03125 -21.140625 C 44.226562 -20.648438 44.195312 -20.175781 43.9375 -19.71875 C 42.695312 -17.03125 41.175781 -14.019531 39.375 -10.6875 C 37.582031 -7.351562 35.671875 -4.003906 33.640625 -0.640625 C 31.609375 2.722656 29.546875 5.796875 27.453125 8.578125 C 25.367188 11.359375 23.34375 13.613281 21.375 15.34375 C 19.414062 17.082031 17.648438 17.953125 16.078125 17.953125 C 15.617188 17.953125 15.195312 17.851562 14.8125 17.65625 C 13.4375 17.132812 12.535156 15.890625 12.109375 13.921875 C 11.679688 11.960938 11.734375 9.15625 12.265625 5.5 C 13.179688 -1.101562 15.597656 -10.457031 19.515625 -22.5625 C 19.453125 -22.5625 19.40625 -22.539062 19.375 -22.5 C 19.34375 -22.46875 19.289062 -22.453125 19.21875 -22.453125 C 17.914062 -21.546875 16.347656 -20.597656 14.515625 -19.609375 C 12.679688 -18.628906 10.785156 -17.972656 8.828125 -17.640625 C 6.867188 -17.316406 5.003906 -17.742188 3.234375 -18.921875 C 0.753906 -20.691406 -0.515625 -23.144531 -0.578125 -26.28125 C -0.648438 -29.425781 0.519531 -32.859375 2.9375 -36.578125 C 3.726562 -37.753906 4.757812 -39.0625 6.03125 -40.5 C 7.300781 -41.9375 8.640625 -43.046875 10.046875 -43.828125 C 11.453125 -44.617188 12.710938 -44.65625 13.828125 -43.9375 C 14.421875 -43.613281 14.863281 -43.054688 15.15625 -42.265625 C 15.445312 -41.484375 15.425781 -40.273438 15.09375 -38.640625 C 14.769531 -37.003906 13.988281 -34.8125 12.75 -32.0625 C 11.507812 -29.320312 9.644531 -25.757812 7.15625 -21.375 C 8.664062 -21.1875 10.347656 -21.613281 12.203125 -22.65625 C 14.066406 -23.695312 15.71875 -24.675781 17.15625 -25.59375 C 18.53125 -26.507812 19.675781 -27.179688 20.59375 -27.609375 C 21.507812 -28.035156 22.359375 -27.953125 23.140625 -27.359375 C 23.859375 -26.773438 24.148438 -26.054688 24.015625 -25.203125 C 23.890625 -24.359375 23.765625 -23.707031 23.640625 -23.25 C 21.484375 -16.445312 19.816406 -10.789062 18.640625 -6.28125 C 17.460938 -1.769531 16.660156 1.859375 16.234375 4.609375 C 15.804688 7.359375 15.59375 9.414062 15.59375 10.78125 C 15.59375 12.15625 15.691406 13.054688 15.890625 13.484375 C 16.085938 13.910156 16.1875 14.15625 16.1875 14.21875 C 16.96875 14.351562 18.582031 13.09375 21.03125 10.4375 C 23.488281 7.789062 26.414062 3.804688 29.8125 -1.515625 C 33.21875 -6.847656 36.78125 -13.4375 40.5 -21.28125 C 40.769531 -21.800781 41.148438 -22.144531 41.640625 -22.3125 C 42.128906 -22.476562 42.601562 -22.460938 43.0625 -22.265625 Z M 3.53125 -28.9375 C 3.132812 -27.5625 3.019531 -26.429688 3.1875 -25.546875 C 3.351562 -24.660156 3.597656 -23.957031 3.921875 -23.4375 C 6.015625 -27.101562 7.597656 -30.078125 8.671875 -32.359375 C 9.753906 -34.648438 10.488281 -36.414062 10.875 -37.65625 C 11.269531 -38.90625 11.503906 -39.789062 11.578125 -40.3125 C 10.859375 -39.914062 9.957031 -39.160156 8.875 -38.046875 C 7.789062 -36.941406 6.742188 -35.601562 5.734375 -34.03125 C 4.722656 -32.457031 3.988281 -30.757812 3.53125 -28.9375 Z M 3.53125 -28.9375 "/></g></g></g><g fill="#bc9c22" fill-opacity="1"><g transform="translate(234.136185, 106.004407)"><g/></g></g><g fill="#bc9c22" fill-opacity="1"><g transform="translate(264.243825, 106.004407)"><g><path d="M 105.046875 -94.640625 C 105.566406 -94.640625 106.003906 -94.457031 106.359375 -94.09375 C 106.722656 -93.738281 106.90625 -93.300781 106.90625 -92.78125 C 106.90625 -92.257812 106.722656 -91.816406 106.359375 -91.453125 C 106.003906 -91.097656 105.566406 -90.921875 105.046875 -90.921875 C 100.003906 -90.847656 94.242188 -90.4375 87.765625 -89.6875 C 81.296875 -88.9375 74.613281 -87.957031 67.71875 -86.75 C 60.820312 -85.539062 54.171875 -84.117188 47.765625 -82.484375 C 46.785156 -78.367188 45.65625 -73.84375 44.375 -68.90625 C 43.101562 -63.96875 41.75 -58.816406 40.3125 -53.453125 C 39.332031 -49.523438 38.285156 -45.453125 37.171875 -41.234375 C 36.054688 -37.023438 34.976562 -32.796875 33.9375 -28.546875 C 38.445312 -29.722656 42.988281 -30.847656 47.5625 -31.921875 C 52.144531 -33.003906 56.445312 -33.953125 60.46875 -34.765625 C 64.488281 -35.585938 67.953125 -36.207031 70.859375 -36.625 C 73.765625 -37.050781 75.804688 -37.234375 76.984375 -37.171875 C 77.515625 -37.109375 77.941406 -36.894531 78.265625 -36.53125 C 78.585938 -36.175781 78.75 -35.734375 78.75 -35.203125 C 78.6875 -34.679688 78.472656 -34.238281 78.109375 -33.875 C 77.753906 -33.519531 77.316406 -33.34375 76.796875 -33.34375 C 75.484375 -33.476562 72.992188 -33.234375 69.328125 -32.609375 C 65.671875 -31.984375 61.289062 -31.128906 56.1875 -30.046875 C 51.09375 -28.972656 45.703125 -27.71875 40.015625 -26.28125 C 37.523438 -25.625 35.140625 -25.003906 32.859375 -24.421875 C 31.160156 -17.492188 29.585938 -10.773438 28.140625 -4.265625 C 26.703125 2.242188 25.523438 8.257812 24.609375 13.78125 C 23.703125 19.300781 23.210938 23.957031 23.140625 27.75 C 23.140625 29.320312 23.285156 30.910156 23.578125 32.515625 C 23.878906 34.117188 24.550781 35.148438 25.59375 35.609375 C 26.84375 36.128906 28.492188 35.929688 30.546875 35.015625 C 32.609375 34.097656 34.914062 32.691406 37.46875 30.796875 C 40.019531 28.898438 42.632812 26.773438 45.3125 24.421875 C 47.988281 22.066406 50.585938 19.679688 53.109375 17.265625 C 55.628906 14.847656 57.867188 12.6875 59.828125 10.78125 C 60.347656 10.257812 60.867188 9.753906 61.390625 9.265625 C 61.921875 8.773438 62.414062 8.269531 62.875 7.75 L 64.53125 6.171875 C 65.507812 5.265625 66.457031 4.367188 67.375 3.484375 C 68.289062 2.597656 69.109375 1.828125 69.828125 1.171875 C 70.804688 0.253906 71.722656 -0.476562 72.578125 -1.03125 C 73.429688 -1.582031 74.21875 -1.5 74.9375 -0.78125 C 75.78125 -0.0625 75.875 0.882812 75.21875 2.0625 C 74.570312 3.238281 73.300781 5.101562 71.40625 7.65625 C 71.070312 8.113281 70.644531 8.375 70.125 8.4375 C 69.601562 8.5 69.144531 8.367188 68.75 8.046875 C 68.625 7.972656 68.492188 7.875 68.359375 7.75 C 68.160156 7.945312 67.960938 8.140625 67.765625 8.328125 C 67.578125 8.523438 67.382812 8.722656 67.1875 8.921875 L 65.515625 10.5 C 65.054688 10.957031 64.566406 11.445312 64.046875 11.96875 C 63.523438 12.488281 63 12.976562 62.46875 13.4375 C 57.570312 18.207031 52.929688 22.570312 48.546875 26.53125 C 44.171875 30.488281 40.132812 33.660156 36.4375 36.046875 C 32.738281 38.429688 29.550781 39.625 26.875 39.625 C 25.820312 39.625 24.90625 39.425781 24.125 39.03125 C 20.851562 37.65625 19.285156 33.894531 19.421875 27.75 C 19.484375 23.894531 19.9375 19.300781 20.78125 13.96875 C 21.632812 8.644531 22.75 2.808594 24.125 -3.53125 C 25.5 -9.875 27.003906 -16.445312 28.640625 -23.25 C 21.898438 -21.351562 16.664062 -19.703125 12.9375 -18.296875 C 9.21875 -16.890625 7 -15.859375 6.28125 -15.203125 C 5.945312 -14.878906 5.519531 -14.71875 5 -14.71875 C 4.476562 -14.71875 4.019531 -14.910156 3.625 -15.296875 C 3.300781 -15.628906 3.140625 -16.054688 3.140625 -16.578125 C 3.140625 -17.097656 3.335938 -17.554688 3.734375 -17.953125 C 4.515625 -18.734375 6.160156 -19.644531 8.671875 -20.6875 C 11.191406 -21.738281 14.28125 -22.835938 17.9375 -23.984375 C 21.601562 -25.128906 25.53125 -26.289062 29.71875 -27.46875 C 30.832031 -31.976562 31.992188 -36.503906 33.203125 -41.046875 C 34.410156 -45.585938 35.570312 -50.050781 36.6875 -54.4375 C 37.988281 -59.34375 39.226562 -64.082031 40.40625 -68.65625 C 41.582031 -73.226562 42.660156 -77.476562 43.640625 -81.40625 C 37.890625 -79.832031 32.644531 -78.179688 27.90625 -76.453125 C 23.164062 -74.722656 19.289062 -72.941406 16.28125 -71.109375 C 13.269531 -69.273438 11.503906 -67.441406 10.984375 -65.609375 C 10.847656 -65.347656 10.847656 -64.757812 10.984375 -63.84375 C 11.117188 -62.925781 12.195312 -61.785156 14.21875 -60.421875 C 14.613281 -60.085938 14.859375 -59.675781 14.953125 -59.1875 C 15.054688 -58.695312 14.976562 -58.222656 14.71875 -57.765625 C 14.320312 -57.242188 13.796875 -56.984375 13.140625 -56.984375 C 12.742188 -56.984375 12.382812 -57.082031 12.0625 -57.28125 C 9.445312 -59.039062 7.925781 -60.753906 7.5 -62.421875 C 7.070312 -64.085938 7.023438 -65.507812 7.359375 -66.6875 C 8.015625 -68.78125 9.535156 -70.742188 11.921875 -72.578125 C 14.304688 -74.410156 17.28125 -76.109375 20.84375 -77.671875 C 24.40625 -79.242188 28.242188 -80.695312 32.359375 -82.03125 C 36.484375 -83.375 40.570312 -84.570312 44.625 -85.625 C 45.019531 -87.257812 45.347656 -88.664062 45.609375 -89.84375 C 45.671875 -90.363281 45.929688 -90.753906 46.390625 -91.015625 C 46.847656 -91.273438 47.304688 -91.375 47.765625 -91.3125 C 48.285156 -91.175781 48.691406 -90.894531 48.984375 -90.46875 C 49.285156 -90.050781 49.367188 -89.582031 49.234375 -89.0625 C 49.097656 -88.40625 48.9375 -87.585938 48.75 -86.609375 C 55.09375 -88.171875 61.675781 -89.539062 68.5 -90.71875 C 75.332031 -91.894531 81.90625 -92.828125 88.21875 -93.515625 C 94.53125 -94.203125 100.140625 -94.578125 105.046875 -94.640625 Z M 105.046875 -94.640625 "/></g></g></g><g fill="#bc9c22" fill-opacity="1"><g transform="translate(347.407788, 106.004407)"><g><path d="M 25.015625 -30.015625 C 25.273438 -29.617188 25.335938 -29.160156 25.203125 -28.640625 C 25.078125 -28.117188 24.785156 -27.726562 24.328125 -27.46875 C 19.941406 -24.78125 14.9375 -19.644531 9.3125 -12.0625 C 10.425781 -9.582031 11.648438 -7.375 12.984375 -5.4375 C 14.328125 -3.507812 15.585938 -2.351562 16.765625 -1.96875 C 16.960938 -1.894531 17.257812 -1.890625 17.65625 -1.953125 C 18.050781 -2.023438 18.507812 -2.453125 19.03125 -3.234375 C 19.289062 -3.691406 19.679688 -3.96875 20.203125 -4.0625 C 20.722656 -4.164062 21.210938 -4.054688 21.671875 -3.734375 C 22.066406 -3.460938 22.3125 -3.066406 22.40625 -2.546875 C 22.507812 -2.023438 22.429688 -1.566406 22.171875 -1.171875 C 21.378906 0.0664062 20.539062 0.878906 19.65625 1.265625 C 18.78125 1.660156 17.984375 1.859375 17.265625 1.859375 C 16.742188 1.859375 16.21875 1.796875 15.6875 1.671875 C 14.125 1.140625 12.570312 -0.0703125 11.03125 -1.96875 C 9.5 -3.863281 8.109375 -6.050781 6.859375 -8.53125 C 2.941406 -2.90625 -1.007812 3.597656 -5 10.984375 C -5.394531 11.640625 -5.953125 11.96875 -6.671875 11.96875 C -6.992188 11.96875 -7.285156 11.867188 -7.546875 11.671875 C -8.003906 11.472656 -8.316406 11.113281 -8.484375 10.59375 C -8.648438 10.070312 -8.601562 9.582031 -8.34375 9.125 C -6.507812 5.71875 -4.445312 2.140625 -2.15625 -1.609375 C 0.132812 -5.367188 2.519531 -9.015625 5 -12.546875 C 3.757812 -15.359375 2.78125 -18.085938 2.0625 -20.734375 C 1.34375 -23.390625 1.015625 -25.40625 1.078125 -26.78125 C 1.078125 -27.300781 1.269531 -27.738281 1.65625 -28.09375 C 2.050781 -28.457031 2.515625 -28.609375 3.046875 -28.546875 C 3.566406 -28.546875 4.003906 -28.347656 4.359375 -27.953125 C 4.722656 -27.554688 4.90625 -27.097656 4.90625 -26.578125 C 4.84375 -25.597656 5.054688 -24.144531 5.546875 -22.21875 C 6.035156 -20.289062 6.703125 -18.242188 7.546875 -16.078125 C 9.972656 -19.222656 12.441406 -22.066406 14.953125 -24.609375 C 17.472656 -27.160156 19.941406 -29.191406 22.359375 -30.703125 C 22.816406 -30.960938 23.304688 -31.023438 23.828125 -30.890625 C 24.359375 -30.765625 24.753906 -30.472656 25.015625 -30.015625 Z M 25.015625 -30.015625 "/></g></g></g><g fill="#bc9c22" fill-opacity="1"><g transform="translate(373.886912, 106.004407)"><g><path d="M 82.78125 -57.859375 C 83.101562 -57.472656 83.234375 -57.015625 83.171875 -56.484375 C 83.109375 -55.960938 82.847656 -55.539062 82.390625 -55.21875 C 81.597656 -54.695312 80.84375 -54.726562 80.125 -55.3125 C 79.28125 -55.644531 77.335938 -55.875 74.296875 -56 C 71.253906 -56.132812 67.441406 -56.21875 62.859375 -56.25 C 58.285156 -56.28125 53.253906 -56.257812 47.765625 -56.1875 C 42.273438 -56.125 36.632812 -56.046875 30.84375 -55.953125 C 25.0625 -55.859375 19.457031 -55.742188 14.03125 -55.609375 C 12 -47.109375 9.867188 -37.875 7.640625 -27.90625 C 5.421875 -17.9375 3.234375 -7.816406 1.078125 2.453125 C -1.730469 15.921875 -3.90625 26.96875 -5.4375 35.59375 C -6.976562 44.226562 -7.976562 50.472656 -8.4375 54.328125 C -8.300781 54.328125 -8.171875 54.363281 -8.046875 54.4375 C -7.515625 54.5625 -7.148438 54.867188 -6.953125 55.359375 C -6.765625 55.847656 -6.769531 56.320312 -6.96875 56.78125 C -7.351562 57.894531 -7.789062 58.925781 -8.28125 59.875 C -8.769531 60.820312 -9.441406 61.296875 -10.296875 61.296875 C -10.492188 61.296875 -10.722656 61.265625 -10.984375 61.203125 C -11.898438 60.867188 -12.40625 60.160156 -12.5 59.078125 C -12.601562 58.003906 -12.523438 56.519531 -12.265625 54.625 C -12.003906 51.882812 -11.414062 47.929688 -10.5 42.765625 C -9.707031 37.921875 -8.691406 32.257812 -7.453125 25.78125 C -6.210938 19.3125 -4.773438 12.222656 -3.140625 4.515625 C -0.984375 -5.949219 1.238281 -16.347656 3.53125 -26.671875 C 5.820312 -37.003906 8.015625 -46.617188 10.109375 -55.515625 C 6.960938 -55.453125 3.984375 -55.382812 1.171875 -55.3125 C -1.636719 -55.25 -4.1875 -55.1875 -6.46875 -55.125 C -10.851562 -54.988281 -14.679688 -54.890625 -17.953125 -54.828125 C -21.222656 -54.765625 -23.539062 -54.734375 -24.90625 -54.734375 C -25.4375 -54.734375 -25.878906 -54.910156 -26.234375 -55.265625 C -26.597656 -55.628906 -26.78125 -56.070312 -26.78125 -56.59375 C -26.78125 -57.113281 -26.597656 -57.550781 -26.234375 -57.90625 C -25.878906 -58.269531 -25.4375 -58.453125 -24.90625 -58.453125 C -23.539062 -58.453125 -21.238281 -58.5 -18 -58.59375 C -14.757812 -58.695312 -10.953125 -58.8125 -6.578125 -58.9375 C -3.429688 -59.007812 -0.386719 -59.078125 2.546875 -59.140625 C 5.492188 -59.203125 8.335938 -59.269531 11.078125 -59.34375 C 12.054688 -63.519531 13.019531 -67.457031 13.96875 -71.15625 C 14.914062 -74.851562 15.816406 -78.238281 16.671875 -81.3125 C 16.804688 -81.832031 17.101562 -82.222656 17.5625 -82.484375 C 18.019531 -82.742188 18.472656 -82.8125 18.921875 -82.6875 C 19.453125 -82.550781 19.847656 -82.253906 20.109375 -81.796875 C 20.367188 -81.335938 20.429688 -80.847656 20.296875 -80.328125 C 18.734375 -74.503906 16.9375 -67.539062 14.90625 -59.4375 C 25.101562 -59.632812 33.832031 -59.78125 41.09375 -59.875 C 48.351562 -59.976562 54.429688 -60.03125 59.328125 -60.03125 C 64.234375 -60.03125 68.207031 -59.960938 71.25 -59.828125 C 74.289062 -59.691406 76.59375 -59.539062 78.15625 -59.375 C 79.726562 -59.21875 80.84375 -59.007812 81.5 -58.75 C 82.15625 -58.488281 82.582031 -58.191406 82.78125 -57.859375 Z M 82.78125 -57.859375 "/></g></g></g><g fill="#bc9c22" fill-opacity="1"><g transform="translate(386.930325, 106.004407)"><g><path d="M 33.15625 -21.875 C 33.613281 -21.613281 33.875 -21.21875 33.9375 -20.6875 C 34 -20.164062 33.898438 -19.710938 33.640625 -19.328125 C 29.785156 -13.960938 26.253906 -9.53125 23.046875 -6.03125 C 19.847656 -2.53125 16.644531 0.359375 13.4375 2.640625 C 11.019531 4.347656 8.632812 5.203125 6.28125 5.203125 C 4.445312 5.203125 2.84375 4.710938 1.46875 3.734375 C 0.550781 3.078125 -0.34375 1.914062 -1.21875 0.25 C -2.101562 -1.414062 -2.578125 -3.832031 -2.640625 -7 C -2.710938 -10.175781 -1.929688 -14.347656 -0.296875 -19.515625 C -0.296875 -19.515625 -0.296875 -19.546875 -0.296875 -19.609375 C 1.660156 -25.890625 3.960938 -30.679688 6.609375 -33.984375 C 9.265625 -37.285156 11.539062 -38.96875 13.4375 -39.03125 C 14.9375 -39.101562 15.914062 -38.453125 16.375 -37.078125 C 17.09375 -35.179688 16.242188 -32.484375 13.828125 -28.984375 C 11.410156 -25.484375 7.847656 -21.769531 3.140625 -17.84375 C 1.703125 -13.269531 1.015625 -9.691406 1.078125 -7.109375 C 1.140625 -4.523438 1.5 -2.660156 2.15625 -1.515625 C 2.8125 -0.367188 3.335938 0.363281 3.734375 0.6875 C 5.691406 2.125 8.207031 1.730469 11.28125 -0.484375 C 14.289062 -2.578125 17.332031 -5.304688 20.40625 -8.671875 C 23.476562 -12.046875 26.84375 -16.316406 30.5 -21.484375 C 30.832031 -21.867188 31.257812 -22.109375 31.78125 -22.203125 C 32.300781 -22.304688 32.757812 -22.195312 33.15625 -21.875 Z M 12.75 -34.921875 C 12.03125 -34.460938 11.046875 -33.492188 9.796875 -32.015625 C 8.554688 -30.546875 7.285156 -28.40625 5.984375 -25.59375 C 8.335938 -27.882812 10.003906 -29.832031 10.984375 -31.4375 C 11.960938 -33.039062 12.550781 -34.203125 12.75 -34.921875 Z M 12.75 -34.921875 "/></g></g></g><g fill="#bc9c22" fill-opacity="1"><g transform="translate(415.468893, 106.004407)"><g><path d="M 39.53125 -21.875 C 39.988281 -21.613281 40.28125 -21.238281 40.40625 -20.75 C 40.539062 -20.257812 40.476562 -19.785156 40.21875 -19.328125 C 37.144531 -13.898438 34.378906 -9.726562 31.921875 -6.8125 C 29.472656 -3.90625 26.972656 -2.613281 24.421875 -2.9375 C 21.148438 -3.332031 18.566406 -6.863281 16.671875 -13.53125 C 16.015625 -15.6875 15.441406 -17.238281 14.953125 -18.1875 C 14.460938 -19.132812 14.070312 -19.722656 13.78125 -19.953125 C 13.488281 -20.179688 13.273438 -20.296875 13.140625 -20.296875 C 12.941406 -20.367188 12.546875 -20.175781 11.953125 -19.71875 C 11.367188 -19.257812 10.519531 -18.242188 9.40625 -16.671875 C 8.300781 -15.097656 6.929688 -12.660156 5.296875 -9.359375 C 3.660156 -6.054688 1.664062 -1.527344 -0.6875 4.21875 C -1.007812 5 -1.566406 5.390625 -2.359375 5.390625 C -2.546875 5.390625 -2.707031 5.359375 -2.84375 5.296875 C -3.957031 5.035156 -4.445312 4.347656 -4.3125 3.234375 C -3.988281 0.554688 -3.398438 -2.546875 -2.546875 -6.078125 C -1.703125 -9.609375 -0.773438 -13.203125 0.234375 -16.859375 C 1.253906 -20.523438 2.191406 -23.796875 3.046875 -26.671875 C 3.234375 -27.328125 3.410156 -27.929688 3.578125 -28.484375 C 3.742188 -29.046875 3.890625 -29.585938 4.015625 -30.109375 C 4.210938 -30.628906 4.539062 -31.003906 5 -31.234375 C 5.457031 -31.460938 5.914062 -31.515625 6.375 -31.390625 C 6.894531 -31.253906 7.285156 -30.957031 7.546875 -30.5 C 7.804688 -30.039062 7.84375 -29.550781 7.65625 -29.03125 C 7.519531 -28.507812 7.367188 -27.96875 7.203125 -27.40625 C 7.046875 -26.851562 6.867188 -26.25 6.671875 -25.59375 C 6.210938 -23.894531 5.6875 -22.03125 5.09375 -20 C 4.507812 -17.976562 3.921875 -15.921875 3.328125 -13.828125 C 5.554688 -18.015625 7.453125 -20.789062 9.015625 -22.15625 C 10.585938 -23.53125 12.03125 -24.1875 13.34375 -24.125 C 15.164062 -24 16.597656 -22.988281 17.640625 -21.09375 C 18.691406 -19.195312 19.578125 -17.003906 20.296875 -14.515625 C 21.273438 -11.117188 22.191406 -8.960938 23.046875 -8.046875 C 23.898438 -7.128906 24.519531 -6.671875 24.90625 -6.671875 C 25.757812 -6.535156 26.757812 -7.003906 27.90625 -8.078125 C 29.050781 -9.160156 30.191406 -10.535156 31.328125 -12.203125 C 32.472656 -13.878906 33.550781 -15.53125 34.5625 -17.15625 C 35.582031 -18.789062 36.351562 -20.132812 36.875 -21.1875 C 37.132812 -21.644531 37.523438 -21.9375 38.046875 -22.0625 C 38.578125 -22.195312 39.070312 -22.132812 39.53125 -21.875 Z M 39.53125 -21.875 "/></g></g></g><g fill="#bc9c22" fill-opacity="1"><g transform="translate(450.480131, 106.004407)"><g><path d="M 43.640625 -22.453125 C 44.035156 -22.128906 44.265625 -21.707031 44.328125 -21.1875 C 44.390625 -20.664062 44.226562 -20.207031 43.84375 -19.8125 C 41.945312 -17.59375 39.851562 -15.140625 37.5625 -12.453125 C 35.269531 -9.773438 33.03125 -7.160156 30.84375 -4.609375 C 28.65625 -2.054688 26.773438 0.148438 25.203125 2.015625 C 23.640625 3.878906 22.59375 5.132812 22.0625 5.78125 C 20.957031 7.21875 19.878906 8.625 18.828125 10 C 19.679688 13.789062 19.765625 17.367188 19.078125 20.734375 C 18.390625 24.109375 17.242188 27.101562 15.640625 29.71875 C 14.035156 32.332031 12.351562 34.359375 10.59375 35.796875 C 8.757812 37.367188 7.0625 38.15625 5.5 38.15625 C 4.507812 38.15625 3.691406 37.828125 3.046875 37.171875 C 1.929688 36.128906 1.550781 34.578125 1.90625 32.515625 C 2.269531 30.453125 3.101562 28.113281 4.40625 25.5 C 5.71875 22.882812 7.289062 20.171875 9.125 17.359375 C 10.957031 14.546875 12.820312 11.832031 14.71875 9.21875 C 14.382812 8.039062 13.921875 6.847656 13.328125 5.640625 C 12.742188 4.429688 12.0625 3.207031 11.28125 1.96875 C 8.59375 -2.089844 6.316406 -5.90625 4.453125 -9.46875 C 2.597656 -13.03125 1.734375 -16.28125 1.859375 -19.21875 C 2.191406 -24.644531 4.613281 -28.703125 9.125 -31.390625 C 10.957031 -32.492188 12.882812 -33.144531 14.90625 -33.34375 C 16.9375 -33.539062 18.800781 -33.25 20.5 -32.46875 C 20.957031 -32.207031 21.265625 -31.828125 21.421875 -31.328125 C 21.585938 -30.835938 21.570312 -30.363281 21.375 -29.90625 C 21.113281 -29.457031 20.738281 -29.148438 20.25 -28.984375 C 19.757812 -28.816406 19.285156 -28.832031 18.828125 -29.03125 C 16.472656 -30.144531 13.890625 -29.847656 11.078125 -28.140625 C 7.679688 -26.117188 5.882812 -23.082031 5.6875 -19.03125 C 5.5625 -16.601562 6.378906 -13.753906 8.140625 -10.484375 C 9.898438 -7.222656 11.992188 -3.796875 14.421875 -0.203125 C 15.660156 1.691406 16.671875 3.625 17.453125 5.59375 C 17.984375 4.9375 18.539062 4.21875 19.125 3.4375 C 19.644531 2.78125 20.707031 1.503906 22.3125 -0.390625 C 23.914062 -2.285156 25.796875 -4.507812 27.953125 -7.0625 C 30.109375 -9.613281 32.347656 -12.226562 34.671875 -14.90625 C 36.992188 -17.582031 39.101562 -20.035156 41 -22.265625 C 41.320312 -22.660156 41.742188 -22.890625 42.265625 -22.953125 C 42.796875 -23.015625 43.253906 -22.847656 43.640625 -22.453125 Z M 11.765625 28.828125 C 12.222656 28.109375 12.78125 27.078125 13.4375 25.734375 C 14.09375 24.398438 14.664062 22.769531 15.15625 20.84375 C 15.644531 18.914062 15.789062 16.773438 15.59375 14.421875 C 12.582031 18.671875 10.34375 22.203125 8.875 25.015625 C 7.40625 27.828125 6.457031 29.96875 6.03125 31.4375 C 5.601562 32.90625 5.457031 33.867188 5.59375 34.328125 C 6.050781 34.328125 6.867188 33.898438 8.046875 33.046875 C 9.222656 32.203125 10.460938 30.796875 11.765625 28.828125 Z M 11.765625 28.828125 "/></g></g></g><g fill="#bc9c22" fill-opacity="1"><g transform="translate(490.002553, 106.004407)"><g><path d="M 28.734375 -22.359375 C 29.191406 -22.097656 29.46875 -21.707031 29.5625 -21.1875 C 29.664062 -20.664062 29.585938 -20.175781 29.328125 -19.71875 C 28.085938 -17.75 26.515625 -15.554688 24.609375 -13.140625 C 22.710938 -10.722656 20.65625 -8.414062 18.4375 -6.21875 C 16.21875 -4.03125 14.007812 -2.21875 11.8125 -0.78125 C 9.625 0.652344 7.613281 1.375 5.78125 1.375 C 5 1.375 4.316406 1.242188 3.734375 0.984375 C 1.503906 0.00390625 0.273438 -2.363281 0.046875 -6.125 C -0.179688 -9.882812 0.585938 -15.195312 2.359375 -22.0625 C 2.484375 -22.59375 2.773438 -22.988281 3.234375 -23.25 C 3.691406 -23.507812 4.148438 -23.570312 4.609375 -23.4375 C 5.128906 -23.3125 5.519531 -23.019531 5.78125 -22.5625 C 6.039062 -22.101562 6.109375 -21.644531 5.984375 -21.1875 C 4.929688 -17 4.273438 -13.675781 4.015625 -11.21875 C 3.753906 -8.769531 3.707031 -6.925781 3.875 -5.6875 C 4.039062 -4.445312 4.285156 -3.613281 4.609375 -3.1875 C 4.929688 -2.757812 5.128906 -2.546875 5.203125 -2.546875 C 6.046875 -2.160156 7.285156 -2.441406 8.921875 -3.390625 C 10.554688 -4.335938 12.382812 -5.738281 14.40625 -7.59375 C 16.4375 -9.457031 18.484375 -11.613281 20.546875 -14.0625 C 22.609375 -16.519531 24.457031 -19.085938 26.09375 -21.765625 C 26.414062 -22.222656 26.820312 -22.5 27.3125 -22.59375 C 27.800781 -22.695312 28.273438 -22.617188 28.734375 -22.359375 Z M 5.59375 -30.203125 C 4.28125 -30.273438 3.609375 -30.648438 3.578125 -31.328125 C 3.546875 -32.015625 3.835938 -32.71875 4.453125 -33.4375 C 5.078125 -34.164062 5.71875 -34.660156 6.375 -34.921875 C 7.414062 -35.242188 8.179688 -35.175781 8.671875 -34.71875 C 9.171875 -34.257812 9.398438 -33.671875 9.359375 -32.953125 C 9.328125 -32.234375 9 -31.578125 8.375 -30.984375 C 7.757812 -30.398438 6.832031 -30.140625 5.59375 -30.203125 Z M 5.59375 -30.203125 "/></g></g></g><g fill="#bc9c22" fill-opacity="1"><g transform="translate(514.814415, 106.004407)"><g><path d="M 35.5 -21.375 C 35.957031 -21.050781 36.21875 -20.628906 36.28125 -20.109375 C 36.351562 -19.585938 36.222656 -19.128906 35.890625 -18.734375 C 34.191406 -16.578125 32.210938 -14.644531 29.953125 -12.9375 C 27.703125 -11.238281 25.347656 -9.976562 22.890625 -9.15625 C 20.441406 -8.34375 18.078125 -8.203125 15.796875 -8.734375 C 14.878906 -6.441406 13.585938 -4.671875 11.921875 -3.421875 C 10.253906 -2.179688 8.566406 -1.5625 6.859375 -1.5625 C 6.859375 -1.5625 6.84375 -1.5625 6.8125 -1.5625 C 6.78125 -1.5625 6.765625 -1.5625 6.765625 -1.5625 C 5.003906 -1.632812 3.453125 -2.238281 2.109375 -3.375 C 0.765625 -4.519531 -0.164062 -6.109375 -0.6875 -8.140625 C -1.269531 -10.429688 -1.363281 -12.601562 -0.96875 -14.65625 C -0.582031 -16.71875 0.128906 -18.53125 1.171875 -20.09375 C 2.222656 -21.664062 3.398438 -22.878906 4.703125 -23.734375 C 5.160156 -24.054688 5.6875 -24.125 6.28125 -23.9375 C 6.863281 -25.375 7.691406 -26.484375 8.765625 -27.265625 C 9.847656 -28.046875 10.976562 -28.335938 12.15625 -28.140625 C 12.875 -28.015625 13.660156 -27.578125 14.515625 -26.828125 C 15.367188 -26.078125 16.054688 -24.734375 16.578125 -22.796875 C 17.097656 -20.867188 17.257812 -18.039062 17.0625 -14.3125 C 17 -13.664062 16.898438 -13.015625 16.765625 -12.359375 C 18.535156 -12.035156 20.398438 -12.234375 22.359375 -12.953125 C 24.316406 -13.671875 26.210938 -14.765625 28.046875 -16.234375 C 29.878906 -17.703125 31.484375 -19.320312 32.859375 -21.09375 C 33.179688 -21.476562 33.601562 -21.703125 34.125 -21.765625 C 34.65625 -21.835938 35.113281 -21.707031 35.5 -21.375 Z M 6.859375 -5.390625 C 7.710938 -5.390625 8.660156 -5.78125 9.703125 -6.5625 C 10.753906 -7.351562 11.609375 -8.535156 12.265625 -10.109375 C 9.910156 -11.410156 8.222656 -12.910156 7.203125 -14.609375 C 6.191406 -16.304688 5.65625 -18.007812 5.59375 -19.71875 C 4.21875 -18.40625 3.316406 -16.734375 2.890625 -14.703125 C 2.460938 -12.679688 2.476562 -10.851562 2.9375 -9.21875 C 3.132812 -8.5 3.523438 -7.679688 4.109375 -6.765625 C 4.703125 -5.847656 5.617188 -5.390625 6.859375 -5.390625 Z M 13.234375 -14.515625 C 13.367188 -17.128906 13.320312 -19.15625 13.09375 -20.59375 C 12.863281 -22.03125 12.582031 -23.007812 12.25 -23.53125 C 11.925781 -24.0625 11.703125 -24.359375 11.578125 -24.421875 C 11.503906 -24.421875 11.46875 -24.421875 11.46875 -24.421875 C 11.28125 -24.421875 10.988281 -24.222656 10.59375 -23.828125 C 10.195312 -23.441406 9.867188 -22.851562 9.609375 -22.0625 C 9.210938 -20.820312 9.242188 -19.46875 9.703125 -18 C 10.160156 -16.53125 11.335938 -15.171875 13.234375 -13.921875 C 13.234375 -14.117188 13.234375 -14.316406 13.234375 -14.515625 Z M 13.234375 -14.515625 "/></g></g></g><g fill="#bc9c22" fill-opacity="1"><g transform="translate(546.197021, 106.004407)"><g><path d="M 39.53125 -21.875 C 39.988281 -21.613281 40.28125 -21.238281 40.40625 -20.75 C 40.539062 -20.257812 40.476562 -19.785156 40.21875 -19.328125 C 37.144531 -13.898438 34.378906 -9.726562 31.921875 -6.8125 C 29.472656 -3.90625 26.972656 -2.613281 24.421875 -2.9375 C 21.148438 -3.332031 18.566406 -6.863281 16.671875 -13.53125 C 16.015625 -15.6875 15.441406 -17.238281 14.953125 -18.1875 C 14.460938 -19.132812 14.070312 -19.722656 13.78125 -19.953125 C 13.488281 -20.179688 13.273438 -20.296875 13.140625 -20.296875 C 12.941406 -20.367188 12.546875 -20.175781 11.953125 -19.71875 C 11.367188 -19.257812 10.519531 -18.242188 9.40625 -16.671875 C 8.300781 -15.097656 6.929688 -12.660156 5.296875 -9.359375 C 3.660156 -6.054688 1.664062 -1.527344 -0.6875 4.21875 C -1.007812 5 -1.566406 5.390625 -2.359375 5.390625 C -2.546875 5.390625 -2.707031 5.359375 -2.84375 5.296875 C -3.957031 5.035156 -4.445312 4.347656 -4.3125 3.234375 C -3.988281 0.554688 -3.398438 -2.546875 -2.546875 -6.078125 C -1.703125 -9.609375 -0.773438 -13.203125 0.234375 -16.859375 C 1.253906 -20.523438 2.191406 -23.796875 3.046875 -26.671875 C 3.234375 -27.328125 3.410156 -27.929688 3.578125 -28.484375 C 3.742188 -29.046875 3.890625 -29.585938 4.015625 -30.109375 C 4.210938 -30.628906 4.539062 -31.003906 5 -31.234375 C 5.457031 -31.460938 5.914062 -31.515625 6.375 -31.390625 C 6.894531 -31.253906 7.285156 -30.957031 7.546875 -30.5 C 7.804688 -30.039062 7.84375 -29.550781 7.65625 -29.03125 C 7.519531 -28.507812 7.367188 -27.96875 7.203125 -27.40625 C 7.046875 -26.851562 6.867188 -26.25 6.671875 -25.59375 C 6.210938 -23.894531 5.6875 -22.03125 5.09375 -20 C 4.507812 -17.976562 3.921875 -15.921875 3.328125 -13.828125 C 5.554688 -18.015625 7.453125 -20.789062 9.015625 -22.15625 C 10.585938 -23.53125 12.03125 -24.1875 13.34375 -24.125 C 15.164062 -24 16.597656 -22.988281 17.640625 -21.09375 C 18.691406 -19.195312 19.578125 -17.003906 20.296875 -14.515625 C 21.273438 -11.117188 22.191406 -8.960938 23.046875 -8.046875 C 23.898438 -7.128906 24.519531 -6.671875 24.90625 -6.671875 C 25.757812 -6.535156 26.757812 -7.003906 27.90625 -8.078125 C 29.050781 -9.160156 30.191406 -10.535156 31.328125 -12.203125 C 32.472656 -13.878906 33.550781 -15.53125 34.5625 -17.15625 C 35.582031 -18.789062 36.351562 -20.132812 36.875 -21.1875 C 37.132812 -21.644531 37.523438 -21.9375 38.046875 -22.0625 C 38.578125 -22.195312 39.070312 -22.132812 39.53125 -21.875 Z M 39.53125 -21.875 "/></g></g></g><g fill="#bc9c22" fill-opacity="1"><g transform="translate(581.208258, 106.004407)"><g><path d="M 43.640625 -22.453125 C 44.035156 -22.128906 44.265625 -21.707031 44.328125 -21.1875 C 44.390625 -20.664062 44.226562 -20.207031 43.84375 -19.8125 C 41.945312 -17.59375 39.851562 -15.140625 37.5625 -12.453125 C 35.269531 -9.773438 33.03125 -7.160156 30.84375 -4.609375 C 28.65625 -2.054688 26.773438 0.148438 25.203125 2.015625 C 23.640625 3.878906 22.59375 5.132812 22.0625 5.78125 C 20.957031 7.21875 19.878906 8.625 18.828125 10 C 19.679688 13.789062 19.765625 17.367188 19.078125 20.734375 C 18.390625 24.109375 17.242188 27.101562 15.640625 29.71875 C 14.035156 32.332031 12.351562 34.359375 10.59375 35.796875 C 8.757812 37.367188 7.0625 38.15625 5.5 38.15625 C 4.507812 38.15625 3.691406 37.828125 3.046875 37.171875 C 1.929688 36.128906 1.550781 34.578125 1.90625 32.515625 C 2.269531 30.453125 3.101562 28.113281 4.40625 25.5 C 5.71875 22.882812 7.289062 20.171875 9.125 17.359375 C 10.957031 14.546875 12.820312 11.832031 14.71875 9.21875 C 14.382812 8.039062 13.921875 6.847656 13.328125 5.640625 C 12.742188 4.429688 12.0625 3.207031 11.28125 1.96875 C 8.59375 -2.089844 6.316406 -5.90625 4.453125 -9.46875 C 2.597656 -13.03125 1.734375 -16.28125 1.859375 -19.21875 C 2.191406 -24.644531 4.613281 -28.703125 9.125 -31.390625 C 10.957031 -32.492188 12.882812 -33.144531 14.90625 -33.34375 C 16.9375 -33.539062 18.800781 -33.25 20.5 -32.46875 C 20.957031 -32.207031 21.265625 -31.828125 21.421875 -31.328125 C 21.585938 -30.835938 21.570312 -30.363281 21.375 -29.90625 C 21.113281 -29.457031 20.738281 -29.148438 20.25 -28.984375 C 19.757812 -28.816406 19.285156 -28.832031 18.828125 -29.03125 C 16.472656 -30.144531 13.890625 -29.847656 11.078125 -28.140625 C 7.679688 -26.117188 5.882812 -23.082031 5.6875 -19.03125 C 5.5625 -16.601562 6.378906 -13.753906 8.140625 -10.484375 C 9.898438 -7.222656 11.992188 -3.796875 14.421875 -0.203125 C 15.660156 1.691406 16.671875 3.625 17.453125 5.59375 C 17.984375 4.9375 18.539062 4.21875 19.125 3.4375 C 19.644531 2.78125 20.707031 1.503906 22.3125 -0.390625 C 23.914062 -2.285156 25.796875 -4.507812 27.953125 -7.0625 C 30.109375 -9.613281 32.347656 -12.226562 34.671875 -14.90625 C 36.992188 -17.582031 39.101562 -20.035156 41 -22.265625 C 41.320312 -22.660156 41.742188 -22.890625 42.265625 -22.953125 C 42.796875 -23.015625 43.253906 -22.847656 43.640625 -22.453125 Z M 11.765625 28.828125 C 12.222656 28.109375 12.78125 27.078125 13.4375 25.734375 C 14.09375 24.398438 14.664062 22.769531 15.15625 20.84375 C 15.644531 18.914062 15.789062 16.773438 15.59375 14.421875 C 12.582031 18.671875 10.34375 22.203125 8.875 25.015625 C 7.40625 27.828125 6.457031 29.96875 6.03125 31.4375 C 5.601562 32.90625 5.457031 33.867188 5.59375 34.328125 C 6.050781 34.328125 6.867188 33.898438 8.046875 33.046875 C 9.222656 32.203125 10.460938 30.796875 11.765625 28.828125 Z M 11.765625 28.828125 "/></g></g></g><g fill="#bc9c22" fill-opacity="1"><g transform="translate(620.760378, 106.004407)"><g/></g></g></g></g><g transform="matrix(1, 0, 0, 1, 33, 43)"><g clip-path="url(#5073026911)"><g fill="#bc9c22" fill-opacity="1"><g transform="translate(23.786337, 107.821832)"><g><path d="M -9.265625 -13.390625 L -1.296875 -21.484375 L 0.40625 -19.8125 L -5.828125 -13.484375 L -2.828125 -10.5 L 2.53125 -15.9375 L 4.234375 -14.28125 L -1.125 -8.84375 L 2.171875 -5.578125 L 8.40625 -11.90625 L 10.09375 -10.234375 L 2.125 -2.140625 Z M -9.265625 -13.390625 "/></g></g></g><g fill="#bc9c22" fill-opacity="1"><g transform="translate(40.558745, 91.387285)"><g><path d="M -0.296875 -6 C 0.835938 -5.726562 1.878906 -5.644531 2.828125 -5.75 C 3.773438 -5.863281 4.726562 -6.300781 5.6875 -7.0625 C 6.175781 -7.445312 6.585938 -7.890625 6.921875 -8.390625 C 7.265625 -8.890625 7.472656 -9.390625 7.546875 -9.890625 C 7.628906 -10.398438 7.503906 -10.859375 7.171875 -11.265625 C 6.703125 -11.859375 6.054688 -12.050781 5.234375 -11.84375 C 4.421875 -11.644531 3.40625 -11.203125 2.1875 -10.515625 C 0.664062 -9.671875 -0.71875 -9.222656 -1.96875 -9.171875 C -3.226562 -9.117188 -4.300781 -9.648438 -5.1875 -10.765625 C -5.78125 -11.515625 -6.070312 -12.332031 -6.0625 -13.21875 C -6.050781 -14.101562 -5.796875 -14.976562 -5.296875 -15.84375 C -4.796875 -16.707031 -4.113281 -17.488281 -3.25 -18.1875 C -2.144531 -19.0625 -1.039062 -19.625 0.0625 -19.875 C 1.175781 -20.132812 2.242188 -20.097656 3.265625 -19.765625 L 3.03125 -17.3125 C 2.21875 -17.5625 1.382812 -17.628906 0.53125 -17.515625 C -0.320312 -17.398438 -1.132812 -17.03125 -1.90625 -16.40625 C -2.675781 -15.789062 -3.203125 -15.117188 -3.484375 -14.390625 C -3.773438 -13.660156 -3.707031 -13.019531 -3.28125 -12.46875 C -2.769531 -11.832031 -2.125 -11.601562 -1.34375 -11.78125 C -0.570312 -11.957031 0.34375 -12.335938 1.40625 -12.921875 C 2.082031 -13.304688 2.765625 -13.640625 3.453125 -13.921875 C 4.148438 -14.203125 4.828125 -14.382812 5.484375 -14.46875 C 6.140625 -14.5625 6.753906 -14.515625 7.328125 -14.328125 C 7.898438 -14.148438 8.40625 -13.785156 8.84375 -13.234375 C 9.488281 -12.429688 9.835938 -11.570312 9.890625 -10.65625 C 9.953125 -9.738281 9.734375 -8.8125 9.234375 -7.875 C 8.734375 -6.9375 7.96875 -6.050781 6.9375 -5.21875 C 5.832031 -4.34375 4.679688 -3.742188 3.484375 -3.421875 C 2.296875 -3.097656 1.019531 -3.09375 -0.34375 -3.40625 Z M -0.296875 -6 "/></g></g></g><g fill="#bc9c22" fill-opacity="1"><g transform="translate(59.378888, 76.934717)"><g><path d="M 5.53125 -3.4375 L -1.671875 -15 L -6.015625 -12.296875 L -7.265625 -14.3125 L 3.625 -21.109375 L 4.875 -19.09375 L 0.421875 -16.3125 L 7.625 -4.75 Z M 5.53125 -3.4375 "/></g></g></g><g fill="#bc9c22" fill-opacity="1"><g transform="translate(78.66632, 65.504001)"><g/></g></g><g fill="#bc9c22" fill-opacity="1"><g transform="translate(92.241268, 58.920725)"><g><path d="M 11.421875 -6.984375 L 12.28125 -4.765625 L 2.484375 -0.96875 L 1.125 -2.453125 L 4 -9.15625 C 4.28125 -9.820312 4.550781 -10.472656 4.8125 -11.109375 C 5.070312 -11.753906 5.25 -12.363281 5.34375 -12.9375 C 5.445312 -13.519531 5.40625 -14.046875 5.21875 -14.515625 C 4.945312 -15.210938 4.519531 -15.65625 3.9375 -15.84375 C 3.351562 -16.039062 2.679688 -15.988281 1.921875 -15.6875 C 1.296875 -15.445312 0.722656 -14.976562 0.203125 -14.28125 C -0.316406 -13.582031 -0.59375 -12.644531 -0.625 -11.46875 L -2.78125 -11.90625 C -2.78125 -13.320312 -2.40625 -14.554688 -1.65625 -15.609375 C -0.914062 -16.671875 0.0859375 -17.445312 1.359375 -17.9375 C 2.265625 -18.289062 3.117188 -18.429688 3.921875 -18.359375 C 4.734375 -18.285156 5.453125 -18.019531 6.078125 -17.5625 C 6.710938 -17.113281 7.191406 -16.472656 7.515625 -15.640625 C 7.804688 -14.910156 7.894531 -14.125 7.78125 -13.28125 C 7.664062 -12.445312 7.445312 -11.59375 7.125 -10.71875 C 6.8125 -9.851562 6.472656 -9 6.109375 -8.15625 L 4.4375 -4.28125 Z M 11.421875 -6.984375 "/></g></g></g><g fill="#bc9c22" fill-opacity="1"><g transform="translate(112.194446, 51.522138)"><g><path d="M 7.78125 -1.84375 C 6.414062 -1.476562 5.179688 -1.515625 4.078125 -1.953125 C 2.972656 -2.390625 2.023438 -3.140625 1.234375 -4.203125 C 0.453125 -5.265625 -0.144531 -6.570312 -0.5625 -8.125 C -0.96875 -9.675781 -1.097656 -11.113281 -0.953125 -12.4375 C -0.804688 -13.757812 -0.363281 -14.882812 0.375 -15.8125 C 1.113281 -16.738281 2.164062 -17.382812 3.53125 -17.75 C 4.863281 -18.101562 6.070312 -18.054688 7.15625 -17.609375 C 8.25 -17.171875 9.191406 -16.414062 9.984375 -15.34375 C 10.773438 -14.28125 11.375 -12.972656 11.78125 -11.421875 C 12.195312 -9.867188 12.328125 -8.429688 12.171875 -7.109375 C 12.023438 -5.796875 11.585938 -4.675781 10.859375 -3.75 C 10.140625 -2.832031 9.113281 -2.195312 7.78125 -1.84375 Z M 7.203125 -4.015625 C 8.390625 -4.328125 9.1875 -5.070312 9.59375 -6.25 C 10.007812 -7.4375 9.96875 -8.957031 9.46875 -10.8125 C 8.976562 -12.664062 8.257812 -14 7.3125 -14.8125 C 6.375 -15.632812 5.3125 -15.890625 4.125 -15.578125 C 2.882812 -15.242188 2.050781 -14.484375 1.625 -13.296875 C 1.207031 -12.117188 1.242188 -10.601562 1.734375 -8.75 C 2.234375 -6.894531 2.957031 -5.554688 3.90625 -4.734375 C 4.863281 -3.921875 5.960938 -3.679688 7.203125 -4.015625 Z M 7.203125 -4.015625 "/></g></g></g><g fill="#bc9c22" fill-opacity="1"><g transform="translate(134.105178, 46.131538)"><g><path d="M 10.875 -1.6875 L 2.875 -0.453125 L 2.515625 -2.796875 L 5.390625 -3.234375 L 3.71875 -13.96875 L 1.375 -12.203125 L 0.296875 -14.140625 L 4.125 -17.078125 L 5.703125 -17.328125 L 7.84375 -3.625 L 10.515625 -4.03125 Z M 10.875 -1.6875 "/></g></g></g><g fill="#bc9c22" fill-opacity="1"><g transform="translate(153.558313, 43.415143)"><g><path d="M 13.03125 -3.046875 L 13.15625 -0.671875 L 2.671875 -0.140625 L 1.828125 -1.96875 L 6.671875 -7.4375 C 7.140625 -7.96875 7.597656 -8.5 8.046875 -9.03125 C 8.492188 -9.5625 8.851562 -10.082031 9.125 -10.59375 C 9.40625 -11.113281 9.535156 -11.628906 9.515625 -12.140625 C 9.472656 -12.878906 9.203125 -13.429688 8.703125 -13.796875 C 8.210938 -14.171875 7.554688 -14.335938 6.734375 -14.296875 C 6.066406 -14.265625 5.378906 -13.992188 4.671875 -13.484375 C 3.960938 -12.984375 3.40625 -12.179688 3 -11.078125 L 1.09375 -12.1875 C 1.539062 -13.519531 2.285156 -14.570312 3.328125 -15.34375 C 4.367188 -16.125 5.566406 -16.546875 6.921875 -16.609375 C 7.890625 -16.660156 8.742188 -16.523438 9.484375 -16.203125 C 10.234375 -15.878906 10.835938 -15.398438 11.296875 -14.765625 C 11.753906 -14.128906 12.003906 -13.367188 12.046875 -12.484375 C 12.085938 -11.691406 11.921875 -10.914062 11.546875 -10.15625 C 11.179688 -9.394531 10.710938 -8.648438 10.140625 -7.921875 C 9.566406 -7.203125 8.972656 -6.5 8.359375 -5.8125 L 5.5625 -2.671875 Z M 13.03125 -3.046875 "/></g></g></g><g fill="#bc9c22" fill-opacity="1"><g transform="translate(174.958951, 42.777912)"><g/></g></g></g></g></svg>