<svg xmlns="http://www.w3.org/2000/svg" xmlns:xlink="http://www.w3.org/1999/xlink" width="2000" zoomAndPan="magnify" viewBox="0 0 1500 449.999984" height="600" preserveAspectRatio="xMidYMid meet" version="1.0"><defs><g/><clipPath id="b8d79004a3"><rect x="0" width="502" y="0" height="100"/></clipPath><clipPath id="c6fdbb8a2d"><rect x="0" width="400" y="0" height="107"/></clipPath><clipPath id="95904cd893"><rect x="0" width="146" y="0" height="88"/></clipPath></defs><g transform="matrix(1, 0, 0, 1, 499, 157)"><g clip-path="url(#b8d79004a3)"><g fill="#f8f9f0" fill-opacity="1"><g transform="translate(0.564517, 75.972086)"><g><path d="M 2.953125 -70.578125 L 2.953125 -71.859375 L 27.5 -71.859375 L 27.5 -70.578125 C 25.132812 -70.578125 23.410156 -70.265625 22.328125 -69.640625 C 21.242188 -69.015625 20.703125 -67.554688 20.703125 -65.265625 L 20.703125 -6.5 C 20.703125 -4.132812 21.65625 -2.671875 23.5625 -2.109375 C 25.46875 -1.554688 28.914062 -1.28125 33.90625 -1.28125 C 39.5625 -1.28125 44.179688 -2.476562 47.765625 -4.875 C 51.347656 -7.28125 54.238281 -10.535156 56.4375 -14.640625 C 58.632812 -18.742188 60.488281 -23.296875 62 -28.296875 L 63.28125 -28.296875 L 56.28125 0 L 2.953125 0 L 2.953125 -1.28125 C 5.117188 -1.28125 6.757812 -1.457031 7.875 -1.8125 C 9 -2.175781 9.628906 -3.410156 9.765625 -5.515625 L 9.765625 -65.265625 C 9.765625 -67.554688 9.21875 -69.015625 8.125 -69.640625 C 7.039062 -70.265625 5.316406 -70.578125 2.953125 -70.578125 Z M 2.953125 -70.578125 "/></g></g></g><g fill="#f8f9f0" fill-opacity="1"><g transform="translate(66.314382, 75.972086)"><g><path d="M 16.859375 0 L 1.484375 0 L 1.484375 -1.28125 C 3.117188 -1.28125 4.773438 -1.867188 6.453125 -3.046875 C 8.128906 -4.234375 9.332031 -5.710938 10.0625 -7.484375 L 31.546875 -58.953125 L 28.78125 -65.65625 C 28 -67.625 26.785156 -68.9375 25.140625 -69.59375 C 23.492188 -70.25 21.6875 -70.578125 19.71875 -70.578125 L 19.71875 -71.859375 L 36.96875 -71.859375 L 62.890625 -9.953125 C 64.273438 -6.734375 65.800781 -4.484375 67.46875 -3.203125 C 69.144531 -1.921875 71.203125 -1.28125 73.640625 -1.28125 L 73.640625 0 L 45.9375 0 L 45.9375 -1.28125 L 48.59375 -1.28125 C 51.15625 -1.28125 52.617188 -2.117188 52.984375 -3.796875 C 53.347656 -5.472656 53.035156 -7.492188 52.046875 -9.859375 L 46.4375 -23.5625 L 18.046875 -23.5625 L 11.53125 -7.890625 C 10.675781 -5.785156 10.835938 -4.15625 12.015625 -3 C 13.203125 -1.851562 14.816406 -1.28125 16.859375 -1.28125 Z M 32.234375 -57.46875 L 18.625 -24.84375 L 45.84375 -24.84375 Z M 32.234375 -57.46875 "/></g></g></g><g fill="#f8f9f0" fill-opacity="1"><g transform="translate(141.428926, 75.972086)"><g><path d="M 3.9375 -70.578125 L 3.9375 -71.859375 L 28.78125 -71.859375 L 28.78125 -70.578125 C 26.414062 -70.578125 24.65625 -70.265625 23.5 -69.640625 C 22.351562 -69.015625 21.78125 -67.359375 21.78125 -64.671875 L 21.78125 -25.625 C 21.78125 -17.414062 23.472656 -11.269531 26.859375 -7.1875 C 30.242188 -3.113281 34.894531 -1.078125 40.8125 -1.078125 C 45.019531 -1.078125 48.71875 -1.765625 51.90625 -3.140625 C 55.09375 -4.523438 57.601562 -6.941406 59.4375 -10.390625 C 61.28125 -13.847656 62.203125 -18.695312 62.203125 -24.9375 L 62.203125 -65.65625 C 62.066406 -67.820312 61.425781 -69.179688 60.28125 -69.734375 C 59.132812 -70.296875 57.441406 -70.578125 55.203125 -70.578125 L 55.203125 -71.859375 L 70.484375 -71.859375 L 70.484375 -70.578125 C 68.640625 -70.578125 67.007812 -70.265625 65.59375 -69.640625 C 64.1875 -69.015625 63.484375 -67.359375 63.484375 -64.671875 L 63.484375 -24.9375 C 63.484375 -23.03125 63.351562 -20.925781 63.09375 -18.625 C 62.832031 -16.332031 62.238281 -14.019531 61.3125 -11.6875 C 60.394531 -9.351562 59.03125 -7.210938 57.21875 -5.265625 C 55.414062 -3.328125 52.984375 -1.765625 49.921875 -0.578125 C 46.867188 0.597656 43.046875 1.1875 38.453125 1.1875 C 31.484375 1.1875 25.992188 0.0195312 21.984375 -2.3125 C 17.972656 -4.644531 15.128906 -7.832031 13.453125 -11.875 C 11.773438 -15.914062 10.9375 -20.5 10.9375 -25.625 L 10.9375 -64.671875 C 10.9375 -67.359375 10.359375 -69.015625 9.203125 -69.640625 C 8.054688 -70.265625 6.300781 -70.578125 3.9375 -70.578125 Z M 3.9375 -70.578125 "/></g></g></g><g fill="#f8f9f0" fill-opacity="1"><g transform="translate(214.374793, 75.972086)"><g><path d="M 2.953125 0 L 2.953125 -1.28125 C 5.253906 -1.28125 6.960938 -1.609375 8.078125 -2.265625 C 9.203125 -2.921875 9.765625 -4.367188 9.765625 -6.609375 L 9.765625 -65.265625 C 9.765625 -67.554688 9.203125 -69.015625 8.078125 -69.640625 C 6.960938 -70.265625 5.253906 -70.578125 2.953125 -70.578125 L 2.953125 -71.859375 L 30.953125 -71.859375 C 34.628906 -71.859375 38.222656 -71.675781 41.734375 -71.3125 C 45.253906 -70.957031 48.441406 -70.1875 51.296875 -69 C 54.160156 -67.820312 56.445312 -66.066406 58.15625 -63.734375 C 59.863281 -61.398438 60.71875 -58.257812 60.71875 -54.3125 C 60.71875 -50.4375 59.929688 -47.316406 58.359375 -44.953125 C 56.785156 -42.585938 54.695312 -40.78125 52.09375 -39.53125 C 49.5 -38.28125 46.691406 -37.441406 43.671875 -37.015625 C 40.648438 -36.585938 37.691406 -36.375 34.796875 -36.375 L 30.65625 -36.375 C 31.96875 -34.332031 33.425781 -32.832031 35.03125 -31.875 C 36.644531 -30.925781 38.242188 -30.453125 39.828125 -30.453125 C 41.660156 -30.453125 43.367188 -31.078125 44.953125 -32.328125 L 62.703125 -6.609375 C 64.210938 -4.503906 65.785156 -3.085938 67.421875 -2.359375 C 69.066406 -1.640625 70.8125 -1.28125 72.65625 -1.28125 L 72.65625 0 L 62.890625 0 C 60.191406 0 57.84375 -0.570312 55.84375 -1.71875 C 53.84375 -2.875 52.082031 -4.320312 50.5625 -6.0625 C 49.050781 -7.800781 47.675781 -9.5625 46.4375 -11.34375 L 29.171875 -36.375 L 20.609375 -36.375 L 20.609375 -6.609375 C 20.609375 -4.367188 21.148438 -2.921875 22.234375 -2.265625 C 23.316406 -1.609375 25.039062 -1.28125 27.40625 -1.28125 L 27.40625 0 Z M 20.609375 -37.65625 L 31.046875 -37.65625 C 34.535156 -37.65625 37.707031 -38.113281 40.5625 -39.03125 C 43.425781 -39.957031 45.710938 -41.617188 47.421875 -44.015625 C 49.128906 -46.410156 49.984375 -49.8125 49.984375 -54.21875 C 49.984375 -59.539062 48.503906 -63.597656 45.546875 -66.390625 C 42.585938 -69.179688 38.378906 -70.578125 32.921875 -70.578125 L 20.609375 -70.578125 Z M 20.609375 -37.65625 "/></g></g></g><g fill="#f8f9f0" fill-opacity="1"><g transform="translate(288.01069, 75.972086)"><g><path d="M 2.953125 0 L 2.953125 -1.28125 C 5.117188 -1.28125 6.757812 -1.539062 7.875 -2.0625 C 9 -2.59375 9.660156 -3.78125 9.859375 -5.625 L 9.765625 -65.265625 C 9.765625 -67.554688 9.21875 -69.015625 8.125 -69.640625 C 7.039062 -70.265625 5.316406 -70.578125 2.953125 -70.578125 L 2.953125 -71.859375 L 53.921875 -71.859375 L 59.140625 -56.28125 L 57.859375 -56.28125 C 56.679688 -60.03125 55.335938 -62.941406 53.828125 -65.015625 C 52.316406 -67.085938 50.394531 -68.515625 48.0625 -69.296875 C 45.726562 -70.085938 42.6875 -70.484375 38.9375 -70.484375 C 34.207031 -70.484375 30.523438 -70.367188 27.890625 -70.140625 C 25.265625 -69.910156 23.410156 -69.429688 22.328125 -68.703125 C 21.242188 -67.984375 20.703125 -66.835938 20.703125 -65.265625 L 20.703125 -38.34375 L 32.03125 -38.34375 C 35.582031 -38.414062 38.160156 -39.007812 39.765625 -40.125 C 41.378906 -41.238281 42.382812 -42.910156 42.78125 -45.140625 C 43.175781 -47.378906 43.375 -50.140625 43.375 -53.421875 L 44.65625 -53.421875 L 44.65625 -20.796875 L 43.375 -20.796875 C 43.375 -24.148438 43.207031 -27.039062 42.875 -29.46875 C 42.550781 -31.90625 41.613281 -33.78125 40.0625 -35.09375 C 38.519531 -36.40625 35.84375 -37.0625 32.03125 -37.0625 L 20.703125 -37.0625 L 20.703125 -6.609375 C 20.703125 -4.367188 21.65625 -2.921875 23.5625 -2.265625 C 25.46875 -1.609375 28.914062 -1.28125 33.90625 -1.28125 C 39.5625 -1.28125 44.179688 -2.476562 47.765625 -4.875 C 51.347656 -7.28125 54.238281 -10.535156 56.4375 -14.640625 C 58.632812 -18.742188 60.488281 -23.296875 62 -28.296875 L 63.28125 -28.296875 L 56.28125 0 Z M 2.953125 0 "/></g></g></g><g fill="#f8f9f0" fill-opacity="1"><g transform="translate(353.85914, 75.972086)"><g><path d="M 2.46875 -71.859375 L 21.390625 -71.859375 L 59.546875 -18.625 L 59.4375 -65.265625 C 59.4375 -67.890625 58.863281 -69.429688 57.71875 -69.890625 C 56.570312 -70.347656 54.847656 -70.578125 52.546875 -70.578125 L 52.546875 -71.859375 L 67.71875 -71.859375 L 67.71875 -70.578125 C 65.488281 -70.578125 63.796875 -70.363281 62.640625 -69.9375 C 61.492188 -69.507812 60.851562 -68.113281 60.71875 -65.75 L 60.828125 0 L 59.546875 0 L 13.90625 -63.6875 L 13.90625 -6.609375 C 13.90625 -3.972656 14.492188 -2.425781 15.671875 -1.96875 C 16.859375 -1.507812 18.601562 -1.28125 20.90625 -1.28125 L 20.90625 0 L 5.625 0 L 5.625 -1.28125 C 7.988281 -1.28125 9.742188 -1.507812 10.890625 -1.96875 C 12.046875 -2.425781 12.625 -3.972656 12.625 -6.609375 L 12.625 -65.453125 C 11.4375 -67.421875 10.003906 -68.765625 8.328125 -69.484375 C 6.648438 -70.210938 4.695312 -70.578125 2.46875 -70.578125 Z M 2.46875 -71.859375 "/></g></g></g><g fill="#f8f9f0" fill-opacity="1"><g transform="translate(424.044915, 75.972086)"><g><path d="M 4.921875 -66.4375 C 4.921875 -67.6875 5.414062 -68.898438 6.40625 -70.078125 C 7.394531 -71.265625 8.804688 -71.859375 10.640625 -71.859375 C 12.816406 -71.859375 14.523438 -70.988281 15.765625 -69.25 C 17.015625 -67.507812 17.410156 -65.03125 16.953125 -61.8125 C 16.628906 -59.375 15.84375 -57.234375 14.59375 -55.390625 C 13.34375 -53.554688 11.941406 -52.144531 10.390625 -51.15625 C 8.847656 -50.175781 7.453125 -49.6875 6.203125 -49.6875 L 6.203125 -53.828125 C 6.203125 -53.828125 6.546875 -53.890625 7.234375 -54.015625 C 7.929688 -54.148438 8.789062 -54.515625 9.8125 -55.109375 C 10.832031 -55.703125 11.847656 -56.617188 12.859375 -57.859375 C 13.878906 -59.109375 14.71875 -60.851562 15.375 -63.09375 L 14.78125 -63.09375 C 13.925781 -61.644531 12.484375 -60.921875 10.453125 -60.921875 C 9.003906 -60.921875 7.71875 -61.394531 6.59375 -62.34375 C 5.476562 -63.300781 4.921875 -64.664062 4.921875 -66.4375 Z M 4.921875 -66.4375 "/></g></g></g><g fill="#f8f9f0" fill-opacity="1"><g transform="translate(446.125813, 75.972086)"><g><path d="M 4.921875 0 L 4.921875 -29.578125 L 6.203125 -29.578125 C 6.203125 -23.003906 7.15625 -17.628906 9.0625 -13.453125 C 10.96875 -9.285156 13.5625 -6.210938 16.84375 -4.234375 C 20.132812 -2.265625 23.785156 -1.28125 27.796875 -1.28125 C 30.296875 -1.28125 32.578125 -1.65625 34.640625 -2.40625 C 36.710938 -3.164062 38.375 -4.414062 39.625 -6.15625 C 40.875 -7.90625 41.5 -10.222656 41.5 -13.109375 C 41.5 -15.867188 40.628906 -18.398438 38.890625 -20.703125 C 37.148438 -23.003906 34.878906 -25.203125 32.078125 -27.296875 C 29.285156 -29.398438 26.34375 -31.488281 23.25 -33.5625 C 20.164062 -35.632812 17.226562 -37.785156 14.4375 -40.015625 C 11.644531 -42.253906 9.378906 -44.6875 7.640625 -47.3125 C 5.898438 -49.945312 5.03125 -52.84375 5.03125 -56 C 5.03125 -59.800781 6.0625 -62.953125 8.125 -65.453125 C 10.195312 -67.953125 12.8125 -69.828125 15.96875 -71.078125 C 19.125 -72.328125 22.3125 -72.953125 25.53125 -72.953125 C 28.03125 -72.953125 30.148438 -72.703125 31.890625 -72.203125 C 33.628906 -71.710938 35.125 -71.125 36.375 -70.4375 C 37.625 -69.75 38.753906 -69.15625 39.765625 -68.65625 C 40.785156 -68.164062 41.789062 -67.921875 42.78125 -67.921875 C 44.09375 -67.921875 44.976562 -68.210938 45.4375 -68.796875 C 45.90625 -69.390625 46.140625 -70.410156 46.140625 -71.859375 L 47.421875 -71.859375 L 47.421875 -48.59375 L 46.140625 -48.59375 C 46.140625 -53 45.300781 -56.859375 43.625 -60.171875 C 41.945312 -63.492188 39.660156 -66.078125 36.765625 -67.921875 C 33.878906 -69.765625 30.59375 -70.6875 26.90625 -70.6875 C 22.96875 -70.6875 20.144531 -69.75 18.4375 -67.875 C 16.726562 -66 15.875 -63.613281 15.875 -60.71875 C 15.875 -57.5 16.726562 -54.65625 18.4375 -52.1875 C 20.144531 -49.726562 22.34375 -47.492188 25.03125 -45.484375 C 27.726562 -43.484375 30.585938 -41.53125 33.609375 -39.625 C 36.640625 -37.71875 39.5 -35.695312 42.1875 -33.5625 C 44.882812 -31.425781 47.085938 -29.039062 48.796875 -26.40625 C 50.503906 -23.78125 51.359375 -20.695312 51.359375 -17.15625 C 51.359375 -13.800781 50.679688 -10.742188 49.328125 -7.984375 C 47.984375 -5.222656 45.734375 -3.003906 42.578125 -1.328125 C 39.429688 0.347656 35.0625 1.1875 29.46875 1.1875 C 26.78125 1.1875 24.515625 0.953125 22.671875 0.484375 C 20.828125 0.0234375 19.234375 -0.507812 17.890625 -1.125 C 16.546875 -1.75 15.3125 -2.289062 14.1875 -2.75 C 13.070312 -3.21875 11.925781 -3.453125 10.75 -3.453125 C 7.71875 -3.453125 6.203125 -2.300781 6.203125 0 Z M 4.921875 0 "/></g></g></g></g></g><g transform="matrix(1, 0, 0, 1, 656, 210)"><g clip-path="url(#c6fdbb8a2d)"><g fill="#bc9c22" fill-opacity="1"><g transform="translate(30.99005, 65.178184)"><g><path d="M 53.1875 -23.734375 C 53.269531 -23.421875 53.238281 -23.125 53.09375 -22.84375 C 52.957031 -22.570312 52.753906 -22.375 52.484375 -22.25 C 50.648438 -21.695312 48.472656 -21.03125 45.953125 -20.25 C 43.441406 -19.476562 40.675781 -18.640625 37.65625 -17.734375 C 37.257812 -15.546875 36.851562 -13.378906 36.4375 -11.234375 C 36.019531 -9.097656 35.632812 -7.019531 35.28125 -5 C 34.332031 -0.0390625 33.5 4.300781 32.78125 8.03125 C 32.070312 11.757812 31.535156 14.457031 31.171875 16.125 C 31.054688 16.71875 30.679688 17.015625 30.046875 17.015625 C 29.960938 17.015625 29.882812 17.015625 29.8125 17.015625 C 29.53125 16.929688 29.300781 16.757812 29.125 16.5 C 28.945312 16.25 28.894531 15.96875 28.96875 15.65625 C 29.175781 14.539062 29.488281 12.941406 29.90625 10.859375 C 30.320312 8.773438 30.796875 6.332031 31.328125 3.53125 C 31.859375 0.738281 32.421875 -2.242188 33.015625 -5.421875 C 33.378906 -7.242188 33.738281 -9.125 34.09375 -11.0625 C 34.445312 -13.007812 34.820312 -14.992188 35.21875 -17.015625 C 35.1875 -16.972656 35.160156 -16.953125 35.140625 -16.953125 C 35.117188 -16.953125 35.085938 -16.953125 35.046875 -16.953125 C 31.273438 -15.804688 27.253906 -14.585938 22.984375 -13.296875 C 18.722656 -12.003906 14.515625 -10.707031 10.359375 -9.40625 C 8.929688 -2.582031 7.738281 3.265625 6.78125 8.140625 C 5.832031 13.023438 5.050781 17.101562 4.4375 20.375 C 3.820312 23.644531 3.34375 26.269531 3 28.25 C 2.664062 30.238281 2.421875 31.75 2.265625 32.78125 C 2.929688 33.0625 3.148438 33.539062 2.921875 34.21875 C 2.722656 34.851562 2.492188 35.414062 2.234375 35.90625 C 1.972656 36.40625 1.601562 36.65625 1.125 36.65625 C 1.007812 36.65625 0.875 36.632812 0.71875 36.59375 C 0.125 36.4375 -0.179688 36.019531 -0.203125 35.34375 C -0.222656 34.664062 -0.132812 33.675781 0.0625 32.375 C 0.300781 30.539062 0.71875 27.941406 1.3125 24.578125 C 2.382812 18.742188 3.96875 10.609375 6.0625 0.171875 C 6.34375 -1.253906 6.628906 -2.707031 6.921875 -4.1875 C 7.222656 -5.675781 7.535156 -7.15625 7.859375 -8.625 C 6.234375 -8.113281 4.644531 -7.609375 3.09375 -7.109375 C 1.550781 -6.609375 0.046875 -6.101562 -1.421875 -5.59375 C -5.984375 -4.082031 -9.613281 -2.820312 -12.3125 -1.8125 C -15.007812 -0.800781 -17.03125 0.0078125 -18.375 0.625 C -19.726562 1.238281 -20.664062 1.722656 -21.1875 2.078125 C -20.789062 2.359375 -20.628906 2.738281 -20.703125 3.21875 C -20.828125 3.851562 -21.207031 4.171875 -21.84375 4.171875 C -21.914062 4.171875 -21.992188 4.148438 -22.078125 4.109375 C -22.867188 3.953125 -23.390625 3.703125 -23.640625 3.359375 C -23.898438 3.023438 -24.050781 2.695312 -24.09375 2.375 C -24.09375 1.976562 -23.941406 1.582031 -23.640625 1.1875 C -23.347656 0.789062 -22.742188 0.328125 -21.828125 -0.203125 C -20.921875 -0.742188 -19.578125 -1.390625 -17.796875 -2.140625 C -14.460938 -3.523438 -9.679688 -5.269531 -3.453125 -7.375 C -1.585938 -7.96875 0.320312 -8.582031 2.28125 -9.21875 C 4.25 -9.851562 6.265625 -10.507812 8.328125 -11.1875 C 9.078125 -14.832031 9.8125 -18.378906 10.53125 -21.828125 C 11.25 -25.285156 11.921875 -28.507812 12.546875 -31.5 C 13.179688 -34.5 13.738281 -37.140625 14.21875 -39.421875 C 14.695312 -41.703125 15.070312 -43.492188 15.34375 -44.796875 L 15.65625 -46 C 16.007812 -47.695312 16.175781 -48.953125 16.15625 -49.765625 C 16.132812 -50.578125 16.0625 -51.113281 15.9375 -51.375 C 15.820312 -51.632812 15.765625 -51.765625 15.765625 -51.765625 C 15.691406 -51.804688 15.425781 -51.753906 14.96875 -51.609375 C 14.507812 -51.472656 13.804688 -50.988281 12.859375 -50.15625 C 11.460938 -48.96875 10 -47.359375 8.46875 -45.328125 C 6.945312 -43.304688 5.59375 -41.207031 4.40625 -39.03125 C 3.132812 -36.65625 2.25 -34.523438 1.75 -32.640625 C 1.257812 -30.753906 1.210938 -29.316406 1.609375 -28.328125 C 1.679688 -28.128906 1.925781 -27.820312 2.34375 -27.40625 C 2.757812 -26.988281 3.644531 -26.816406 5 -26.890625 C 5.3125 -26.929688 5.585938 -26.84375 5.828125 -26.625 C 6.066406 -26.40625 6.207031 -26.140625 6.25 -25.828125 C 6.25 -25.503906 6.148438 -25.222656 5.953125 -24.984375 C 5.753906 -24.753906 5.492188 -24.640625 5.171875 -24.640625 C 3.347656 -24.515625 2.019531 -24.78125 1.1875 -25.4375 C 0.351562 -26.09375 -0.21875 -26.773438 -0.53125 -27.484375 C -1.007812 -28.679688 -1.085938 -30.128906 -0.765625 -31.828125 C -0.453125 -33.535156 0.128906 -35.347656 0.984375 -37.265625 C 1.835938 -39.191406 2.859375 -41.085938 4.046875 -42.953125 C 5.234375 -44.816406 6.472656 -46.53125 7.765625 -48.09375 C 9.054688 -49.664062 10.238281 -50.929688 11.3125 -51.890625 C 13.6875 -53.953125 15.546875 -54.566406 16.890625 -53.734375 C 18.523438 -52.773438 18.84375 -50.054688 17.84375 -45.578125 L 17.609375 -44.328125 C 16.265625 -37.984375 15.035156 -32.125 13.921875 -26.75 C 12.804688 -21.375 11.773438 -16.441406 10.828125 -11.953125 C 14.835938 -13.179688 18.863281 -14.410156 22.90625 -15.640625 C 26.945312 -16.878906 30.773438 -18.050781 34.390625 -19.15625 C 34.585938 -19.195312 34.796875 -19.253906 35.015625 -19.328125 C 35.234375 -19.410156 35.460938 -19.472656 35.703125 -19.515625 C 36.453125 -23.554688 37.210938 -27.570312 37.984375 -31.5625 C 38.765625 -35.550781 39.507812 -39.328125 40.21875 -42.890625 C 40.9375 -46.460938 41.601562 -49.632812 42.21875 -52.40625 C 42.832031 -55.1875 43.335938 -57.394531 43.734375 -59.03125 C 43.804688 -59.34375 43.984375 -59.578125 44.265625 -59.734375 C 44.546875 -59.890625 44.820312 -59.929688 45.09375 -59.859375 C 45.414062 -59.773438 45.65625 -59.59375 45.8125 -59.3125 C 45.96875 -59.039062 46.007812 -58.765625 45.9375 -58.484375 C 45.539062 -56.898438 45.050781 -54.769531 44.46875 -52.09375 C 43.894531 -49.414062 43.257812 -46.359375 42.5625 -42.921875 C 41.875 -39.492188 41.148438 -35.847656 40.390625 -31.984375 C 39.640625 -28.117188 38.890625 -24.222656 38.140625 -20.296875 C 40.910156 -21.117188 43.457031 -21.878906 45.78125 -22.578125 C 48.101562 -23.273438 50.097656 -23.898438 51.765625 -24.453125 C 52.046875 -24.535156 52.332031 -24.503906 52.625 -24.359375 C 52.925781 -24.222656 53.113281 -24.015625 53.1875 -23.734375 Z M 53.1875 -23.734375 "/></g></g></g><g fill="#bc9c22" fill-opacity="1"><g transform="translate(81.626193, 65.178184)"><g><path d="M 24.9375 -13.203125 C 25.207031 -13.085938 25.390625 -12.878906 25.484375 -12.578125 C 25.585938 -12.285156 25.582031 -12 25.46875 -11.71875 C 24.707031 -10.175781 23.878906 -8.628906 22.984375 -7.078125 C 22.097656 -5.535156 21.171875 -4.117188 20.203125 -2.828125 C 19.234375 -1.535156 18.234375 -0.503906 17.203125 0.265625 C 16.171875 1.035156 15.132812 1.421875 14.09375 1.421875 C 13.894531 1.421875 13.679688 1.40625 13.453125 1.375 C 10.785156 0.851562 9.140625 -2.71875 8.515625 -9.34375 C 7.835938 -8.425781 7.050781 -7.398438 6.15625 -6.265625 C 5.257812 -5.140625 4.316406 -4.023438 3.328125 -2.921875 C 3.171875 -2.753906 2.910156 -2.503906 2.546875 -2.171875 C 2.191406 -1.835938 1.773438 -1.570312 1.296875 -1.375 C 0.828125 -1.175781 0.351562 -1.191406 -0.125 -1.421875 C -1.070312 -1.785156 -1.523438 -2.816406 -1.484375 -4.515625 C -1.484375 -5.515625 -1.296875 -6.742188 -0.921875 -8.203125 C -0.546875 -9.671875 -0.015625 -11.148438 0.671875 -12.640625 C 1.367188 -14.128906 2.179688 -15.445312 3.109375 -16.59375 C 4.046875 -17.75 5.09375 -18.523438 6.25 -18.921875 C 6.957031 -19.203125 7.828125 -19.25 8.859375 -19.0625 C 9.890625 -18.882812 10.960938 -18.144531 12.078125 -16.84375 C 12.273438 -16.601562 12.363281 -16.320312 12.34375 -16 C 12.320312 -15.6875 12.191406 -15.429688 11.953125 -15.234375 C 11.722656 -15.035156 11.445312 -14.945312 11.125 -14.96875 C 10.8125 -14.988281 10.554688 -15.113281 10.359375 -15.34375 C 9.398438 -16.457031 8.570312 -16.984375 7.875 -16.921875 C 7.1875 -16.867188 6.601562 -16.660156 6.125 -16.296875 C 5.25 -15.660156 4.453125 -14.75 3.734375 -13.5625 C 3.023438 -12.375 2.429688 -11.125 1.953125 -9.8125 C 1.484375 -8.507812 1.148438 -7.289062 0.953125 -6.15625 C 0.753906 -5.03125 0.695312 -4.207031 0.78125 -3.6875 C 0.894531 -3.769531 1.019531 -3.867188 1.15625 -3.984375 C 1.300781 -4.109375 1.453125 -4.269531 1.609375 -4.46875 C 2.796875 -5.769531 3.882812 -7.066406 4.875 -8.359375 C 5.863281 -9.648438 6.71875 -10.789062 7.4375 -11.78125 C 7.632812 -12.0625 7.820312 -12.328125 8 -12.578125 C 8.175781 -12.835938 8.347656 -13.066406 8.515625 -13.265625 C 8.828125 -13.660156 9.242188 -13.78125 9.765625 -13.625 C 10.273438 -13.507812 10.550781 -13.171875 10.59375 -12.609375 C 10.707031 -10.035156 10.910156 -7.960938 11.203125 -6.390625 C 11.503906 -4.828125 11.832031 -3.65625 12.1875 -2.875 C 12.550781 -2.101562 12.890625 -1.578125 13.203125 -1.296875 C 13.523438 -1.023438 13.765625 -0.890625 13.921875 -0.890625 C 14.671875 -0.734375 15.878906 -1.503906 17.546875 -3.203125 C 19.210938 -4.910156 21.160156 -8.066406 23.390625 -12.671875 C 23.546875 -12.992188 23.769531 -13.203125 24.0625 -13.296875 C 24.363281 -13.398438 24.65625 -13.367188 24.9375 -13.203125 Z M 24.9375 -13.203125 "/></g></g></g><g fill="#bc9c22" fill-opacity="1"><g transform="translate(103.760897, 65.178184)"><g><path d="M 17.4375 -13.5625 C 17.707031 -13.40625 17.875 -13.164062 17.9375 -12.84375 C 18 -12.53125 17.953125 -12.234375 17.796875 -11.953125 C 17.035156 -10.765625 16.078125 -9.4375 14.921875 -7.96875 C 13.773438 -6.5 12.523438 -5.097656 11.171875 -3.765625 C 9.828125 -2.441406 8.488281 -1.34375 7.15625 -0.46875 C 5.832031 0.394531 4.617188 0.828125 3.515625 0.828125 C 3.035156 0.828125 2.617188 0.75 2.265625 0.59375 C 0.910156 0 0.164062 -1.4375 0.03125 -3.71875 C -0.101562 -6 0.359375 -9.222656 1.421875 -13.390625 C 1.503906 -13.703125 1.679688 -13.9375 1.953125 -14.09375 C 2.234375 -14.257812 2.515625 -14.300781 2.796875 -14.21875 C 3.109375 -14.132812 3.34375 -13.953125 3.5 -13.671875 C 3.664062 -13.398438 3.707031 -13.128906 3.625 -12.859375 C 2.988281 -10.316406 2.59375 -8.300781 2.4375 -6.8125 C 2.28125 -5.320312 2.25 -4.203125 2.34375 -3.453125 C 2.445312 -2.703125 2.597656 -2.195312 2.796875 -1.9375 C 2.992188 -1.675781 3.113281 -1.546875 3.15625 -1.546875 C 3.664062 -1.304688 4.414062 -1.472656 5.40625 -2.046875 C 6.40625 -2.628906 7.519531 -3.484375 8.75 -4.609375 C 9.976562 -5.742188 11.21875 -7.050781 12.46875 -8.53125 C 13.71875 -10.019531 14.835938 -11.578125 15.828125 -13.203125 C 16.023438 -13.484375 16.269531 -13.648438 16.5625 -13.703125 C 16.863281 -13.765625 17.15625 -13.71875 17.4375 -13.5625 Z M 3.390625 -18.328125 C 2.597656 -18.367188 2.191406 -18.597656 2.171875 -19.015625 C 2.148438 -19.429688 2.328125 -19.851562 2.703125 -20.28125 C 3.078125 -20.71875 3.46875 -21.019531 3.875 -21.1875 C 4.5 -21.382812 4.960938 -21.34375 5.265625 -21.0625 C 5.566406 -20.78125 5.707031 -20.421875 5.6875 -19.984375 C 5.664062 -19.554688 5.460938 -19.160156 5.078125 -18.796875 C 4.703125 -18.441406 4.140625 -18.285156 3.390625 -18.328125 Z M 3.390625 -18.328125 "/></g></g></g><g fill="#bc9c22" fill-opacity="1"><g transform="translate(118.814888, 65.178184)"><g><path d="M 26.125 -13.5 C 26.394531 -13.34375 26.585938 -13.113281 26.703125 -12.8125 C 26.828125 -12.519531 26.8125 -12.234375 26.65625 -11.953125 C 25.90625 -10.328125 24.984375 -8.503906 23.890625 -6.484375 C 22.796875 -4.460938 21.632812 -2.429688 20.40625 -0.390625 C 19.175781 1.648438 17.925781 3.515625 16.65625 5.203125 C 15.382812 6.890625 14.15625 8.257812 12.96875 9.3125 C 11.78125 10.363281 10.710938 10.890625 9.765625 10.890625 C 9.484375 10.890625 9.222656 10.828125 8.984375 10.703125 C 8.148438 10.390625 7.601562 9.632812 7.34375 8.4375 C 7.09375 7.25 7.125 5.546875 7.4375 3.328125 C 7.988281 -0.671875 9.457031 -6.34375 11.84375 -13.6875 C 11.800781 -13.6875 11.769531 -13.675781 11.75 -13.65625 C 11.726562 -13.632812 11.695312 -13.625 11.65625 -13.625 C 10.863281 -13.070312 9.910156 -12.492188 8.796875 -11.890625 C 7.691406 -11.296875 6.539062 -10.898438 5.34375 -10.703125 C 4.15625 -10.503906 3.03125 -10.765625 1.96875 -11.484375 C 0.457031 -12.554688 -0.316406 -14.039062 -0.359375 -15.9375 C -0.398438 -17.84375 0.3125 -19.925781 1.78125 -22.1875 C 2.257812 -22.90625 2.882812 -23.695312 3.65625 -24.5625 C 4.425781 -25.4375 5.238281 -26.113281 6.09375 -26.59375 C 6.945312 -27.070312 7.710938 -27.09375 8.390625 -26.65625 C 8.742188 -26.457031 9.007812 -26.117188 9.1875 -25.640625 C 9.363281 -25.171875 9.351562 -24.4375 9.15625 -23.4375 C 8.957031 -22.445312 8.484375 -21.117188 7.734375 -19.453125 C 6.984375 -17.785156 5.851562 -15.625 4.34375 -12.96875 C 5.257812 -12.851562 6.28125 -13.113281 7.40625 -13.75 C 8.539062 -14.382812 9.539062 -14.976562 10.40625 -15.53125 C 11.238281 -16.082031 11.929688 -16.488281 12.484375 -16.75 C 13.046875 -17.007812 13.566406 -16.957031 14.046875 -16.59375 C 14.484375 -16.238281 14.660156 -15.800781 14.578125 -15.28125 C 14.492188 -14.769531 14.414062 -14.375 14.34375 -14.09375 C 13.03125 -9.96875 12.015625 -6.535156 11.296875 -3.796875 C 10.585938 -1.066406 10.101562 1.128906 9.84375 2.796875 C 9.582031 4.460938 9.453125 5.710938 9.453125 6.546875 C 9.453125 7.378906 9.507812 7.921875 9.625 8.171875 C 9.75 8.429688 9.8125 8.582031 9.8125 8.625 C 10.289062 8.707031 11.273438 7.941406 12.765625 6.328125 C 14.253906 4.722656 16.03125 2.304688 18.09375 -0.921875 C 20.15625 -4.148438 22.316406 -8.144531 24.578125 -12.90625 C 24.734375 -13.226562 24.957031 -13.4375 25.25 -13.53125 C 25.550781 -13.632812 25.84375 -13.625 26.125 -13.5 Z M 2.140625 -17.546875 C 1.898438 -16.710938 1.828125 -16.03125 1.921875 -15.5 C 2.023438 -14.96875 2.175781 -14.539062 2.375 -14.21875 C 3.644531 -16.4375 4.609375 -18.238281 5.265625 -19.625 C 5.921875 -21.019531 6.367188 -22.09375 6.609375 -22.84375 C 6.847656 -23.601562 6.984375 -24.140625 7.015625 -24.453125 C 6.578125 -24.210938 6.03125 -23.753906 5.375 -23.078125 C 4.726562 -22.410156 4.097656 -21.597656 3.484375 -20.640625 C 2.867188 -19.691406 2.421875 -18.660156 2.140625 -17.546875 Z M 2.140625 -17.546875 "/></g></g></g><g fill="#bc9c22" fill-opacity="1"><g transform="translate(142.556204, 65.178184)"><g/></g></g><g fill="#bc9c22" fill-opacity="1"><g transform="translate(160.823278, 65.178184)"><g><path d="M 63.71875 -57.421875 C 64.039062 -57.421875 64.3125 -57.3125 64.53125 -57.09375 C 64.75 -56.875 64.859375 -56.601562 64.859375 -56.28125 C 64.859375 -55.96875 64.75 -55.703125 64.53125 -55.484375 C 64.3125 -55.265625 64.039062 -55.15625 63.71875 -55.15625 C 60.664062 -55.113281 57.175781 -54.863281 53.25 -54.40625 C 49.320312 -53.957031 45.265625 -53.363281 41.078125 -52.625 C 36.898438 -51.894531 32.863281 -51.035156 28.96875 -50.046875 C 28.375 -47.546875 27.691406 -44.796875 26.921875 -41.796875 C 26.148438 -38.804688 25.328125 -35.679688 24.453125 -32.421875 C 23.859375 -30.046875 23.222656 -27.578125 22.546875 -25.015625 C 21.867188 -22.460938 21.21875 -19.894531 20.59375 -17.3125 C 23.320312 -18.03125 26.070312 -18.710938 28.84375 -19.359375 C 31.625 -20.015625 34.234375 -20.59375 36.671875 -21.09375 C 39.117188 -21.59375 41.222656 -21.96875 42.984375 -22.21875 C 44.753906 -22.476562 45.992188 -22.585938 46.703125 -22.546875 C 47.023438 -22.503906 47.285156 -22.375 47.484375 -22.15625 C 47.679688 -21.945312 47.78125 -21.679688 47.78125 -21.359375 C 47.738281 -21.046875 47.609375 -20.78125 47.390625 -20.5625 C 47.171875 -20.34375 46.90625 -20.234375 46.59375 -20.234375 C 45.800781 -20.304688 44.289062 -20.15625 42.0625 -19.78125 C 39.84375 -19.40625 37.1875 -18.890625 34.09375 -18.234375 C 31 -17.578125 27.726562 -16.816406 24.28125 -15.953125 C 22.769531 -15.546875 21.320312 -15.164062 19.9375 -14.8125 C 18.90625 -10.613281 17.953125 -6.539062 17.078125 -2.59375 C 16.203125 1.351562 15.484375 5.003906 14.921875 8.359375 C 14.367188 11.710938 14.078125 14.539062 14.046875 16.84375 C 14.046875 17.789062 14.132812 18.75 14.3125 19.71875 C 14.488281 20.695312 14.894531 21.320312 15.53125 21.59375 C 16.28125 21.914062 17.28125 21.796875 18.53125 21.234375 C 19.78125 20.679688 21.175781 19.828125 22.71875 18.671875 C 24.269531 17.523438 25.859375 16.238281 27.484375 14.8125 C 29.109375 13.382812 30.6875 11.9375 32.21875 10.46875 C 33.75 9 35.109375 7.691406 36.296875 6.546875 C 36.609375 6.222656 36.921875 5.910156 37.234375 5.609375 C 37.554688 5.316406 37.859375 5.015625 38.140625 4.703125 L 39.15625 3.75 C 39.75 3.195312 40.320312 2.648438 40.875 2.109375 C 41.425781 1.578125 41.921875 1.113281 42.359375 0.71875 C 42.953125 0.15625 43.503906 -0.289062 44.015625 -0.625 C 44.535156 -0.957031 45.015625 -0.90625 45.453125 -0.46875 C 45.972656 -0.0390625 46.035156 0.53125 45.640625 1.25 C 45.242188 1.96875 44.46875 3.097656 43.3125 4.640625 C 43.113281 4.921875 42.851562 5.078125 42.53125 5.109375 C 42.21875 5.148438 41.941406 5.070312 41.703125 4.875 C 41.628906 4.832031 41.550781 4.773438 41.46875 4.703125 C 41.351562 4.816406 41.234375 4.929688 41.109375 5.046875 C 40.992188 5.171875 40.875 5.296875 40.75 5.421875 L 39.75 6.359375 C 39.46875 6.640625 39.164062 6.9375 38.84375 7.25 C 38.53125 7.570312 38.21875 7.875 37.90625 8.15625 C 34.925781 11.050781 32.109375 13.695312 29.453125 16.09375 C 26.796875 18.488281 24.347656 20.410156 22.109375 21.859375 C 19.867188 23.304688 17.929688 24.03125 16.296875 24.03125 C 15.660156 24.03125 15.109375 23.914062 14.640625 23.6875 C 12.648438 22.851562 11.695312 20.570312 11.78125 16.84375 C 11.820312 14.5 12.097656 11.707031 12.609375 8.46875 C 13.128906 5.238281 13.804688 1.703125 14.640625 -2.140625 C 15.472656 -5.984375 16.382812 -9.96875 17.375 -14.09375 C 13.289062 -12.945312 10.117188 -11.945312 7.859375 -11.09375 C 5.597656 -10.238281 4.25 -9.613281 3.8125 -9.21875 C 3.613281 -9.019531 3.351562 -8.921875 3.03125 -8.921875 C 2.71875 -8.921875 2.441406 -9.039062 2.203125 -9.28125 C 2.003906 -9.476562 1.90625 -9.734375 1.90625 -10.046875 C 1.90625 -10.367188 2.023438 -10.648438 2.265625 -10.890625 C 2.734375 -11.367188 3.734375 -11.921875 5.265625 -12.546875 C 6.796875 -13.179688 8.671875 -13.847656 10.890625 -14.546875 C 13.109375 -15.242188 15.488281 -15.945312 18.03125 -16.65625 C 18.707031 -19.394531 19.410156 -22.140625 20.140625 -24.890625 C 20.867188 -27.648438 21.570312 -30.359375 22.25 -33.015625 C 23.039062 -35.992188 23.789062 -38.867188 24.5 -41.640625 C 25.21875 -44.421875 25.878906 -47.003906 26.484375 -49.390625 C 22.984375 -48.429688 19.796875 -47.425781 16.921875 -46.375 C 14.046875 -45.320312 11.695312 -44.238281 9.875 -43.125 C 8.050781 -42.019531 6.976562 -40.914062 6.65625 -39.8125 C 6.582031 -39.644531 6.582031 -39.285156 6.65625 -38.734375 C 6.738281 -38.179688 7.394531 -37.488281 8.625 -36.65625 C 8.863281 -36.457031 9.007812 -36.207031 9.0625 -35.90625 C 9.125 -35.613281 9.078125 -35.328125 8.921875 -35.046875 C 8.679688 -34.722656 8.363281 -34.5625 7.96875 -34.5625 C 7.726562 -34.5625 7.507812 -34.625 7.3125 -34.75 C 5.726562 -35.820312 4.804688 -36.863281 4.546875 -37.875 C 4.296875 -38.882812 4.269531 -39.742188 4.46875 -40.453125 C 4.863281 -41.722656 5.785156 -42.914062 7.234375 -44.03125 C 8.679688 -45.144531 10.484375 -46.175781 12.640625 -47.125 C 14.804688 -48.070312 17.140625 -48.953125 19.640625 -49.765625 C 22.140625 -50.578125 24.617188 -51.300781 27.078125 -51.9375 C 27.304688 -52.9375 27.503906 -53.789062 27.671875 -54.5 C 27.710938 -54.820312 27.867188 -55.0625 28.140625 -55.21875 C 28.421875 -55.375 28.695312 -55.429688 28.96875 -55.390625 C 29.289062 -55.316406 29.539062 -55.148438 29.71875 -54.890625 C 29.894531 -54.628906 29.945312 -54.34375 29.875 -54.03125 C 29.789062 -53.632812 29.691406 -53.132812 29.578125 -52.53125 C 33.421875 -53.488281 37.414062 -54.320312 41.5625 -55.03125 C 45.707031 -55.75 49.691406 -56.316406 53.515625 -56.734375 C 57.347656 -57.148438 60.75 -57.378906 63.71875 -57.421875 Z M 63.71875 -57.421875 "/></g></g></g><g fill="#bc9c22" fill-opacity="1"><g transform="translate(211.280979, 65.178184)"><g><path d="M 15.171875 -18.203125 C 15.328125 -17.960938 15.363281 -17.679688 15.28125 -17.359375 C 15.207031 -17.046875 15.03125 -16.8125 14.75 -16.65625 C 12.09375 -15.03125 9.0625 -11.914062 5.65625 -7.3125 C 6.320312 -5.8125 7.0625 -4.472656 7.875 -3.296875 C 8.695312 -2.128906 9.460938 -1.425781 10.171875 -1.1875 C 10.296875 -1.144531 10.472656 -1.144531 10.703125 -1.1875 C 10.941406 -1.226562 11.222656 -1.488281 11.546875 -1.96875 C 11.703125 -2.238281 11.9375 -2.40625 12.25 -2.46875 C 12.570312 -2.53125 12.875 -2.460938 13.15625 -2.265625 C 13.382812 -2.097656 13.53125 -1.859375 13.59375 -1.546875 C 13.65625 -1.234375 13.609375 -0.957031 13.453125 -0.71875 C 12.972656 0.0390625 12.460938 0.535156 11.921875 0.765625 C 11.390625 1.003906 10.90625 1.125 10.46875 1.125 C 10.15625 1.125 9.835938 1.085938 9.515625 1.015625 C 8.566406 0.691406 7.625 -0.0390625 6.6875 -1.1875 C 5.757812 -2.34375 4.921875 -3.671875 4.171875 -5.171875 C 1.785156 -1.765625 -0.613281 2.175781 -3.03125 6.65625 C -3.269531 7.0625 -3.609375 7.265625 -4.046875 7.265625 C -4.242188 7.265625 -4.421875 7.203125 -4.578125 7.078125 C -4.859375 6.960938 -5.046875 6.742188 -5.140625 6.421875 C -5.242188 6.109375 -5.21875 5.8125 -5.0625 5.53125 C -3.945312 3.46875 -2.691406 1.296875 -1.296875 -0.984375 C 0.0859375 -3.265625 1.53125 -5.472656 3.03125 -7.609375 C 2.28125 -9.316406 1.6875 -10.972656 1.25 -12.578125 C 0.8125 -14.191406 0.613281 -15.414062 0.65625 -16.25 C 0.65625 -16.5625 0.773438 -16.828125 1.015625 -17.046875 C 1.253906 -17.265625 1.53125 -17.351562 1.84375 -17.3125 C 2.164062 -17.3125 2.429688 -17.191406 2.640625 -16.953125 C 2.859375 -16.710938 2.96875 -16.4375 2.96875 -16.125 C 2.9375 -15.53125 3.066406 -14.644531 3.359375 -13.46875 C 3.660156 -12.300781 4.066406 -11.066406 4.578125 -9.765625 C 6.046875 -11.660156 7.539062 -13.378906 9.0625 -14.921875 C 10.59375 -16.472656 12.09375 -17.707031 13.5625 -18.625 C 13.84375 -18.78125 14.140625 -18.816406 14.453125 -18.734375 C 14.773438 -18.660156 15.015625 -18.484375 15.171875 -18.203125 Z M 15.171875 -18.203125 "/></g></g></g><g fill="#bc9c22" fill-opacity="1"><g transform="translate(227.34654, 65.178184)"><g><path d="M 50.21875 -35.109375 C 50.414062 -34.867188 50.492188 -34.585938 50.453125 -34.265625 C 50.410156 -33.953125 50.253906 -33.695312 49.984375 -33.5 C 49.503906 -33.175781 49.046875 -33.195312 48.609375 -33.5625 C 48.097656 -33.757812 46.914062 -33.894531 45.0625 -33.96875 C 43.21875 -34.050781 40.90625 -34.101562 38.125 -34.125 C 35.351562 -34.144531 32.300781 -34.132812 28.96875 -34.09375 C 25.644531 -34.050781 22.226562 -34 18.71875 -33.9375 C 15.207031 -33.882812 11.804688 -33.816406 8.515625 -33.734375 C 7.273438 -28.578125 5.984375 -22.972656 4.640625 -16.921875 C 3.296875 -10.878906 1.96875 -4.742188 0.65625 1.484375 C -1.050781 9.660156 -2.367188 16.363281 -3.296875 21.59375 C -4.234375 26.832031 -4.835938 30.625 -5.109375 32.96875 C -5.035156 32.96875 -4.957031 32.984375 -4.875 33.015625 C -4.5625 33.097656 -4.34375 33.285156 -4.21875 33.578125 C -4.101562 33.878906 -4.101562 34.171875 -4.21875 34.453125 C -4.457031 35.128906 -4.722656 35.753906 -5.015625 36.328125 C -5.316406 36.898438 -5.726562 37.1875 -6.25 37.1875 C -6.363281 37.1875 -6.5 37.164062 -6.65625 37.125 C -7.21875 36.925781 -7.523438 36.5 -7.578125 35.84375 C -7.640625 35.1875 -7.59375 34.285156 -7.4375 33.140625 C -7.28125 31.472656 -6.921875 29.070312 -6.359375 25.9375 C -5.890625 23 -5.273438 19.566406 -4.515625 15.640625 C -3.765625 11.722656 -2.894531 7.421875 -1.90625 2.734375 C -0.59375 -3.609375 0.753906 -9.910156 2.140625 -16.171875 C 3.523438 -22.441406 4.851562 -28.273438 6.125 -33.671875 C 4.21875 -33.640625 2.410156 -33.601562 0.703125 -33.5625 C -0.992188 -33.519531 -2.535156 -33.476562 -3.921875 -33.4375 C -6.578125 -33.351562 -8.894531 -33.289062 -10.875 -33.25 C -12.863281 -33.21875 -14.273438 -33.203125 -15.109375 -33.203125 C -15.429688 -33.203125 -15.703125 -33.3125 -15.921875 -33.53125 C -16.140625 -33.75 -16.25 -34.015625 -16.25 -34.328125 C -16.25 -34.648438 -16.140625 -34.921875 -15.921875 -35.140625 C -15.703125 -35.359375 -15.429688 -35.46875 -15.109375 -35.46875 C -14.273438 -35.46875 -12.875 -35.492188 -10.90625 -35.546875 C -8.945312 -35.609375 -6.640625 -35.679688 -3.984375 -35.765625 C -2.078125 -35.796875 -0.234375 -35.832031 1.546875 -35.875 C 3.328125 -35.914062 5.050781 -35.957031 6.71875 -36 C 7.3125 -38.539062 7.894531 -40.929688 8.46875 -43.171875 C 9.050781 -45.410156 9.597656 -47.460938 10.109375 -49.328125 C 10.191406 -49.640625 10.367188 -49.875 10.640625 -50.03125 C 10.921875 -50.195312 11.203125 -50.238281 11.484375 -50.15625 C 11.796875 -50.082031 12.03125 -49.90625 12.1875 -49.625 C 12.351562 -49.34375 12.394531 -49.046875 12.3125 -48.734375 C 11.363281 -45.203125 10.273438 -40.976562 9.046875 -36.0625 C 15.234375 -36.175781 20.523438 -36.257812 24.921875 -36.3125 C 29.328125 -36.375 33.015625 -36.40625 35.984375 -36.40625 C 38.960938 -36.40625 41.375 -36.363281 43.21875 -36.28125 C 45.070312 -36.207031 46.472656 -36.117188 47.421875 -36.015625 C 48.367188 -35.921875 49.039062 -35.796875 49.4375 -35.640625 C 49.84375 -35.484375 50.101562 -35.304688 50.21875 -35.109375 Z M 50.21875 -35.109375 "/></g></g></g><g fill="#bc9c22" fill-opacity="1"><g transform="translate(235.260312, 65.178184)"><g><path d="M 20.109375 -13.265625 C 20.390625 -13.109375 20.546875 -12.867188 20.578125 -12.546875 C 20.617188 -12.234375 20.5625 -11.957031 20.40625 -11.71875 C 18.0625 -8.46875 15.914062 -5.78125 13.96875 -3.65625 C 12.03125 -1.53125 10.09375 0.222656 8.15625 1.609375 C 6.6875 2.640625 5.238281 3.15625 3.8125 3.15625 C 2.695312 3.15625 1.722656 2.859375 0.890625 2.265625 C 0.335938 1.867188 -0.203125 1.160156 -0.734375 0.140625 C -1.273438 -0.867188 -1.566406 -2.332031 -1.609375 -4.25 C -1.648438 -6.175781 -1.171875 -8.707031 -0.171875 -11.84375 C -0.171875 -11.84375 -0.171875 -11.863281 -0.171875 -11.90625 C 1.015625 -15.707031 2.410156 -18.609375 4.015625 -20.609375 C 5.617188 -22.617188 7 -23.644531 8.15625 -23.6875 C 9.0625 -23.71875 9.65625 -23.316406 9.9375 -22.484375 C 10.375 -21.335938 9.859375 -19.703125 8.390625 -17.578125 C 6.921875 -15.460938 4.757812 -13.210938 1.90625 -10.828125 C 1.03125 -8.046875 0.613281 -5.875 0.65625 -4.3125 C 0.695312 -2.75 0.914062 -1.617188 1.3125 -0.921875 C 1.707031 -0.222656 2.023438 0.222656 2.265625 0.421875 C 3.453125 1.285156 4.976562 1.046875 6.84375 -0.296875 C 8.664062 -1.566406 10.507812 -3.222656 12.375 -5.265625 C 14.238281 -7.304688 16.28125 -9.894531 18.5 -13.03125 C 18.695312 -13.269531 18.953125 -13.414062 19.265625 -13.46875 C 19.585938 -13.53125 19.867188 -13.460938 20.109375 -13.265625 Z M 7.734375 -21.1875 C 7.296875 -20.90625 6.695312 -20.316406 5.9375 -19.421875 C 5.1875 -18.535156 4.414062 -17.238281 3.625 -15.53125 C 5.050781 -16.914062 6.0625 -18.09375 6.65625 -19.0625 C 7.257812 -20.039062 7.617188 -20.75 7.734375 -21.1875 Z M 7.734375 -21.1875 "/></g></g></g><g fill="#bc9c22" fill-opacity="1"><g transform="translate(252.57539, 65.178184)"><g><path d="M 23.984375 -13.265625 C 24.253906 -13.109375 24.429688 -12.878906 24.515625 -12.578125 C 24.597656 -12.285156 24.554688 -12 24.390625 -11.71875 C 22.523438 -8.425781 20.847656 -5.894531 19.359375 -4.125 C 17.878906 -2.363281 16.363281 -1.582031 14.8125 -1.78125 C 12.832031 -2.019531 11.265625 -4.164062 10.109375 -8.21875 C 9.710938 -9.519531 9.363281 -10.457031 9.0625 -11.03125 C 8.769531 -11.613281 8.535156 -11.972656 8.359375 -12.109375 C 8.179688 -12.242188 8.050781 -12.3125 7.96875 -12.3125 C 7.851562 -12.351562 7.613281 -12.234375 7.25 -11.953125 C 6.894531 -11.679688 6.378906 -11.066406 5.703125 -10.109375 C 5.035156 -9.160156 4.203125 -7.679688 3.203125 -5.671875 C 2.210938 -3.671875 1.003906 -0.925781 -0.421875 2.5625 C -0.617188 3.03125 -0.953125 3.265625 -1.421875 3.265625 C -1.546875 3.265625 -1.644531 3.25 -1.71875 3.21875 C -2.394531 3.050781 -2.695312 2.632812 -2.625 1.96875 C -2.425781 0.34375 -2.066406 -1.539062 -1.546875 -3.6875 C -1.035156 -5.832031 -0.472656 -8.015625 0.140625 -10.234375 C 0.765625 -12.453125 1.332031 -14.4375 1.84375 -16.1875 C 1.957031 -16.582031 2.066406 -16.945312 2.171875 -17.28125 C 2.273438 -17.625 2.363281 -17.953125 2.4375 -18.265625 C 2.5625 -18.585938 2.757812 -18.816406 3.03125 -18.953125 C 3.3125 -19.085938 3.59375 -19.117188 3.875 -19.046875 C 4.1875 -18.960938 4.421875 -18.78125 4.578125 -18.5 C 4.734375 -18.226562 4.753906 -17.929688 4.640625 -17.609375 C 4.554688 -17.296875 4.460938 -16.96875 4.359375 -16.625 C 4.265625 -16.289062 4.160156 -15.925781 4.046875 -15.53125 C 3.765625 -14.5 3.445312 -13.367188 3.09375 -12.140625 C 2.738281 -10.910156 2.378906 -9.660156 2.015625 -8.390625 C 3.367188 -10.929688 4.519531 -12.617188 5.46875 -13.453125 C 6.425781 -14.285156 7.300781 -14.679688 8.09375 -14.640625 C 9.207031 -14.554688 10.078125 -13.9375 10.703125 -12.78125 C 11.335938 -11.632812 11.875 -10.3125 12.3125 -8.8125 C 12.90625 -6.75 13.457031 -5.4375 13.96875 -4.875 C 14.488281 -4.320312 14.867188 -4.046875 15.109375 -4.046875 C 15.628906 -3.960938 16.234375 -4.25 16.921875 -4.90625 C 17.617188 -5.5625 18.3125 -6.394531 19 -7.40625 C 19.695312 -8.414062 20.351562 -9.414062 20.96875 -10.40625 C 21.582031 -11.40625 22.050781 -12.222656 22.375 -12.859375 C 22.53125 -13.128906 22.765625 -13.300781 23.078125 -13.375 C 23.398438 -13.457031 23.703125 -13.421875 23.984375 -13.265625 Z M 23.984375 -13.265625 "/></g></g></g><g fill="#bc9c22" fill-opacity="1"><g transform="translate(273.817602, 65.178184)"><g><path d="M 26.484375 -13.625 C 26.710938 -13.425781 26.847656 -13.164062 26.890625 -12.84375 C 26.929688 -12.53125 26.832031 -12.253906 26.59375 -12.015625 C 25.445312 -10.671875 24.175781 -9.179688 22.78125 -7.546875 C 21.394531 -5.921875 20.035156 -4.332031 18.703125 -2.78125 C 17.378906 -1.238281 16.238281 0.09375 15.28125 1.21875 C 14.332031 2.351562 13.703125 3.117188 13.390625 3.515625 C 12.710938 4.378906 12.054688 5.226562 11.421875 6.0625 C 11.941406 8.363281 11.992188 10.535156 11.578125 12.578125 C 11.160156 14.628906 10.460938 16.445312 9.484375 18.03125 C 8.515625 19.613281 7.492188 20.84375 6.421875 21.71875 C 5.316406 22.664062 4.285156 23.140625 3.328125 23.140625 C 2.734375 23.140625 2.238281 22.941406 1.84375 22.546875 C 1.164062 21.910156 0.9375 20.96875 1.15625 19.71875 C 1.375 18.46875 1.878906 17.050781 2.671875 15.46875 C 3.472656 13.882812 4.425781 12.238281 5.53125 10.53125 C 6.644531 8.820312 7.773438 7.175781 8.921875 5.59375 C 8.722656 4.875 8.445312 4.148438 8.09375 3.421875 C 7.738281 2.691406 7.320312 1.945312 6.84375 1.1875 C 5.21875 -1.269531 3.835938 -3.578125 2.703125 -5.734375 C 1.578125 -7.898438 1.050781 -9.875 1.125 -11.65625 C 1.320312 -14.945312 2.789062 -17.410156 5.53125 -19.046875 C 6.644531 -19.710938 7.816406 -20.101562 9.046875 -20.21875 C 10.273438 -20.34375 11.40625 -20.164062 12.4375 -19.6875 C 12.71875 -19.53125 12.90625 -19.300781 13 -19 C 13.101562 -18.707031 13.09375 -18.421875 12.96875 -18.140625 C 12.8125 -17.867188 12.582031 -17.679688 12.28125 -17.578125 C 11.988281 -17.484375 11.703125 -17.492188 11.421875 -17.609375 C 9.992188 -18.285156 8.425781 -18.109375 6.71875 -17.078125 C 4.65625 -15.847656 3.566406 -14.003906 3.453125 -11.546875 C 3.367188 -10.078125 3.863281 -8.347656 4.9375 -6.359375 C 6.007812 -4.378906 7.28125 -2.300781 8.75 -0.125 C 9.5 1.03125 10.113281 2.203125 10.59375 3.390625 C 10.90625 2.992188 11.242188 2.554688 11.609375 2.078125 C 11.921875 1.679688 12.5625 0.910156 13.53125 -0.234375 C 14.507812 -1.390625 15.648438 -2.738281 16.953125 -4.28125 C 18.265625 -5.832031 19.625 -7.421875 21.03125 -9.046875 C 22.4375 -10.671875 23.71875 -12.15625 24.875 -13.5 C 25.070312 -13.738281 25.328125 -13.878906 25.640625 -13.921875 C 25.960938 -13.960938 26.242188 -13.863281 26.484375 -13.625 Z M 7.140625 17.5 C 7.421875 17.0625 7.757812 16.4375 8.15625 15.625 C 8.550781 14.8125 8.894531 13.816406 9.1875 12.640625 C 9.488281 11.472656 9.578125 10.175781 9.453125 8.75 C 7.628906 11.320312 6.269531 13.460938 5.375 15.171875 C 4.488281 16.878906 3.914062 18.175781 3.65625 19.0625 C 3.394531 19.957031 3.304688 20.546875 3.390625 20.828125 C 3.671875 20.828125 4.164062 20.566406 4.875 20.046875 C 5.59375 19.535156 6.347656 18.6875 7.140625 17.5 Z M 7.140625 17.5 "/></g></g></g><g fill="#bc9c22" fill-opacity="1"><g transform="translate(297.796865, 65.178184)"><g><path d="M 17.4375 -13.5625 C 17.707031 -13.40625 17.875 -13.164062 17.9375 -12.84375 C 18 -12.53125 17.953125 -12.234375 17.796875 -11.953125 C 17.035156 -10.765625 16.078125 -9.4375 14.921875 -7.96875 C 13.773438 -6.5 12.523438 -5.097656 11.171875 -3.765625 C 9.828125 -2.441406 8.488281 -1.34375 7.15625 -0.46875 C 5.832031 0.394531 4.617188 0.828125 3.515625 0.828125 C 3.035156 0.828125 2.617188 0.75 2.265625 0.59375 C 0.910156 0 0.164062 -1.4375 0.03125 -3.71875 C -0.101562 -6 0.359375 -9.222656 1.421875 -13.390625 C 1.503906 -13.703125 1.679688 -13.9375 1.953125 -14.09375 C 2.234375 -14.257812 2.515625 -14.300781 2.796875 -14.21875 C 3.109375 -14.132812 3.34375 -13.953125 3.5 -13.671875 C 3.664062 -13.398438 3.707031 -13.128906 3.625 -12.859375 C 2.988281 -10.316406 2.59375 -8.300781 2.4375 -6.8125 C 2.28125 -5.320312 2.25 -4.203125 2.34375 -3.453125 C 2.445312 -2.703125 2.597656 -2.195312 2.796875 -1.9375 C 2.992188 -1.675781 3.113281 -1.546875 3.15625 -1.546875 C 3.664062 -1.304688 4.414062 -1.472656 5.40625 -2.046875 C 6.40625 -2.628906 7.519531 -3.484375 8.75 -4.609375 C 9.976562 -5.742188 11.21875 -7.050781 12.46875 -8.53125 C 13.71875 -10.019531 14.835938 -11.578125 15.828125 -13.203125 C 16.023438 -13.484375 16.269531 -13.648438 16.5625 -13.703125 C 16.863281 -13.765625 17.15625 -13.71875 17.4375 -13.5625 Z M 3.390625 -18.328125 C 2.597656 -18.367188 2.191406 -18.597656 2.171875 -19.015625 C 2.148438 -19.429688 2.328125 -19.851562 2.703125 -20.28125 C 3.078125 -20.71875 3.46875 -21.019531 3.875 -21.1875 C 4.5 -21.382812 4.960938 -21.34375 5.265625 -21.0625 C 5.566406 -20.78125 5.707031 -20.421875 5.6875 -19.984375 C 5.664062 -19.554688 5.460938 -19.160156 5.078125 -18.796875 C 4.703125 -18.441406 4.140625 -18.285156 3.390625 -18.328125 Z M 3.390625 -18.328125 "/></g></g></g><g fill="#bc9c22" fill-opacity="1"><g transform="translate(312.850856, 65.178184)"><g><path d="M 21.53125 -12.96875 C 21.8125 -12.769531 21.972656 -12.507812 22.015625 -12.1875 C 22.054688 -11.875 21.976562 -11.597656 21.78125 -11.359375 C 20.75 -10.054688 19.546875 -8.890625 18.171875 -7.859375 C 16.804688 -6.828125 15.378906 -6.0625 13.890625 -5.5625 C 12.398438 -5.0625 10.960938 -4.972656 9.578125 -5.296875 C 9.023438 -3.910156 8.242188 -2.835938 7.234375 -2.078125 C 6.222656 -1.328125 5.203125 -0.953125 4.171875 -0.953125 C 4.171875 -0.953125 4.160156 -0.953125 4.140625 -0.953125 C 4.117188 -0.953125 4.109375 -0.953125 4.109375 -0.953125 C 3.035156 -0.992188 2.09375 -1.359375 1.28125 -2.046875 C 0.46875 -2.742188 -0.0976562 -3.707031 -0.421875 -4.9375 C -0.773438 -6.320312 -0.832031 -7.640625 -0.59375 -8.890625 C -0.351562 -10.140625 0.0820312 -11.238281 0.71875 -12.1875 C 1.351562 -13.144531 2.066406 -13.882812 2.859375 -14.40625 C 3.128906 -14.601562 3.445312 -14.640625 3.8125 -14.515625 C 4.164062 -15.390625 4.671875 -16.0625 5.328125 -16.53125 C 5.984375 -17.007812 6.664062 -17.191406 7.375 -17.078125 C 7.8125 -16.992188 8.285156 -16.722656 8.796875 -16.265625 C 9.316406 -15.816406 9.734375 -15.003906 10.046875 -13.828125 C 10.367188 -12.660156 10.472656 -10.945312 10.359375 -8.6875 C 10.316406 -8.289062 10.253906 -7.894531 10.171875 -7.5 C 11.242188 -7.300781 12.375 -7.421875 13.5625 -7.859375 C 14.75 -8.296875 15.898438 -8.957031 17.015625 -9.84375 C 18.128906 -10.738281 19.101562 -11.722656 19.9375 -12.796875 C 20.132812 -13.035156 20.390625 -13.171875 20.703125 -13.203125 C 21.023438 -13.242188 21.300781 -13.164062 21.53125 -12.96875 Z M 4.171875 -3.265625 C 4.679688 -3.265625 5.253906 -3.503906 5.890625 -3.984375 C 6.523438 -4.460938 7.039062 -5.175781 7.4375 -6.125 C 6.007812 -6.914062 4.988281 -7.828125 4.375 -8.859375 C 3.757812 -9.890625 3.429688 -10.921875 3.390625 -11.953125 C 2.554688 -11.160156 2.007812 -10.148438 1.75 -8.921875 C 1.5 -7.691406 1.507812 -6.582031 1.78125 -5.59375 C 1.90625 -5.15625 2.144531 -4.65625 2.5 -4.09375 C 2.851562 -3.539062 3.410156 -3.265625 4.171875 -3.265625 Z M 8.03125 -8.8125 C 8.113281 -10.394531 8.082031 -11.617188 7.9375 -12.484375 C 7.800781 -13.359375 7.632812 -13.953125 7.4375 -14.265625 C 7.238281 -14.585938 7.097656 -14.769531 7.015625 -14.8125 C 6.984375 -14.8125 6.96875 -14.8125 6.96875 -14.8125 C 6.84375 -14.8125 6.660156 -14.691406 6.421875 -14.453125 C 6.179688 -14.210938 5.984375 -13.859375 5.828125 -13.390625 C 5.585938 -12.628906 5.609375 -11.800781 5.890625 -10.90625 C 6.171875 -10.019531 6.882812 -9.203125 8.03125 -8.453125 C 8.03125 -8.566406 8.03125 -8.6875 8.03125 -8.8125 Z M 8.03125 -8.8125 "/></g></g></g><g fill="#bc9c22" fill-opacity="1"><g transform="translate(331.891484, 65.178184)"><g><path d="M 23.984375 -13.265625 C 24.253906 -13.109375 24.429688 -12.878906 24.515625 -12.578125 C 24.597656 -12.285156 24.554688 -12 24.390625 -11.71875 C 22.523438 -8.425781 20.847656 -5.894531 19.359375 -4.125 C 17.878906 -2.363281 16.363281 -1.582031 14.8125 -1.78125 C 12.832031 -2.019531 11.265625 -4.164062 10.109375 -8.21875 C 9.710938 -9.519531 9.363281 -10.457031 9.0625 -11.03125 C 8.769531 -11.613281 8.535156 -11.972656 8.359375 -12.109375 C 8.179688 -12.242188 8.050781 -12.3125 7.96875 -12.3125 C 7.851562 -12.351562 7.613281 -12.234375 7.25 -11.953125 C 6.894531 -11.679688 6.378906 -11.066406 5.703125 -10.109375 C 5.035156 -9.160156 4.203125 -7.679688 3.203125 -5.671875 C 2.210938 -3.671875 1.003906 -0.925781 -0.421875 2.5625 C -0.617188 3.03125 -0.953125 3.265625 -1.421875 3.265625 C -1.546875 3.265625 -1.644531 3.25 -1.71875 3.21875 C -2.394531 3.050781 -2.695312 2.632812 -2.625 1.96875 C -2.425781 0.34375 -2.066406 -1.539062 -1.546875 -3.6875 C -1.035156 -5.832031 -0.472656 -8.015625 0.140625 -10.234375 C 0.765625 -12.453125 1.332031 -14.4375 1.84375 -16.1875 C 1.957031 -16.582031 2.066406 -16.945312 2.171875 -17.28125 C 2.273438 -17.625 2.363281 -17.953125 2.4375 -18.265625 C 2.5625 -18.585938 2.757812 -18.816406 3.03125 -18.953125 C 3.3125 -19.085938 3.59375 -19.117188 3.875 -19.046875 C 4.1875 -18.960938 4.421875 -18.78125 4.578125 -18.5 C 4.734375 -18.226562 4.753906 -17.929688 4.640625 -17.609375 C 4.554688 -17.296875 4.460938 -16.96875 4.359375 -16.625 C 4.265625 -16.289062 4.160156 -15.925781 4.046875 -15.53125 C 3.765625 -14.5 3.445312 -13.367188 3.09375 -12.140625 C 2.738281 -10.910156 2.378906 -9.660156 2.015625 -8.390625 C 3.367188 -10.929688 4.519531 -12.617188 5.46875 -13.453125 C 6.425781 -14.285156 7.300781 -14.679688 8.09375 -14.640625 C 9.207031 -14.554688 10.078125 -13.9375 10.703125 -12.78125 C 11.335938 -11.632812 11.875 -10.3125 12.3125 -8.8125 C 12.90625 -6.75 13.457031 -5.4375 13.96875 -4.875 C 14.488281 -4.320312 14.867188 -4.046875 15.109375 -4.046875 C 15.628906 -3.960938 16.234375 -4.25 16.921875 -4.90625 C 17.617188 -5.5625 18.3125 -6.394531 19 -7.40625 C 19.695312 -8.414062 20.351562 -9.414062 20.96875 -10.40625 C 21.582031 -11.40625 22.050781 -12.222656 22.375 -12.859375 C 22.53125 -13.128906 22.765625 -13.300781 23.078125 -13.375 C 23.398438 -13.457031 23.703125 -13.421875 23.984375 -13.265625 Z M 23.984375 -13.265625 "/></g></g></g><g fill="#bc9c22" fill-opacity="1"><g transform="translate(353.133697, 65.178184)"><g><path d="M 26.484375 -13.625 C 26.710938 -13.425781 26.847656 -13.164062 26.890625 -12.84375 C 26.929688 -12.53125 26.832031 -12.253906 26.59375 -12.015625 C 25.445312 -10.671875 24.175781 -9.179688 22.78125 -7.546875 C 21.394531 -5.921875 20.035156 -4.332031 18.703125 -2.78125 C 17.378906 -1.238281 16.238281 0.09375 15.28125 1.21875 C 14.332031 2.351562 13.703125 3.117188 13.390625 3.515625 C 12.710938 4.378906 12.054688 5.226562 11.421875 6.0625 C 11.941406 8.363281 11.992188 10.535156 11.578125 12.578125 C 11.160156 14.628906 10.460938 16.445312 9.484375 18.03125 C 8.515625 19.613281 7.492188 20.84375 6.421875 21.71875 C 5.316406 22.664062 4.285156 23.140625 3.328125 23.140625 C 2.734375 23.140625 2.238281 22.941406 1.84375 22.546875 C 1.164062 21.910156 0.9375 20.96875 1.15625 19.71875 C 1.375 18.46875 1.878906 17.050781 2.671875 15.46875 C 3.472656 13.882812 4.425781 12.238281 5.53125 10.53125 C 6.644531 8.820312 7.773438 7.175781 8.921875 5.59375 C 8.722656 4.875 8.445312 4.148438 8.09375 3.421875 C 7.738281 2.691406 7.320312 1.945312 6.84375 1.1875 C 5.21875 -1.269531 3.835938 -3.578125 2.703125 -5.734375 C 1.578125 -7.898438 1.050781 -9.875 1.125 -11.65625 C 1.320312 -14.945312 2.789062 -17.410156 5.53125 -19.046875 C 6.644531 -19.710938 7.816406 -20.101562 9.046875 -20.21875 C 10.273438 -20.34375 11.40625 -20.164062 12.4375 -19.6875 C 12.71875 -19.53125 12.90625 -19.300781 13 -19 C 13.101562 -18.707031 13.09375 -18.421875 12.96875 -18.140625 C 12.8125 -17.867188 12.582031 -17.679688 12.28125 -17.578125 C 11.988281 -17.484375 11.703125 -17.492188 11.421875 -17.609375 C 9.992188 -18.285156 8.425781 -18.109375 6.71875 -17.078125 C 4.65625 -15.847656 3.566406 -14.003906 3.453125 -11.546875 C 3.367188 -10.078125 3.863281 -8.347656 4.9375 -6.359375 C 6.007812 -4.378906 7.28125 -2.300781 8.75 -0.125 C 9.5 1.03125 10.113281 2.203125 10.59375 3.390625 C 10.90625 2.992188 11.242188 2.554688 11.609375 2.078125 C 11.921875 1.679688 12.5625 0.910156 13.53125 -0.234375 C 14.507812 -1.390625 15.648438 -2.738281 16.953125 -4.28125 C 18.265625 -5.832031 19.625 -7.421875 21.03125 -9.046875 C 22.4375 -10.671875 23.71875 -12.15625 24.875 -13.5 C 25.070312 -13.738281 25.328125 -13.878906 25.640625 -13.921875 C 25.960938 -13.960938 26.242188 -13.863281 26.484375 -13.625 Z M 7.140625 17.5 C 7.421875 17.0625 7.757812 16.4375 8.15625 15.625 C 8.550781 14.8125 8.894531 13.816406 9.1875 12.640625 C 9.488281 11.472656 9.578125 10.175781 9.453125 8.75 C 7.628906 11.320312 6.269531 13.460938 5.375 15.171875 C 4.488281 16.878906 3.914062 18.175781 3.65625 19.0625 C 3.394531 19.957031 3.304688 20.546875 3.390625 20.828125 C 3.671875 20.828125 4.164062 20.566406 4.875 20.046875 C 5.59375 19.535156 6.347656 18.6875 7.140625 17.5 Z M 7.140625 17.5 "/></g></g></g><g fill="#bc9c22" fill-opacity="1"><g transform="translate(377.130978, 65.178184)"><g/></g></g></g></g><g transform="matrix(1, 0, 0, 1, 431, 104)"><g clip-path="url(#95904cd893)"><g fill="#bc9c22" fill-opacity="1"><g transform="translate(18.286485, 80.559988)"><g><path d="M -6.921875 -10 L -0.953125 -16.046875 L 0.3125 -14.78125 L -4.359375 -10.046875 L -2.109375 -7.84375 L 1.90625 -11.90625 L 3.15625 -10.65625 L -0.859375 -6.59375 L 1.609375 -4.15625 L 6.28125 -8.890625 L 7.546875 -7.640625 L 1.578125 -1.59375 Z M -6.921875 -10 "/></g></g></g><g fill="#bc9c22" fill-opacity="1"><g transform="translate(30.821011, 68.277953)"><g><path d="M -0.21875 -4.46875 C 0.632812 -4.28125 1.414062 -4.222656 2.125 -4.296875 C 2.832031 -4.378906 3.539062 -4.707031 4.25 -5.28125 C 4.613281 -5.570312 4.921875 -5.898438 5.171875 -6.265625 C 5.429688 -6.640625 5.585938 -7.007812 5.640625 -7.375 C 5.703125 -7.75 5.609375 -8.09375 5.359375 -8.40625 C 5.003906 -8.84375 4.519531 -8.988281 3.90625 -8.84375 C 3.289062 -8.707031 2.539062 -8.382812 1.65625 -7.875 C 0.507812 -7.238281 -0.53125 -6.898438 -1.46875 -6.859375 C -2.414062 -6.816406 -3.21875 -7.210938 -3.875 -8.046875 C -4.3125 -8.597656 -4.523438 -9.207031 -4.515625 -9.875 C -4.503906 -10.539062 -4.3125 -11.195312 -3.9375 -11.84375 C -3.570312 -12.488281 -3.066406 -13.066406 -2.421875 -13.578125 C -1.609375 -14.234375 -0.785156 -14.65625 0.046875 -14.84375 C 0.878906 -15.039062 1.671875 -15.007812 2.421875 -14.75 L 2.28125 -12.953125 C 1.65625 -13.128906 1.023438 -13.171875 0.390625 -13.078125 C -0.242188 -12.992188 -0.847656 -12.71875 -1.421875 -12.25 C -2.003906 -11.789062 -2.398438 -11.285156 -2.609375 -10.734375 C -2.828125 -10.191406 -2.769531 -9.71875 -2.4375 -9.3125 C -2.0625 -8.84375 -1.582031 -8.671875 -1 -8.796875 C -0.425781 -8.929688 0.253906 -9.21875 1.046875 -9.65625 C 1.554688 -9.945312 2.066406 -10.191406 2.578125 -10.390625 C 3.097656 -10.597656 3.601562 -10.738281 4.09375 -10.8125 C 4.59375 -10.882812 5.054688 -10.851562 5.484375 -10.71875 C 5.910156 -10.582031 6.289062 -10.304688 6.625 -9.890625 C 7.101562 -9.285156 7.359375 -8.640625 7.390625 -7.953125 C 7.429688 -7.265625 7.265625 -6.570312 6.890625 -5.875 C 6.523438 -5.175781 5.957031 -4.519531 5.1875 -3.90625 C 4.363281 -3.25 3.503906 -2.796875 2.609375 -2.546875 C 1.710938 -2.304688 0.757812 -2.304688 -0.25 -2.546875 Z M -0.21875 -4.46875 "/></g></g></g><g fill="#bc9c22" fill-opacity="1"><g transform="translate(44.885855, 57.47711)"><g><path d="M 4.140625 -2.578125 L -1.234375 -11.21875 L -4.484375 -9.1875 L -5.421875 -10.6875 L 2.71875 -15.765625 L 3.65625 -14.265625 L 0.328125 -12.1875 L 5.703125 -3.546875 Z M 4.140625 -2.578125 "/></g></g></g><g fill="#bc9c22" fill-opacity="1"><g transform="translate(59.299919, 48.934609)"><g/></g></g><g fill="#bc9c22" fill-opacity="1"><g transform="translate(69.444906, 44.014728)"><g><path d="M 8.53125 -5.21875 L 9.171875 -3.5625 L 1.859375 -0.71875 L 0.828125 -1.828125 L 2.984375 -6.84375 C 3.203125 -7.332031 3.40625 -7.816406 3.59375 -8.296875 C 3.78125 -8.773438 3.910156 -9.226562 3.984375 -9.65625 C 4.066406 -10.09375 4.039062 -10.484375 3.90625 -10.828125 C 3.695312 -11.359375 3.375 -11.695312 2.9375 -11.84375 C 2.5 -12 1.992188 -11.960938 1.421875 -11.734375 C 0.953125 -11.554688 0.523438 -11.203125 0.140625 -10.671875 C -0.242188 -10.140625 -0.445312 -9.4375 -0.46875 -8.5625 L -2.09375 -8.90625 C -2.082031 -9.945312 -1.800781 -10.863281 -1.25 -11.65625 C -0.695312 -12.445312 0.0625 -13.03125 1.03125 -13.40625 C 1.6875 -13.65625 2.316406 -13.753906 2.921875 -13.703125 C 3.523438 -13.660156 4.0625 -13.46875 4.53125 -13.125 C 5.007812 -12.789062 5.375 -12.3125 5.625 -11.6875 C 5.832031 -11.132812 5.894531 -10.546875 5.8125 -9.921875 C 5.738281 -9.304688 5.578125 -8.671875 5.328125 -8.015625 C 5.085938 -7.367188 4.835938 -6.726562 4.578125 -6.09375 L 3.328125 -3.203125 Z M 8.53125 -5.21875 "/></g></g></g><g fill="#bc9c22" fill-opacity="1"><g transform="translate(84.356525, 38.485525)"><g><path d="M 5.796875 -1.359375 C 4.796875 -1.085938 3.878906 -1.117188 3.046875 -1.453125 C 2.222656 -1.785156 1.515625 -2.347656 0.921875 -3.140625 C 0.335938 -3.941406 -0.109375 -4.921875 -0.421875 -6.078125 C -0.722656 -7.222656 -0.816406 -8.285156 -0.703125 -9.265625 C -0.597656 -10.253906 -0.269531 -11.097656 0.28125 -11.796875 C 0.84375 -12.492188 1.625 -12.976562 2.625 -13.25 C 3.632812 -13.519531 4.539062 -13.484375 5.34375 -13.140625 C 6.15625 -12.804688 6.859375 -12.238281 7.453125 -11.4375 C 8.046875 -10.644531 8.492188 -9.675781 8.796875 -8.53125 C 9.109375 -7.375 9.207031 -6.300781 9.09375 -5.3125 C 8.976562 -4.332031 8.648438 -3.492188 8.109375 -2.796875 C 7.578125 -2.109375 6.804688 -1.628906 5.796875 -1.359375 Z M 5.359375 -2.984375 C 6.253906 -3.222656 6.859375 -3.785156 7.171875 -4.671875 C 7.484375 -5.554688 7.453125 -6.691406 7.078125 -8.078125 C 6.710938 -9.453125 6.175781 -10.445312 5.46875 -11.0625 C 4.757812 -11.675781 3.957031 -11.863281 3.0625 -11.625 C 2.144531 -11.382812 1.53125 -10.816406 1.21875 -9.921875 C 0.90625 -9.035156 0.929688 -7.90625 1.296875 -6.53125 C 1.671875 -5.144531 2.210938 -4.144531 2.921875 -3.53125 C 3.628906 -2.925781 4.441406 -2.742188 5.359375 -2.984375 Z M 5.359375 -2.984375 "/></g></g></g><g fill="#bc9c22" fill-opacity="1"><g transform="translate(100.731032, 34.456982)"><g><path d="M 8.125 -1.265625 L 2.140625 -0.328125 L 1.859375 -2.09375 L 4.015625 -2.4375 L 2.78125 -10.4375 L 1.015625 -9.109375 L 0.234375 -10.578125 L 3.078125 -12.75 L 4.265625 -12.9375 L 5.84375 -2.71875 L 7.84375 -3.03125 Z M 8.125 -1.265625 "/></g></g></g><g fill="#bc9c22" fill-opacity="1"><g transform="translate(115.268987, 32.426944)"><g><path d="M 9.734375 -2.28125 L 9.828125 -0.5 L 2 -0.109375 L 1.359375 -1.484375 L 5 -5.5625 C 5.351562 -5.96875 5.691406 -6.363281 6.015625 -6.75 C 6.335938 -7.132812 6.601562 -7.519531 6.8125 -7.90625 C 7.019531 -8.300781 7.117188 -8.6875 7.109375 -9.0625 C 7.078125 -9.625 6.875 -10.039062 6.5 -10.3125 C 6.132812 -10.59375 5.648438 -10.71875 5.046875 -10.6875 C 4.546875 -10.664062 4.023438 -10.460938 3.484375 -10.078125 C 2.953125 -9.691406 2.539062 -9.085938 2.25 -8.265625 L 0.8125 -9.09375 C 1.15625 -10.09375 1.710938 -10.878906 2.484375 -11.453125 C 3.253906 -12.035156 4.15625 -12.351562 5.1875 -12.40625 C 5.882812 -12.4375 6.515625 -12.332031 7.078125 -12.09375 C 7.640625 -11.863281 8.09375 -11.507812 8.4375 -11.03125 C 8.78125 -10.5625 8.96875 -9.992188 9 -9.328125 C 9.03125 -8.734375 8.90625 -8.148438 8.625 -7.578125 C 8.351562 -7.015625 8 -6.460938 7.5625 -5.921875 C 7.132812 -5.390625 6.695312 -4.863281 6.25 -4.34375 L 4.15625 -2 Z M 9.734375 -2.28125 "/></g></g></g><g fill="#bc9c22" fill-opacity="1"><g transform="translate(131.262325, 31.950724)"><g/></g></g></g></g></svg>