<svg xmlns="http://www.w3.org/2000/svg" xmlns:xlink="http://www.w3.org/1999/xlink" width="2000" zoomAndPan="magnify" viewBox="0 0 1500 449.999984" height="600" preserveAspectRatio="xMidYMid meet" version="1.0"><defs><g/><clipPath id="9e5e00a8fb"><rect x="0" width="508" y="0" height="101"/></clipPath><clipPath id="41c227073f"><rect x="0" width="403" y="0" height="108"/></clipPath><clipPath id="8802e7eae2"><rect x="0" width="148" y="0" height="88"/></clipPath></defs><g transform="matrix(1, 0, 0, 1, 496, 156)"><g clip-path="url(#9e5e00a8fb)"><g fill="#000000" fill-opacity="1"><g transform="translate(1.042571, 77.056048)"><g><path d="M 2.984375 -71.28125 L 2.984375 -72.578125 L 27.78125 -72.578125 L 27.78125 -71.28125 C 25.382812 -71.28125 23.640625 -70.960938 22.546875 -70.328125 C 21.453125 -69.703125 20.90625 -68.226562 20.90625 -65.90625 L 20.90625 -6.578125 C 20.90625 -4.179688 21.867188 -2.703125 23.796875 -2.140625 C 25.722656 -1.578125 29.207031 -1.296875 34.25 -1.296875 C 39.957031 -1.296875 44.617188 -2.503906 48.234375 -4.921875 C 51.859375 -7.347656 54.78125 -10.632812 57 -14.78125 C 59.21875 -18.925781 61.09375 -23.523438 62.625 -28.578125 L 63.921875 -28.578125 L 56.84375 0 L 2.984375 0 L 2.984375 -1.296875 C 5.171875 -1.296875 6.828125 -1.476562 7.953125 -1.84375 C 9.085938 -2.207031 9.722656 -3.453125 9.859375 -5.578125 L 9.859375 -65.90625 C 9.859375 -68.226562 9.3125 -69.703125 8.21875 -70.328125 C 7.125 -70.960938 5.378906 -71.28125 2.984375 -71.28125 Z M 2.984375 -71.28125 "/></g></g></g><g fill="#000000" fill-opacity="1"><g transform="translate(67.45455, 77.056048)"><g><path d="M 17.03125 0 L 1.5 0 L 1.5 -1.296875 C 3.15625 -1.296875 4.828125 -1.890625 6.515625 -3.078125 C 8.210938 -4.273438 9.425781 -5.769531 10.15625 -7.5625 L 31.859375 -59.53125 L 29.078125 -66.3125 C 28.273438 -68.300781 27.046875 -69.625 25.390625 -70.28125 C 23.734375 -70.945312 21.90625 -71.28125 19.90625 -71.28125 L 19.90625 -72.578125 L 37.328125 -72.578125 L 63.515625 -10.0625 C 64.910156 -6.800781 66.453125 -4.523438 68.140625 -3.234375 C 69.835938 -1.941406 71.914062 -1.296875 74.375 -1.296875 L 74.375 0 L 46.390625 0 L 46.390625 -1.296875 L 49.078125 -1.296875 C 51.671875 -1.296875 53.148438 -2.140625 53.515625 -3.828125 C 53.878906 -5.523438 53.5625 -7.566406 52.5625 -9.953125 L 46.890625 -23.796875 L 18.21875 -23.796875 L 11.65625 -7.96875 C 10.789062 -5.84375 10.953125 -4.195312 12.140625 -3.03125 C 13.335938 -1.875 14.96875 -1.296875 17.03125 -1.296875 Z M 32.5625 -58.046875 L 18.8125 -25.09375 L 46.296875 -25.09375 Z M 32.5625 -58.046875 "/></g></g></g><g fill="#000000" fill-opacity="1"><g transform="translate(143.325513, 77.056048)"><g><path d="M 3.984375 -71.28125 L 3.984375 -72.578125 L 29.078125 -72.578125 L 29.078125 -71.28125 C 26.679688 -71.28125 24.898438 -70.960938 23.734375 -70.328125 C 22.578125 -69.703125 22 -68.03125 22 -65.3125 L 22 -25.890625 C 22 -17.585938 23.707031 -11.378906 27.125 -7.265625 C 30.550781 -3.148438 35.25 -1.09375 41.21875 -1.09375 C 45.46875 -1.09375 49.203125 -1.789062 52.421875 -3.1875 C 55.640625 -4.582031 58.175781 -7.019531 60.03125 -10.5 C 61.894531 -13.988281 62.828125 -18.882812 62.828125 -25.1875 L 62.828125 -66.3125 C 62.691406 -68.5 62.039062 -69.875 60.875 -70.4375 C 59.71875 -71 58.007812 -71.28125 55.75 -71.28125 L 55.75 -72.578125 L 71.1875 -72.578125 L 71.1875 -71.28125 C 69.332031 -71.28125 67.691406 -70.960938 66.265625 -70.328125 C 64.835938 -69.703125 64.125 -68.03125 64.125 -65.3125 L 64.125 -25.1875 C 64.125 -23.257812 63.988281 -21.132812 63.71875 -18.8125 C 63.457031 -16.488281 62.859375 -14.148438 61.921875 -11.796875 C 60.992188 -9.441406 59.617188 -7.285156 57.796875 -5.328125 C 55.972656 -3.367188 53.515625 -1.789062 50.421875 -0.59375 C 47.335938 0.59375 43.472656 1.1875 38.828125 1.1875 C 31.796875 1.1875 26.253906 0.0078125 22.203125 -2.34375 C 18.148438 -4.695312 15.273438 -7.914062 13.578125 -12 C 11.890625 -16.082031 11.046875 -20.710938 11.046875 -25.890625 L 11.046875 -65.3125 C 11.046875 -68.03125 10.460938 -69.703125 9.296875 -70.328125 C 8.140625 -70.960938 6.367188 -71.28125 3.984375 -71.28125 Z M 3.984375 -71.28125 "/></g></g></g><g fill="#000000" fill-opacity="1"><g transform="translate(217.005958, 77.056048)"><g><path d="M 2.984375 0 L 2.984375 -1.296875 C 5.304688 -1.296875 7.03125 -1.625 8.15625 -2.28125 C 9.289062 -2.945312 9.859375 -4.410156 9.859375 -6.671875 L 9.859375 -65.90625 C 9.859375 -68.226562 9.289062 -69.703125 8.15625 -70.328125 C 7.03125 -70.960938 5.304688 -71.28125 2.984375 -71.28125 L 2.984375 -72.578125 L 31.265625 -72.578125 C 34.984375 -72.578125 38.613281 -72.394531 42.15625 -72.03125 C 45.707031 -71.664062 48.925781 -70.882812 51.8125 -69.6875 C 54.707031 -68.5 57.015625 -66.722656 58.734375 -64.359375 C 60.460938 -62.003906 61.328125 -58.835938 61.328125 -54.859375 C 61.328125 -50.941406 60.53125 -47.785156 58.9375 -45.390625 C 57.34375 -43.003906 55.234375 -41.179688 52.609375 -39.921875 C 49.992188 -38.660156 47.160156 -37.8125 44.109375 -37.375 C 41.054688 -36.945312 38.066406 -36.734375 35.140625 -36.734375 L 30.96875 -36.734375 C 32.289062 -34.679688 33.765625 -33.171875 35.390625 -32.203125 C 37.015625 -31.242188 38.625 -30.765625 40.21875 -30.765625 C 42.082031 -30.765625 43.8125 -31.394531 45.40625 -32.65625 L 63.328125 -6.671875 C 64.847656 -4.546875 66.4375 -3.117188 68.09375 -2.390625 C 69.757812 -1.660156 71.519531 -1.296875 73.375 -1.296875 L 73.375 0 L 63.515625 0 C 60.796875 0 58.421875 -0.578125 56.390625 -1.734375 C 54.367188 -2.898438 52.59375 -4.363281 51.0625 -6.125 C 49.539062 -7.882812 48.148438 -9.660156 46.890625 -11.453125 L 29.46875 -36.734375 L 20.8125 -36.734375 L 20.8125 -6.671875 C 20.8125 -4.410156 21.359375 -2.945312 22.453125 -2.28125 C 23.546875 -1.625 25.285156 -1.296875 27.671875 -1.296875 L 27.671875 0 Z M 20.8125 -38.03125 L 31.359375 -38.03125 C 34.878906 -38.03125 38.082031 -38.492188 40.96875 -39.421875 C 43.851562 -40.359375 46.160156 -42.035156 47.890625 -44.453125 C 49.617188 -46.878906 50.484375 -50.316406 50.484375 -54.765625 C 50.484375 -60.140625 48.988281 -64.234375 46 -67.046875 C 43.007812 -69.867188 38.757812 -71.28125 33.25 -71.28125 L 20.8125 -71.28125 Z M 20.8125 -38.03125 "/></g></g></g><g fill="#000000" fill-opacity="1"><g transform="translate(291.383383, 77.056048)"><g><path d="M 2.984375 0 L 2.984375 -1.296875 C 5.171875 -1.296875 6.828125 -1.5625 7.953125 -2.09375 C 9.085938 -2.625 9.753906 -3.816406 9.953125 -5.671875 L 9.859375 -65.90625 C 9.859375 -68.226562 9.3125 -69.703125 8.21875 -70.328125 C 7.125 -70.960938 5.378906 -71.28125 2.984375 -71.28125 L 2.984375 -72.578125 L 54.453125 -72.578125 L 59.734375 -56.84375 L 58.4375 -56.84375 C 57.25 -60.632812 55.890625 -63.570312 54.359375 -65.65625 C 52.835938 -67.75 50.894531 -69.191406 48.53125 -69.984375 C 46.175781 -70.785156 43.109375 -71.1875 39.328125 -71.1875 C 34.546875 -71.1875 30.828125 -71.066406 28.171875 -70.828125 C 25.515625 -70.597656 23.640625 -70.117188 22.546875 -69.390625 C 21.453125 -68.660156 20.90625 -67.5 20.90625 -65.90625 L 20.90625 -38.734375 L 32.359375 -38.734375 C 35.941406 -38.796875 38.546875 -39.390625 40.171875 -40.515625 C 41.796875 -41.648438 42.804688 -43.34375 43.203125 -45.59375 C 43.609375 -47.851562 43.8125 -50.644531 43.8125 -53.96875 L 45.109375 -53.96875 L 45.109375 -21 L 43.8125 -21 C 43.8125 -24.382812 43.644531 -27.304688 43.3125 -29.765625 C 42.976562 -32.222656 42.03125 -34.113281 40.46875 -35.4375 C 38.90625 -36.769531 36.203125 -37.4375 32.359375 -37.4375 L 20.90625 -37.4375 L 20.90625 -6.671875 C 20.90625 -4.410156 21.867188 -2.945312 23.796875 -2.28125 C 25.722656 -1.625 29.207031 -1.296875 34.25 -1.296875 C 39.957031 -1.296875 44.617188 -2.503906 48.234375 -4.921875 C 51.859375 -7.347656 54.78125 -10.632812 57 -14.78125 C 59.21875 -18.925781 61.09375 -23.523438 62.625 -28.578125 L 63.921875 -28.578125 L 56.84375 0 Z M 2.984375 0 "/></g></g></g><g fill="#000000" fill-opacity="1"><g transform="translate(357.894939, 77.056048)"><g><path d="M 2.484375 -72.578125 L 21.609375 -72.578125 L 60.140625 -18.8125 L 60.03125 -65.90625 C 60.03125 -68.5625 59.445312 -70.117188 58.28125 -70.578125 C 57.125 -71.046875 55.382812 -71.28125 53.0625 -71.28125 L 53.0625 -72.578125 L 68.40625 -72.578125 L 68.40625 -71.28125 C 66.144531 -71.28125 64.429688 -71.066406 63.265625 -70.640625 C 62.109375 -70.210938 61.460938 -68.800781 61.328125 -66.40625 L 61.4375 0 L 60.140625 0 L 14.03125 -64.3125 L 14.03125 -6.671875 C 14.03125 -4.015625 14.628906 -2.453125 15.828125 -1.984375 C 17.023438 -1.523438 18.785156 -1.296875 21.109375 -1.296875 L 21.109375 0 L 5.671875 0 L 5.671875 -1.296875 C 8.066406 -1.296875 9.84375 -1.523438 11 -1.984375 C 12.164062 -2.453125 12.75 -4.015625 12.75 -6.671875 L 12.75 -66.109375 C 11.550781 -68.097656 10.101562 -69.457031 8.40625 -70.1875 C 6.71875 -70.914062 4.742188 -71.28125 2.484375 -71.28125 Z M 2.484375 -72.578125 "/></g></g></g><g fill="#000000" fill-opacity="1"><g transform="translate(428.787498, 77.056048)"><g><path d="M 4.984375 -67.109375 C 4.984375 -68.367188 5.476562 -69.59375 6.46875 -70.78125 C 7.46875 -71.976562 8.894531 -72.578125 10.75 -72.578125 C 12.9375 -72.578125 14.660156 -71.695312 15.921875 -69.9375 C 17.191406 -68.175781 17.59375 -65.671875 17.125 -62.421875 C 16.789062 -59.960938 15.992188 -57.804688 14.734375 -55.953125 C 13.472656 -54.097656 12.0625 -52.671875 10.5 -51.671875 C 8.945312 -50.671875 7.535156 -50.171875 6.265625 -50.171875 L 6.265625 -54.359375 C 6.265625 -54.359375 6.613281 -54.425781 7.3125 -54.5625 C 8.007812 -54.695312 8.875 -55.0625 9.90625 -55.65625 C 10.9375 -56.25 11.960938 -57.175781 12.984375 -58.4375 C 14.015625 -59.695312 14.863281 -61.457031 15.53125 -63.71875 L 14.9375 -63.71875 C 14.070312 -62.257812 12.609375 -61.53125 10.546875 -61.53125 C 9.085938 -61.53125 7.796875 -62.007812 6.671875 -62.96875 C 5.546875 -63.9375 4.984375 -65.316406 4.984375 -67.109375 Z M 4.984375 -67.109375 "/></g></g></g><g fill="#000000" fill-opacity="1"><g transform="translate(451.090755, 77.056048)"><g><path d="M 4.984375 0 L 4.984375 -29.875 L 6.265625 -29.875 C 6.265625 -23.226562 7.226562 -17.796875 9.15625 -13.578125 C 11.082031 -9.367188 13.703125 -6.269531 17.015625 -4.28125 C 20.335938 -2.289062 24.023438 -1.296875 28.078125 -1.296875 C 30.597656 -1.296875 32.898438 -1.675781 34.984375 -2.4375 C 37.078125 -3.195312 38.753906 -4.457031 40.015625 -6.21875 C 41.285156 -7.976562 41.921875 -10.316406 41.921875 -13.234375 C 41.921875 -16.023438 41.039062 -18.582031 39.28125 -20.90625 C 37.519531 -23.226562 35.226562 -25.453125 32.40625 -27.578125 C 29.582031 -29.703125 26.609375 -31.804688 23.484375 -33.890625 C 20.367188 -35.984375 17.398438 -38.160156 14.578125 -40.421875 C 11.765625 -42.679688 9.476562 -45.132812 7.71875 -47.78125 C 5.957031 -50.4375 5.078125 -53.359375 5.078125 -56.546875 C 5.078125 -60.398438 6.117188 -63.585938 8.203125 -66.109375 C 10.296875 -68.628906 12.9375 -70.519531 16.125 -71.78125 C 19.3125 -73.039062 22.53125 -73.671875 25.78125 -73.671875 C 28.300781 -73.671875 30.441406 -73.421875 32.203125 -72.921875 C 33.960938 -72.429688 35.472656 -71.835938 36.734375 -71.140625 C 37.992188 -70.441406 39.140625 -69.84375 40.171875 -69.34375 C 41.203125 -68.84375 42.210938 -68.59375 43.203125 -68.59375 C 44.535156 -68.59375 45.429688 -68.890625 45.890625 -69.484375 C 46.359375 -70.085938 46.59375 -71.117188 46.59375 -72.578125 L 47.890625 -72.578125 L 47.890625 -49.078125 L 46.59375 -49.078125 C 46.59375 -53.523438 45.742188 -57.425781 44.046875 -60.78125 C 42.359375 -64.132812 40.050781 -66.738281 37.125 -68.59375 C 34.207031 -70.457031 30.894531 -71.390625 27.1875 -71.390625 C 23.195312 -71.390625 20.335938 -70.441406 18.609375 -68.546875 C 16.890625 -66.660156 16.03125 -64.253906 16.03125 -61.328125 C 16.03125 -58.078125 16.890625 -55.207031 18.609375 -52.71875 C 20.335938 -50.226562 22.5625 -47.96875 25.28125 -45.9375 C 28.007812 -43.914062 30.898438 -41.941406 33.953125 -40.015625 C 37.003906 -38.097656 39.890625 -36.0625 42.609375 -33.90625 C 45.328125 -31.75 47.550781 -29.34375 49.28125 -26.6875 C 51.007812 -24.03125 51.875 -20.910156 51.875 -17.328125 C 51.875 -13.941406 51.191406 -10.851562 49.828125 -8.0625 C 48.472656 -5.28125 46.203125 -3.039062 43.015625 -1.34375 C 39.828125 0.34375 35.410156 1.1875 29.765625 1.1875 C 27.046875 1.1875 24.753906 0.953125 22.890625 0.484375 C 21.035156 0.0234375 19.425781 -0.515625 18.0625 -1.140625 C 16.707031 -1.773438 15.460938 -2.320312 14.328125 -2.78125 C 13.203125 -3.25 12.046875 -3.484375 10.859375 -3.484375 C 7.796875 -3.484375 6.265625 -2.320312 6.265625 0 Z M 4.984375 0 "/></g></g></g></g></g><g transform="matrix(1, 0, 0, 1, 655, 210)"><g clip-path="url(#41c227073f)"><g fill="#bc9c22" fill-opacity="1"><g transform="translate(31.355476, 65.687161)"><g><path d="M 53.71875 -23.984375 C 53.800781 -23.660156 53.769531 -23.359375 53.625 -23.078125 C 53.488281 -22.796875 53.28125 -22.59375 53 -22.46875 C 51.15625 -21.914062 48.960938 -21.25 46.421875 -20.46875 C 43.878906 -19.6875 41.085938 -18.832031 38.046875 -17.90625 C 37.640625 -15.707031 37.222656 -13.523438 36.796875 -11.359375 C 36.378906 -9.191406 35.992188 -7.085938 35.640625 -5.046875 C 34.671875 -0.0351562 33.828125 4.347656 33.109375 8.109375 C 32.390625 11.878906 31.847656 14.601562 31.484375 16.28125 C 31.367188 16.882812 30.988281 17.1875 30.34375 17.1875 C 30.269531 17.1875 30.191406 17.1875 30.109375 17.1875 C 29.828125 17.101562 29.59375 16.929688 29.40625 16.671875 C 29.226562 16.410156 29.179688 16.117188 29.265625 15.796875 C 29.460938 14.679688 29.769531 13.070312 30.1875 10.96875 C 30.613281 8.863281 31.097656 6.398438 31.640625 3.578125 C 32.179688 0.753906 32.753906 -2.257812 33.359375 -5.46875 C 33.710938 -7.3125 34.066406 -9.210938 34.421875 -11.171875 C 34.785156 -13.140625 35.171875 -15.144531 35.578125 -17.1875 C 35.535156 -17.144531 35.503906 -17.125 35.484375 -17.125 C 35.460938 -17.125 35.429688 -17.125 35.390625 -17.125 C 31.585938 -15.96875 27.53125 -14.738281 23.21875 -13.4375 C 18.914062 -12.132812 14.660156 -10.820312 10.453125 -9.5 C 9.015625 -2.601562 7.8125 3.304688 6.84375 8.234375 C 5.882812 13.160156 5.09375 17.273438 4.46875 20.578125 C 3.851562 23.890625 3.375 26.546875 3.03125 28.546875 C 2.695312 30.546875 2.445312 32.066406 2.28125 33.109375 C 2.96875 33.390625 3.1875 33.867188 2.9375 34.546875 C 2.738281 35.191406 2.507812 35.765625 2.25 36.265625 C 1.988281 36.765625 1.617188 37.015625 1.140625 37.015625 C 1.023438 37.015625 0.882812 36.992188 0.71875 36.953125 C 0.113281 36.796875 -0.191406 36.375 -0.203125 35.6875 C -0.222656 35.007812 -0.132812 34.007812 0.0625 32.6875 C 0.300781 30.84375 0.722656 28.21875 1.328125 24.8125 C 2.398438 18.925781 4 10.71875 6.125 0.1875 C 6.40625 -1.257812 6.695312 -2.734375 7 -4.234375 C 7.300781 -5.734375 7.613281 -7.226562 7.9375 -8.71875 C 6.289062 -8.195312 4.6875 -7.6875 3.125 -7.1875 C 1.5625 -6.6875 0.0390625 -6.175781 -1.4375 -5.65625 C -6.050781 -4.125 -9.71875 -2.847656 -12.4375 -1.828125 C -15.164062 -0.804688 -17.207031 0.0078125 -18.5625 0.625 C -19.925781 1.25 -20.867188 1.742188 -21.390625 2.109375 C -20.992188 2.390625 -20.832031 2.769531 -20.90625 3.25 C -21.03125 3.882812 -21.410156 4.203125 -22.046875 4.203125 C -22.128906 4.203125 -22.210938 4.179688 -22.296875 4.140625 C -23.097656 3.984375 -23.628906 3.734375 -23.890625 3.390625 C -24.148438 3.054688 -24.300781 2.726562 -24.34375 2.40625 C -24.34375 2 -24.191406 1.59375 -23.890625 1.1875 C -23.585938 0.789062 -22.972656 0.328125 -22.046875 -0.203125 C -21.128906 -0.742188 -19.769531 -1.394531 -17.96875 -2.15625 C -14.601562 -3.5625 -9.773438 -5.328125 -3.484375 -7.453125 C -1.597656 -8.054688 0.332031 -8.675781 2.3125 -9.3125 C 4.289062 -9.957031 6.320312 -10.617188 8.40625 -11.296875 C 9.175781 -14.984375 9.921875 -18.566406 10.640625 -22.046875 C 11.359375 -25.535156 12.035156 -28.789062 12.671875 -31.8125 C 13.316406 -34.84375 13.878906 -37.507812 14.359375 -39.8125 C 14.835938 -42.113281 15.21875 -43.925781 15.5 -45.25 L 15.796875 -46.453125 C 16.160156 -48.171875 16.332031 -49.441406 16.3125 -50.265625 C 16.289062 -51.085938 16.21875 -51.628906 16.09375 -51.890625 C 15.976562 -52.148438 15.921875 -52.28125 15.921875 -52.28125 C 15.835938 -52.320312 15.566406 -52.269531 15.109375 -52.125 C 14.648438 -51.988281 13.941406 -51.5 12.984375 -50.65625 C 11.578125 -49.457031 10.101562 -47.835938 8.5625 -45.796875 C 7.019531 -43.753906 5.648438 -41.628906 4.453125 -39.421875 C 3.171875 -37.015625 2.273438 -34.859375 1.765625 -32.953125 C 1.265625 -31.054688 1.21875 -29.609375 1.625 -28.609375 C 1.707031 -28.398438 1.957031 -28.085938 2.375 -27.671875 C 2.789062 -27.253906 3.679688 -27.082031 5.046875 -27.15625 C 5.367188 -27.195312 5.648438 -27.109375 5.890625 -26.890625 C 6.128906 -26.671875 6.269531 -26.398438 6.3125 -26.078125 C 6.3125 -25.753906 6.207031 -25.472656 6 -25.234375 C 5.800781 -24.992188 5.546875 -24.875 5.234375 -24.875 C 3.390625 -24.757812 2.046875 -25.03125 1.203125 -25.6875 C 0.359375 -26.351562 -0.222656 -27.046875 -0.546875 -27.765625 C -1.023438 -28.960938 -1.101562 -30.421875 -0.78125 -32.140625 C -0.457031 -33.867188 0.128906 -35.703125 0.984375 -37.640625 C 1.847656 -39.585938 2.878906 -41.503906 4.078125 -43.390625 C 5.285156 -45.273438 6.539062 -47.003906 7.84375 -48.578125 C 9.144531 -50.160156 10.335938 -51.4375 11.421875 -52.40625 C 13.816406 -54.488281 15.695312 -55.109375 17.0625 -54.265625 C 18.707031 -53.304688 19.03125 -50.5625 18.03125 -46.03125 L 17.78125 -44.765625 C 16.425781 -38.359375 15.1875 -32.441406 14.0625 -27.015625 C 12.9375 -21.585938 11.894531 -16.609375 10.9375 -12.078125 C 14.976562 -13.316406 19.039062 -14.554688 23.125 -15.796875 C 27.21875 -17.046875 31.085938 -18.226562 34.734375 -19.34375 C 34.929688 -19.382812 35.140625 -19.445312 35.359375 -19.53125 C 35.585938 -19.613281 35.820312 -19.671875 36.0625 -19.703125 C 36.820312 -23.796875 37.59375 -27.851562 38.375 -31.875 C 39.15625 -35.90625 39.90625 -39.722656 40.625 -43.328125 C 41.34375 -46.929688 42.007812 -50.132812 42.625 -52.9375 C 43.25 -55.75 43.765625 -57.972656 44.171875 -59.609375 C 44.242188 -59.929688 44.421875 -60.171875 44.703125 -60.328125 C 44.984375 -60.492188 45.265625 -60.535156 45.546875 -60.453125 C 45.867188 -60.367188 46.109375 -60.1875 46.265625 -59.90625 C 46.429688 -59.632812 46.472656 -59.359375 46.390625 -59.078125 C 45.992188 -57.472656 45.503906 -55.316406 44.921875 -52.609375 C 44.335938 -49.910156 43.695312 -46.828125 43 -43.359375 C 42.300781 -39.890625 41.566406 -36.203125 40.796875 -32.296875 C 40.035156 -28.390625 39.273438 -24.453125 38.515625 -20.484375 C 41.328125 -21.328125 43.898438 -22.097656 46.234375 -22.796875 C 48.578125 -23.503906 50.59375 -24.140625 52.28125 -24.703125 C 52.5625 -24.773438 52.851562 -24.738281 53.15625 -24.59375 C 53.457031 -24.457031 53.644531 -24.253906 53.71875 -23.984375 Z M 53.71875 -23.984375 "/></g></g></g><g fill="#bc9c22" fill-opacity="1"><g transform="translate(82.501538, 65.687161)"><g><path d="M 25.171875 -13.34375 C 25.453125 -13.21875 25.644531 -13.003906 25.75 -12.703125 C 25.851562 -12.410156 25.84375 -12.125 25.71875 -11.84375 C 24.957031 -10.28125 24.125 -8.71875 23.21875 -7.15625 C 22.320312 -5.59375 21.378906 -4.160156 20.390625 -2.859375 C 19.410156 -1.554688 18.398438 -0.515625 17.359375 0.265625 C 16.316406 1.046875 15.28125 1.4375 14.25 1.4375 C 14.039062 1.4375 13.816406 1.414062 13.578125 1.375 C 10.898438 0.851562 9.238281 -2.75 8.59375 -9.4375 C 7.914062 -8.507812 7.125 -7.472656 6.21875 -6.328125 C 5.320312 -5.191406 4.367188 -4.0625 3.359375 -2.9375 C 3.203125 -2.78125 2.941406 -2.53125 2.578125 -2.1875 C 2.222656 -1.851562 1.800781 -1.582031 1.3125 -1.375 C 0.832031 -1.175781 0.351562 -1.195312 -0.125 -1.4375 C -1.082031 -1.800781 -1.539062 -2.84375 -1.5 -4.5625 C -1.5 -5.5625 -1.304688 -6.800781 -0.921875 -8.28125 C -0.546875 -9.769531 -0.0078125 -11.265625 0.6875 -12.765625 C 1.394531 -14.265625 2.21875 -15.597656 3.15625 -16.765625 C 4.09375 -17.929688 5.144531 -18.710938 6.3125 -19.109375 C 7.03125 -19.390625 7.910156 -19.4375 8.953125 -19.25 C 9.992188 -19.070312 11.078125 -18.320312 12.203125 -17 C 12.398438 -16.757812 12.488281 -16.476562 12.46875 -16.15625 C 12.445312 -15.84375 12.316406 -15.585938 12.078125 -15.390625 C 11.835938 -15.179688 11.554688 -15.085938 11.234375 -15.109375 C 10.910156 -15.128906 10.648438 -15.257812 10.453125 -15.5 C 9.492188 -16.625 8.660156 -17.15625 7.953125 -17.09375 C 7.253906 -17.03125 6.664062 -16.820312 6.1875 -16.46875 C 5.3125 -15.820312 4.507812 -14.898438 3.78125 -13.703125 C 3.0625 -12.503906 2.460938 -11.242188 1.984375 -9.921875 C 1.503906 -8.597656 1.160156 -7.363281 0.953125 -6.21875 C 0.753906 -5.070312 0.695312 -4.238281 0.78125 -3.71875 C 0.90625 -3.800781 1.035156 -3.898438 1.171875 -4.015625 C 1.304688 -4.140625 1.457031 -4.300781 1.625 -4.5 C 2.820312 -5.820312 3.921875 -7.132812 4.921875 -8.4375 C 5.929688 -9.738281 6.796875 -10.894531 7.515625 -11.90625 C 7.710938 -12.175781 7.898438 -12.441406 8.078125 -12.703125 C 8.265625 -12.960938 8.4375 -13.195312 8.59375 -13.40625 C 8.914062 -13.800781 9.335938 -13.921875 9.859375 -13.765625 C 10.378906 -13.640625 10.660156 -13.296875 10.703125 -12.734375 C 10.816406 -10.128906 11.023438 -8.035156 11.328125 -6.453125 C 11.628906 -4.878906 11.957031 -3.703125 12.3125 -2.921875 C 12.675781 -2.140625 13.019531 -1.609375 13.34375 -1.328125 C 13.664062 -1.046875 13.90625 -0.90625 14.0625 -0.90625 C 14.820312 -0.738281 16.039062 -1.515625 17.71875 -3.234375 C 19.40625 -4.960938 21.367188 -8.148438 23.609375 -12.796875 C 23.773438 -13.117188 24.007812 -13.328125 24.3125 -13.421875 C 24.613281 -13.523438 24.898438 -13.5 25.171875 -13.34375 Z M 25.171875 -13.34375 "/></g></g></g><g fill="#bc9c22" fill-opacity="1"><g transform="translate(104.859144, 65.687161)"><g><path d="M 17.609375 -13.703125 C 17.890625 -13.546875 18.054688 -13.304688 18.109375 -12.984375 C 18.171875 -12.660156 18.125 -12.359375 17.96875 -12.078125 C 17.207031 -10.878906 16.242188 -9.535156 15.078125 -8.046875 C 13.921875 -6.566406 12.660156 -5.15625 11.296875 -3.8125 C 9.929688 -2.46875 8.578125 -1.351562 7.234375 -0.46875 C 5.898438 0.40625 4.671875 0.84375 3.546875 0.84375 C 3.066406 0.84375 2.644531 0.757812 2.28125 0.59375 C 0.914062 0 0.160156 -1.445312 0.015625 -3.75 C -0.117188 -6.0625 0.351562 -9.316406 1.4375 -13.515625 C 1.519531 -13.835938 1.703125 -14.078125 1.984375 -14.234375 C 2.265625 -14.398438 2.546875 -14.441406 2.828125 -14.359375 C 3.148438 -14.285156 3.390625 -14.109375 3.546875 -13.828125 C 3.703125 -13.546875 3.742188 -13.265625 3.671875 -12.984375 C 3.023438 -10.421875 2.617188 -8.382812 2.453125 -6.875 C 2.296875 -5.375 2.269531 -4.242188 2.375 -3.484375 C 2.476562 -2.722656 2.628906 -2.210938 2.828125 -1.953125 C 3.023438 -1.691406 3.144531 -1.5625 3.1875 -1.5625 C 3.707031 -1.320312 4.46875 -1.488281 5.46875 -2.0625 C 6.46875 -2.644531 7.585938 -3.507812 8.828125 -4.65625 C 10.078125 -5.800781 11.332031 -7.125 12.59375 -8.625 C 13.851562 -10.125 14.984375 -11.695312 15.984375 -13.34375 C 16.179688 -13.625 16.429688 -13.789062 16.734375 -13.84375 C 17.035156 -13.90625 17.328125 -13.859375 17.609375 -13.703125 Z M 3.421875 -18.515625 C 2.617188 -18.546875 2.207031 -18.769531 2.1875 -19.1875 C 2.164062 -19.613281 2.347656 -20.046875 2.734375 -20.484375 C 3.117188 -20.929688 3.507812 -21.234375 3.90625 -21.390625 C 4.550781 -21.585938 5.019531 -21.546875 5.3125 -21.265625 C 5.613281 -20.992188 5.753906 -20.632812 5.734375 -20.1875 C 5.710938 -19.75 5.507812 -19.347656 5.125 -18.984375 C 4.75 -18.628906 4.179688 -18.472656 3.421875 -18.515625 Z M 3.421875 -18.515625 "/></g></g></g><g fill="#bc9c22" fill-opacity="1"><g transform="translate(120.064732, 65.687161)"><g><path d="M 26.375 -13.640625 C 26.65625 -13.484375 26.851562 -13.253906 26.96875 -12.953125 C 27.09375 -12.648438 27.078125 -12.359375 26.921875 -12.078125 C 26.160156 -10.429688 25.226562 -8.585938 24.125 -6.546875 C 23.019531 -4.503906 21.847656 -2.453125 20.609375 -0.390625 C 19.367188 1.671875 18.109375 3.550781 16.828125 5.25 C 15.546875 6.957031 14.300781 8.34375 13.09375 9.40625 C 11.894531 10.46875 10.816406 11 9.859375 11 C 9.578125 11 9.316406 10.9375 9.078125 10.8125 C 8.234375 10.5 7.679688 9.738281 7.421875 8.53125 C 7.160156 7.332031 7.191406 5.609375 7.515625 3.359375 C 8.078125 -0.679688 9.554688 -6.410156 11.953125 -13.828125 C 11.921875 -13.828125 11.894531 -13.816406 11.875 -13.796875 C 11.851562 -13.773438 11.820312 -13.765625 11.78125 -13.765625 C 10.976562 -13.203125 10.015625 -12.617188 8.890625 -12.015625 C 7.773438 -11.421875 6.613281 -11.019531 5.40625 -10.8125 C 4.207031 -10.613281 3.066406 -10.875 1.984375 -11.59375 C 0.460938 -12.675781 -0.316406 -14.175781 -0.359375 -16.09375 C -0.398438 -18.019531 0.316406 -20.128906 1.796875 -22.421875 C 2.285156 -23.140625 2.921875 -23.9375 3.703125 -24.8125 C 4.484375 -25.695312 5.300781 -26.378906 6.15625 -26.859375 C 7.019531 -27.335938 7.789062 -27.359375 8.46875 -26.921875 C 8.832031 -26.722656 9.101562 -26.378906 9.28125 -25.890625 C 9.46875 -25.410156 9.457031 -24.671875 9.25 -23.671875 C 9.050781 -22.671875 8.570312 -21.328125 7.8125 -19.640625 C 7.050781 -17.960938 5.910156 -15.78125 4.390625 -13.09375 C 5.304688 -12.976562 6.332031 -13.238281 7.46875 -13.875 C 8.613281 -14.519531 9.628906 -15.125 10.515625 -15.6875 C 11.359375 -16.25 12.0625 -16.660156 12.625 -16.921875 C 13.1875 -17.179688 13.707031 -17.128906 14.1875 -16.765625 C 14.625 -16.398438 14.800781 -15.957031 14.71875 -15.4375 C 14.644531 -14.914062 14.566406 -14.519531 14.484375 -14.25 C 13.160156 -10.082031 12.140625 -6.613281 11.421875 -3.84375 C 10.703125 -1.082031 10.210938 1.132812 9.953125 2.8125 C 9.691406 4.5 9.5625 5.765625 9.5625 6.609375 C 9.5625 7.453125 9.617188 8.003906 9.734375 8.265625 C 9.859375 8.523438 9.921875 8.675781 9.921875 8.71875 C 10.398438 8.789062 11.390625 8.015625 12.890625 6.390625 C 14.390625 4.773438 16.179688 2.335938 18.265625 -0.921875 C 20.347656 -4.191406 22.53125 -8.234375 24.8125 -13.046875 C 24.976562 -13.359375 25.207031 -13.566406 25.5 -13.671875 C 25.800781 -13.773438 26.09375 -13.765625 26.375 -13.640625 Z M 2.15625 -17.734375 C 1.914062 -16.890625 1.847656 -16.195312 1.953125 -15.65625 C 2.054688 -15.113281 2.207031 -14.679688 2.40625 -14.359375 C 3.6875 -16.609375 4.65625 -18.429688 5.3125 -19.828125 C 5.976562 -21.234375 6.429688 -22.316406 6.671875 -23.078125 C 6.910156 -23.835938 7.050781 -24.378906 7.09375 -24.703125 C 6.65625 -24.460938 6.101562 -24 5.4375 -23.3125 C 4.78125 -22.632812 4.140625 -21.8125 3.515625 -20.84375 C 2.890625 -19.882812 2.4375 -18.847656 2.15625 -17.734375 Z M 2.15625 -17.734375 "/></g></g></g><g fill="#bc9c22" fill-opacity="1"><g transform="translate(144.045129, 65.687161)"><g/></g></g><g fill="#bc9c22" fill-opacity="1"><g transform="translate(162.496158, 65.687161)"><g><path d="M 64.359375 -57.984375 C 64.679688 -57.984375 64.953125 -57.875 65.171875 -57.65625 C 65.390625 -57.4375 65.5 -57.164062 65.5 -56.84375 C 65.5 -56.53125 65.390625 -56.257812 65.171875 -56.03125 C 64.953125 -55.8125 64.679688 -55.703125 64.359375 -55.703125 C 61.273438 -55.660156 57.75 -55.410156 53.78125 -54.953125 C 49.8125 -54.492188 45.710938 -53.894531 41.484375 -53.15625 C 37.265625 -52.414062 33.191406 -51.539062 29.265625 -50.53125 C 28.660156 -48.007812 27.96875 -45.234375 27.1875 -42.203125 C 26.40625 -39.179688 25.578125 -36.03125 24.703125 -32.75 C 24.097656 -30.34375 23.453125 -27.847656 22.765625 -25.265625 C 22.085938 -22.679688 21.429688 -20.085938 20.796875 -17.484375 C 23.554688 -18.203125 26.335938 -18.890625 29.140625 -19.546875 C 31.953125 -20.210938 34.585938 -20.796875 37.046875 -21.296875 C 39.515625 -21.796875 41.640625 -22.175781 43.421875 -22.4375 C 45.203125 -22.695312 46.453125 -22.8125 47.171875 -22.78125 C 47.492188 -22.738281 47.753906 -22.601562 47.953125 -22.375 C 48.148438 -22.15625 48.25 -21.890625 48.25 -21.578125 C 48.207031 -21.253906 48.078125 -20.984375 47.859375 -20.765625 C 47.640625 -20.546875 47.367188 -20.4375 47.046875 -20.4375 C 46.242188 -20.507812 44.722656 -20.351562 42.484375 -19.96875 C 40.242188 -19.59375 37.5625 -19.070312 34.4375 -18.40625 C 31.3125 -17.75 28.003906 -16.984375 24.515625 -16.109375 C 22.992188 -15.703125 21.53125 -15.320312 20.125 -14.96875 C 19.082031 -10.71875 18.117188 -6.597656 17.234375 -2.609375 C 16.359375 1.367188 15.640625 5.050781 15.078125 8.4375 C 14.523438 11.820312 14.226562 14.675781 14.1875 17 C 14.1875 17.96875 14.273438 18.941406 14.453125 19.921875 C 14.628906 20.898438 15.039062 21.53125 15.6875 21.8125 C 16.445312 22.132812 17.457031 22.015625 18.71875 21.453125 C 19.976562 20.890625 21.390625 20.023438 22.953125 18.859375 C 24.515625 17.703125 26.117188 16.398438 27.765625 14.953125 C 29.410156 13.515625 31.003906 12.054688 32.546875 10.578125 C 34.085938 9.097656 35.457031 7.773438 36.65625 6.609375 C 36.976562 6.285156 37.296875 5.972656 37.609375 5.671875 C 37.929688 5.378906 38.234375 5.070312 38.515625 4.75 L 39.546875 3.78125 C 40.140625 3.21875 40.71875 2.664062 41.28125 2.125 C 41.84375 1.59375 42.34375 1.125 42.78125 0.71875 C 43.382812 0.15625 43.945312 -0.289062 44.46875 -0.625 C 44.988281 -0.96875 45.46875 -0.921875 45.90625 -0.484375 C 46.425781 -0.0351562 46.484375 0.546875 46.078125 1.265625 C 45.679688 1.984375 44.90625 3.125 43.75 4.6875 C 43.550781 4.96875 43.289062 5.128906 42.96875 5.171875 C 42.644531 5.210938 42.363281 5.128906 42.125 4.921875 C 42.039062 4.890625 41.960938 4.832031 41.890625 4.75 C 41.765625 4.863281 41.640625 4.976562 41.515625 5.09375 C 41.398438 5.21875 41.285156 5.34375 41.171875 5.46875 L 40.140625 6.4375 C 39.859375 6.707031 39.554688 7.003906 39.234375 7.328125 C 38.921875 7.648438 38.601562 7.953125 38.28125 8.234375 C 35.269531 11.160156 32.421875 13.832031 29.734375 16.25 C 27.054688 18.675781 24.582031 20.617188 22.3125 22.078125 C 20.050781 23.546875 18.101562 24.28125 16.46875 24.28125 C 15.820312 24.28125 15.257812 24.160156 14.78125 23.921875 C 12.78125 23.078125 11.820312 20.769531 11.90625 17 C 11.9375 14.644531 12.210938 11.832031 12.734375 8.5625 C 13.253906 5.300781 13.9375 1.726562 14.78125 -2.15625 C 15.625 -6.050781 16.546875 -10.082031 17.546875 -14.25 C 13.421875 -13.082031 10.210938 -12.066406 7.921875 -11.203125 C 5.640625 -10.347656 4.28125 -9.71875 3.84375 -9.3125 C 3.644531 -9.113281 3.382812 -9.015625 3.0625 -9.015625 C 2.738281 -9.015625 2.457031 -9.132812 2.21875 -9.375 C 2.019531 -9.570312 1.921875 -9.832031 1.921875 -10.15625 C 1.921875 -10.476562 2.039062 -10.757812 2.28125 -11 C 2.757812 -11.476562 3.769531 -12.035156 5.3125 -12.671875 C 6.851562 -13.316406 8.742188 -13.988281 10.984375 -14.6875 C 13.234375 -15.394531 15.640625 -16.109375 18.203125 -16.828125 C 18.890625 -19.585938 19.601562 -22.359375 20.34375 -25.140625 C 21.082031 -27.929688 21.789062 -30.671875 22.46875 -33.359375 C 23.269531 -36.359375 24.03125 -39.257812 24.75 -42.0625 C 25.476562 -44.863281 26.140625 -47.46875 26.734375 -49.875 C 23.210938 -48.914062 20 -47.90625 17.09375 -46.84375 C 14.1875 -45.78125 11.8125 -44.6875 9.96875 -43.5625 C 8.132812 -42.445312 7.054688 -41.328125 6.734375 -40.203125 C 6.648438 -40.046875 6.644531 -39.6875 6.71875 -39.125 C 6.800781 -38.5625 7.46875 -37.859375 8.71875 -37.015625 C 8.957031 -36.816406 9.101562 -36.566406 9.15625 -36.265625 C 9.21875 -35.960938 9.171875 -35.671875 9.015625 -35.390625 C 8.773438 -35.078125 8.453125 -34.921875 8.046875 -34.921875 C 7.804688 -34.921875 7.585938 -34.976562 7.390625 -35.09375 C 5.785156 -36.175781 4.851562 -37.226562 4.59375 -38.25 C 4.332031 -39.269531 4.300781 -40.140625 4.5 -40.859375 C 4.90625 -42.140625 5.835938 -43.34375 7.296875 -44.46875 C 8.765625 -45.59375 10.585938 -46.632812 12.765625 -47.59375 C 14.953125 -48.550781 17.304688 -49.441406 19.828125 -50.265625 C 22.347656 -51.085938 24.851562 -51.820312 27.34375 -52.46875 C 27.582031 -53.46875 27.78125 -54.328125 27.9375 -55.046875 C 27.976562 -55.367188 28.140625 -55.609375 28.421875 -55.765625 C 28.703125 -55.921875 28.984375 -55.984375 29.265625 -55.953125 C 29.585938 -55.867188 29.835938 -55.695312 30.015625 -55.4375 C 30.191406 -55.175781 30.242188 -54.882812 30.171875 -54.5625 C 30.085938 -54.164062 29.984375 -53.664062 29.859375 -53.0625 C 33.753906 -54.019531 37.789062 -54.859375 41.96875 -55.578125 C 46.15625 -56.304688 50.179688 -56.878906 54.046875 -57.296875 C 57.921875 -57.722656 61.359375 -57.953125 64.359375 -57.984375 Z M 64.359375 -57.984375 "/></g></g></g><g fill="#bc9c22" fill-opacity="1"><g transform="translate(213.461979, 65.687161)"><g><path d="M 15.328125 -18.390625 C 15.484375 -18.148438 15.519531 -17.867188 15.4375 -17.546875 C 15.363281 -17.222656 15.1875 -16.984375 14.90625 -16.828125 C 12.21875 -15.179688 9.148438 -12.035156 5.703125 -7.390625 C 6.390625 -5.867188 7.140625 -4.515625 7.953125 -3.328125 C 8.773438 -2.148438 9.550781 -1.441406 10.28125 -1.203125 C 10.394531 -1.160156 10.570312 -1.160156 10.8125 -1.203125 C 11.050781 -1.242188 11.332031 -1.503906 11.65625 -1.984375 C 11.820312 -2.265625 12.0625 -2.429688 12.375 -2.484375 C 12.695312 -2.546875 13 -2.476562 13.28125 -2.28125 C 13.519531 -2.125 13.671875 -1.882812 13.734375 -1.5625 C 13.796875 -1.238281 13.742188 -0.957031 13.578125 -0.71875 C 13.097656 0.0390625 12.585938 0.539062 12.046875 0.78125 C 11.503906 1.019531 11.015625 1.140625 10.578125 1.140625 C 10.253906 1.140625 9.929688 1.097656 9.609375 1.015625 C 8.648438 0.703125 7.695312 -0.03125 6.75 -1.1875 C 5.8125 -2.351562 4.960938 -3.703125 4.203125 -5.234375 C 1.796875 -1.785156 -0.625 2.203125 -3.0625 6.734375 C -3.300781 7.128906 -3.644531 7.328125 -4.09375 7.328125 C -4.289062 7.328125 -4.46875 7.269531 -4.625 7.15625 C -4.90625 7.03125 -5.09375 6.804688 -5.1875 6.484375 C -5.289062 6.171875 -5.265625 5.875 -5.109375 5.59375 C -3.984375 3.507812 -2.71875 1.316406 -1.3125 -0.984375 C 0.0820312 -3.296875 1.539062 -5.53125 3.0625 -7.6875 C 2.300781 -9.414062 1.695312 -11.085938 1.25 -12.703125 C 0.8125 -14.328125 0.613281 -15.5625 0.65625 -16.40625 C 0.65625 -16.726562 0.773438 -17 1.015625 -17.21875 C 1.253906 -17.4375 1.535156 -17.523438 1.859375 -17.484375 C 2.179688 -17.484375 2.453125 -17.363281 2.671875 -17.125 C 2.890625 -16.882812 3 -16.601562 3 -16.28125 C 2.957031 -15.6875 3.085938 -14.796875 3.390625 -13.609375 C 3.691406 -12.429688 4.101562 -11.179688 4.625 -9.859375 C 6.101562 -11.773438 7.613281 -13.515625 9.15625 -15.078125 C 10.707031 -16.640625 12.222656 -17.882812 13.703125 -18.8125 C 13.984375 -18.96875 14.28125 -19.003906 14.59375 -18.921875 C 14.914062 -18.847656 15.160156 -18.671875 15.328125 -18.390625 Z M 15.328125 -18.390625 "/></g></g></g><g fill="#bc9c22" fill-opacity="1"><g transform="translate(229.689325, 65.687161)"><g><path d="M 50.71875 -35.453125 C 50.914062 -35.210938 50.992188 -34.929688 50.953125 -34.609375 C 50.921875 -34.296875 50.765625 -34.035156 50.484375 -33.828125 C 49.992188 -33.515625 49.53125 -33.535156 49.09375 -33.890625 C 48.570312 -34.085938 47.378906 -34.226562 45.515625 -34.3125 C 43.660156 -34.394531 41.328125 -34.445312 38.515625 -34.46875 C 35.710938 -34.488281 32.628906 -34.476562 29.265625 -34.4375 C 25.898438 -34.394531 22.441406 -34.34375 18.890625 -34.28125 C 15.347656 -34.21875 11.914062 -34.148438 8.59375 -34.078125 C 7.351562 -28.867188 6.050781 -23.207031 4.6875 -17.09375 C 3.320312 -10.988281 1.976562 -4.789062 0.65625 1.5 C -1.0625 9.75 -2.390625 16.519531 -3.328125 21.8125 C -4.273438 27.101562 -4.890625 30.929688 -5.171875 33.296875 C -5.085938 33.296875 -5.003906 33.316406 -4.921875 33.359375 C -4.609375 33.429688 -4.390625 33.617188 -4.265625 33.921875 C -4.148438 34.222656 -4.148438 34.515625 -4.265625 34.796875 C -4.503906 35.472656 -4.773438 36.101562 -5.078125 36.6875 C -5.378906 37.269531 -5.789062 37.5625 -6.3125 37.5625 C -6.425781 37.5625 -6.566406 37.539062 -6.734375 37.5 C -7.296875 37.300781 -7.601562 36.867188 -7.65625 36.203125 C -7.71875 35.546875 -7.671875 34.632812 -7.515625 33.46875 C -7.347656 31.789062 -6.988281 29.367188 -6.4375 26.203125 C -5.945312 23.234375 -5.320312 19.765625 -4.5625 15.796875 C -3.800781 11.835938 -2.921875 7.492188 -1.921875 2.765625 C -0.597656 -3.640625 0.757812 -10.007812 2.15625 -16.34375 C 3.5625 -22.675781 4.90625 -28.566406 6.1875 -34.015625 C 4.269531 -33.972656 2.445312 -33.929688 0.71875 -33.890625 C -1 -33.847656 -2.5625 -33.804688 -3.96875 -33.765625 C -6.65625 -33.691406 -9 -33.632812 -11 -33.59375 C -13 -33.550781 -14.421875 -33.53125 -15.265625 -33.53125 C -15.585938 -33.53125 -15.859375 -33.640625 -16.078125 -33.859375 C -16.296875 -34.078125 -16.40625 -34.347656 -16.40625 -34.671875 C -16.40625 -34.992188 -16.296875 -35.265625 -16.078125 -35.484375 C -15.859375 -35.703125 -15.585938 -35.8125 -15.265625 -35.8125 C -14.421875 -35.8125 -13.003906 -35.84375 -11.015625 -35.90625 C -9.035156 -35.96875 -6.707031 -36.035156 -4.03125 -36.109375 C -2.101562 -36.148438 -0.238281 -36.191406 1.5625 -36.234375 C 3.363281 -36.273438 5.109375 -36.316406 6.796875 -36.359375 C 7.390625 -38.921875 7.976562 -41.332031 8.5625 -43.59375 C 9.144531 -45.863281 9.695312 -47.9375 10.21875 -49.8125 C 10.300781 -50.132812 10.476562 -50.375 10.75 -50.53125 C 11.03125 -50.695312 11.3125 -50.738281 11.59375 -50.65625 C 11.914062 -50.570312 12.15625 -50.390625 12.3125 -50.109375 C 12.476562 -49.835938 12.519531 -49.539062 12.4375 -49.21875 C 11.476562 -45.65625 10.378906 -41.390625 9.140625 -36.421875 C 15.390625 -36.535156 20.734375 -36.625 25.171875 -36.6875 C 29.617188 -36.75 33.34375 -36.78125 36.34375 -36.78125 C 39.351562 -36.78125 41.789062 -36.738281 43.65625 -36.65625 C 45.519531 -36.570312 46.929688 -36.476562 47.890625 -36.375 C 48.859375 -36.28125 49.539062 -36.148438 49.9375 -35.984375 C 50.332031 -35.828125 50.59375 -35.648438 50.71875 -35.453125 Z M 50.71875 -35.453125 "/></g></g></g><g fill="#bc9c22" fill-opacity="1"><g transform="translate(237.68279, 65.687161)"><g><path d="M 20.3125 -13.40625 C 20.59375 -13.238281 20.753906 -12.992188 20.796875 -12.671875 C 20.835938 -12.359375 20.773438 -12.082031 20.609375 -11.84375 C 18.242188 -8.550781 16.078125 -5.832031 14.109375 -3.6875 C 12.148438 -1.550781 10.191406 0.21875 8.234375 1.625 C 6.753906 2.664062 5.289062 3.1875 3.84375 3.1875 C 2.71875 3.1875 1.738281 2.882812 0.90625 2.28125 C 0.34375 1.882812 -0.207031 1.175781 -0.75 0.15625 C -1.289062 -0.863281 -1.582031 -2.347656 -1.625 -4.296875 C -1.664062 -6.242188 -1.1875 -8.796875 -0.1875 -11.953125 C -0.1875 -11.953125 -0.1875 -11.972656 -0.1875 -12.015625 C 1.019531 -15.859375 2.429688 -18.789062 4.046875 -20.8125 C 5.671875 -22.84375 7.066406 -23.878906 8.234375 -23.921875 C 9.148438 -23.960938 9.75 -23.5625 10.03125 -22.71875 C 10.476562 -21.550781 9.957031 -19.894531 8.46875 -17.75 C 6.988281 -15.613281 4.804688 -13.34375 1.921875 -10.9375 C 1.035156 -8.132812 0.613281 -5.941406 0.65625 -4.359375 C 0.695312 -2.773438 0.914062 -1.628906 1.3125 -0.921875 C 1.71875 -0.222656 2.039062 0.222656 2.28125 0.421875 C 3.488281 1.304688 5.03125 1.066406 6.90625 -0.296875 C 8.75 -1.578125 10.613281 -3.25 12.5 -5.3125 C 14.382812 -7.375 16.445312 -9.988281 18.6875 -13.15625 C 18.882812 -13.394531 19.144531 -13.546875 19.46875 -13.609375 C 19.789062 -13.671875 20.070312 -13.601562 20.3125 -13.40625 Z M 7.8125 -21.390625 C 7.375 -21.109375 6.773438 -20.515625 6.015625 -19.609375 C 5.253906 -18.710938 4.472656 -17.40625 3.671875 -15.6875 C 5.109375 -17.082031 6.125 -18.269531 6.71875 -19.25 C 7.320312 -20.238281 7.6875 -20.953125 7.8125 -21.390625 Z M 7.8125 -21.390625 "/></g></g></g><g fill="#bc9c22" fill-opacity="1"><g transform="translate(255.172236, 65.687161)"><g><path d="M 24.21875 -13.40625 C 24.5 -13.238281 24.675781 -13.003906 24.75 -12.703125 C 24.832031 -12.410156 24.796875 -12.125 24.640625 -11.84375 C 22.753906 -8.507812 21.0625 -5.953125 19.5625 -4.171875 C 18.0625 -2.390625 16.53125 -1.597656 14.96875 -1.796875 C 12.957031 -2.035156 11.375 -4.203125 10.21875 -8.296875 C 9.8125 -9.617188 9.457031 -10.566406 9.15625 -11.140625 C 8.863281 -11.722656 8.625 -12.082031 8.4375 -12.21875 C 8.257812 -12.363281 8.128906 -12.4375 8.046875 -12.4375 C 7.929688 -12.476562 7.691406 -12.359375 7.328125 -12.078125 C 6.972656 -11.796875 6.453125 -11.175781 5.765625 -10.21875 C 5.085938 -9.257812 4.25 -7.765625 3.25 -5.734375 C 2.25 -3.710938 1.023438 -0.941406 -0.421875 2.578125 C -0.617188 3.066406 -0.957031 3.3125 -1.4375 3.3125 C -1.5625 3.3125 -1.664062 3.289062 -1.75 3.25 C -2.425781 3.082031 -2.722656 2.660156 -2.640625 1.984375 C -2.441406 0.335938 -2.082031 -1.5625 -1.5625 -3.71875 C -1.039062 -5.882812 -0.472656 -8.085938 0.140625 -10.328125 C 0.765625 -12.578125 1.335938 -14.582031 1.859375 -16.34375 C 1.984375 -16.75 2.09375 -17.117188 2.1875 -17.453125 C 2.289062 -17.796875 2.382812 -18.128906 2.46875 -18.453125 C 2.582031 -18.765625 2.78125 -18.988281 3.0625 -19.125 C 3.34375 -19.269531 3.625 -19.304688 3.90625 -19.234375 C 4.226562 -19.148438 4.46875 -18.96875 4.625 -18.6875 C 4.789062 -18.40625 4.8125 -18.101562 4.6875 -17.78125 C 4.601562 -17.46875 4.507812 -17.140625 4.40625 -16.796875 C 4.3125 -16.453125 4.207031 -16.082031 4.09375 -15.6875 C 3.8125 -14.644531 3.488281 -13.5 3.125 -12.25 C 2.757812 -11.007812 2.398438 -9.75 2.046875 -8.46875 C 3.410156 -11.03125 4.570312 -12.734375 5.53125 -13.578125 C 6.488281 -14.421875 7.367188 -14.820312 8.171875 -14.78125 C 9.296875 -14.695312 10.175781 -14.070312 10.8125 -12.90625 C 11.457031 -11.75 12 -10.410156 12.4375 -8.890625 C 13.039062 -6.804688 13.601562 -5.484375 14.125 -4.921875 C 14.644531 -4.367188 15.023438 -4.09375 15.265625 -4.09375 C 15.785156 -4.007812 16.394531 -4.296875 17.09375 -4.953125 C 17.789062 -5.617188 18.488281 -6.460938 19.1875 -7.484375 C 19.894531 -8.503906 20.554688 -9.515625 21.171875 -10.515625 C 21.796875 -11.515625 22.269531 -12.335938 22.59375 -12.984375 C 22.75 -13.265625 22.988281 -13.441406 23.3125 -13.515625 C 23.632812 -13.597656 23.9375 -13.5625 24.21875 -13.40625 Z M 24.21875 -13.40625 "/></g></g></g><g fill="#bc9c22" fill-opacity="1"><g transform="translate(276.628362, 65.687161)"><g><path d="M 26.734375 -13.765625 C 26.984375 -13.566406 27.125 -13.304688 27.15625 -12.984375 C 27.195312 -12.660156 27.097656 -12.378906 26.859375 -12.140625 C 25.703125 -10.773438 24.421875 -9.269531 23.015625 -7.625 C 21.609375 -5.988281 20.234375 -4.390625 18.890625 -2.828125 C 17.554688 -1.265625 16.40625 0.0820312 15.4375 1.21875 C 14.476562 2.363281 13.835938 3.140625 13.515625 3.546875 C 12.835938 4.429688 12.175781 5.289062 11.53125 6.125 C 12.050781 8.445312 12.101562 10.640625 11.6875 12.703125 C 11.269531 14.765625 10.566406 16.597656 9.578125 18.203125 C 8.597656 19.804688 7.566406 21.050781 6.484375 21.9375 C 5.367188 22.894531 4.328125 23.375 3.359375 23.375 C 2.765625 23.375 2.265625 23.175781 1.859375 22.78125 C 1.179688 22.132812 0.953125 21.179688 1.171875 19.921875 C 1.390625 18.660156 1.898438 17.226562 2.703125 15.625 C 3.503906 14.019531 4.460938 12.351562 5.578125 10.625 C 6.703125 8.90625 7.847656 7.25 9.015625 5.65625 C 8.816406 4.925781 8.535156 4.191406 8.171875 3.453125 C 7.804688 2.710938 7.382812 1.960938 6.90625 1.203125 C 5.269531 -1.285156 3.878906 -3.617188 2.734375 -5.796875 C 1.585938 -7.984375 1.054688 -9.976562 1.140625 -11.78125 C 1.335938 -15.101562 2.820312 -17.585938 5.59375 -19.234375 C 6.707031 -19.910156 7.882812 -20.304688 9.125 -20.421875 C 10.375 -20.546875 11.519531 -20.367188 12.5625 -19.890625 C 12.84375 -19.734375 13.03125 -19.503906 13.125 -19.203125 C 13.226562 -18.898438 13.21875 -18.609375 13.09375 -18.328125 C 12.9375 -18.046875 12.707031 -17.851562 12.40625 -17.75 C 12.101562 -17.65625 11.8125 -17.664062 11.53125 -17.78125 C 10.09375 -18.46875 8.515625 -18.289062 6.796875 -17.25 C 4.710938 -16.007812 3.609375 -14.144531 3.484375 -11.65625 C 3.398438 -10.175781 3.898438 -8.429688 4.984375 -6.421875 C 6.066406 -4.421875 7.347656 -2.320312 8.828125 -0.125 C 9.585938 1.039062 10.210938 2.222656 10.703125 3.421875 C 11.015625 3.023438 11.351562 2.585938 11.71875 2.109375 C 12.039062 1.703125 12.691406 0.921875 13.671875 -0.234375 C 14.648438 -1.398438 15.800781 -2.765625 17.125 -4.328125 C 18.445312 -5.890625 19.816406 -7.488281 21.234375 -9.125 C 22.660156 -10.769531 23.957031 -12.273438 25.125 -13.640625 C 25.320312 -13.878906 25.578125 -14.019531 25.890625 -14.0625 C 26.210938 -14.101562 26.492188 -14.003906 26.734375 -13.765625 Z M 7.21875 17.671875 C 7.488281 17.222656 7.820312 16.585938 8.21875 15.765625 C 8.625 14.953125 8.976562 13.953125 9.28125 12.765625 C 9.582031 11.585938 9.675781 10.273438 9.5625 8.828125 C 7.71875 11.429688 6.34375 13.59375 5.4375 15.3125 C 4.539062 17.039062 3.960938 18.351562 3.703125 19.25 C 3.441406 20.15625 3.347656 20.75 3.421875 21.03125 C 3.703125 21.03125 4.203125 20.769531 4.921875 20.25 C 5.648438 19.726562 6.414062 18.867188 7.21875 17.671875 Z M 7.21875 17.671875 "/></g></g></g><g fill="#bc9c22" fill-opacity="1"><g transform="translate(300.849103, 65.687161)"><g><path d="M 17.609375 -13.703125 C 17.890625 -13.546875 18.054688 -13.304688 18.109375 -12.984375 C 18.171875 -12.660156 18.125 -12.359375 17.96875 -12.078125 C 17.207031 -10.878906 16.242188 -9.535156 15.078125 -8.046875 C 13.921875 -6.566406 12.660156 -5.15625 11.296875 -3.8125 C 9.929688 -2.46875 8.578125 -1.351562 7.234375 -0.46875 C 5.898438 0.40625 4.671875 0.84375 3.546875 0.84375 C 3.066406 0.84375 2.644531 0.757812 2.28125 0.59375 C 0.914062 0 0.160156 -1.445312 0.015625 -3.75 C -0.117188 -6.0625 0.351562 -9.316406 1.4375 -13.515625 C 1.519531 -13.835938 1.703125 -14.078125 1.984375 -14.234375 C 2.265625 -14.398438 2.546875 -14.441406 2.828125 -14.359375 C 3.148438 -14.285156 3.390625 -14.109375 3.546875 -13.828125 C 3.703125 -13.546875 3.742188 -13.265625 3.671875 -12.984375 C 3.023438 -10.421875 2.617188 -8.382812 2.453125 -6.875 C 2.296875 -5.375 2.269531 -4.242188 2.375 -3.484375 C 2.476562 -2.722656 2.628906 -2.210938 2.828125 -1.953125 C 3.023438 -1.691406 3.144531 -1.5625 3.1875 -1.5625 C 3.707031 -1.320312 4.46875 -1.488281 5.46875 -2.0625 C 6.46875 -2.644531 7.585938 -3.507812 8.828125 -4.65625 C 10.078125 -5.800781 11.332031 -7.125 12.59375 -8.625 C 13.851562 -10.125 14.984375 -11.695312 15.984375 -13.34375 C 16.179688 -13.625 16.429688 -13.789062 16.734375 -13.84375 C 17.035156 -13.90625 17.328125 -13.859375 17.609375 -13.703125 Z M 3.421875 -18.515625 C 2.617188 -18.546875 2.207031 -18.769531 2.1875 -19.1875 C 2.164062 -19.613281 2.347656 -20.046875 2.734375 -20.484375 C 3.117188 -20.929688 3.507812 -21.234375 3.90625 -21.390625 C 4.550781 -21.585938 5.019531 -21.546875 5.3125 -21.265625 C 5.613281 -20.992188 5.753906 -20.632812 5.734375 -20.1875 C 5.710938 -19.75 5.507812 -19.347656 5.125 -18.984375 C 4.75 -18.628906 4.179688 -18.472656 3.421875 -18.515625 Z M 3.421875 -18.515625 "/></g></g></g><g fill="#bc9c22" fill-opacity="1"><g transform="translate(316.054691, 65.687161)"><g><path d="M 21.75 -13.09375 C 22.03125 -12.894531 22.191406 -12.632812 22.234375 -12.3125 C 22.273438 -12 22.195312 -11.722656 22 -11.484375 C 20.957031 -10.160156 19.742188 -8.976562 18.359375 -7.9375 C 16.972656 -6.894531 15.53125 -6.125 14.03125 -5.625 C 12.53125 -5.125 11.078125 -5.03125 9.671875 -5.34375 C 9.109375 -3.945312 8.316406 -2.867188 7.296875 -2.109375 C 6.273438 -1.347656 5.242188 -0.96875 4.203125 -0.96875 C 4.203125 -0.96875 4.191406 -0.96875 4.171875 -0.96875 C 4.148438 -0.96875 4.140625 -0.96875 4.140625 -0.96875 C 3.066406 -1 2.117188 -1.363281 1.296875 -2.0625 C 0.472656 -2.769531 -0.0976562 -3.742188 -0.421875 -4.984375 C -0.785156 -6.390625 -0.84375 -7.722656 -0.59375 -8.984375 C -0.351562 -10.242188 0.0820312 -11.351562 0.71875 -12.3125 C 1.363281 -13.28125 2.085938 -14.023438 2.890625 -14.546875 C 3.171875 -14.742188 3.488281 -14.78125 3.84375 -14.65625 C 4.207031 -15.539062 4.71875 -16.222656 5.375 -16.703125 C 6.039062 -17.179688 6.734375 -17.363281 7.453125 -17.25 C 7.890625 -17.164062 8.367188 -16.894531 8.890625 -16.4375 C 9.410156 -15.976562 9.832031 -15.15625 10.15625 -13.96875 C 10.476562 -12.789062 10.578125 -11.0625 10.453125 -8.78125 C 10.410156 -8.375 10.351562 -7.972656 10.28125 -7.578125 C 11.363281 -7.367188 12.503906 -7.484375 13.703125 -7.921875 C 14.898438 -8.367188 16.0625 -9.039062 17.1875 -9.9375 C 18.3125 -10.84375 19.289062 -11.835938 20.125 -12.921875 C 20.332031 -13.160156 20.59375 -13.300781 20.90625 -13.34375 C 21.226562 -13.382812 21.507812 -13.300781 21.75 -13.09375 Z M 4.203125 -3.3125 C 4.722656 -3.3125 5.300781 -3.550781 5.9375 -4.03125 C 6.582031 -4.507812 7.109375 -5.226562 7.515625 -6.1875 C 6.066406 -6.988281 5.03125 -7.910156 4.40625 -8.953125 C 3.789062 -9.992188 3.460938 -11.035156 3.421875 -12.078125 C 2.578125 -11.273438 2.023438 -10.253906 1.765625 -9.015625 C 1.503906 -7.773438 1.515625 -6.65625 1.796875 -5.65625 C 1.921875 -5.207031 2.160156 -4.703125 2.515625 -4.140625 C 2.878906 -3.585938 3.441406 -3.3125 4.203125 -3.3125 Z M 8.109375 -8.890625 C 8.191406 -10.492188 8.160156 -11.734375 8.015625 -12.609375 C 7.878906 -13.492188 7.710938 -14.097656 7.515625 -14.421875 C 7.316406 -14.742188 7.175781 -14.925781 7.09375 -14.96875 C 7.050781 -14.96875 7.03125 -14.96875 7.03125 -14.96875 C 6.90625 -14.96875 6.722656 -14.847656 6.484375 -14.609375 C 6.242188 -14.367188 6.046875 -14.003906 5.890625 -13.515625 C 5.648438 -12.753906 5.671875 -11.921875 5.953125 -11.015625 C 6.234375 -10.117188 6.953125 -9.289062 8.109375 -8.53125 C 8.109375 -8.65625 8.109375 -8.773438 8.109375 -8.890625 Z M 8.109375 -8.890625 "/></g></g></g><g fill="#bc9c22" fill-opacity="1"><g transform="translate(335.287063, 65.687161)"><g><path d="M 24.21875 -13.40625 C 24.5 -13.238281 24.675781 -13.003906 24.75 -12.703125 C 24.832031 -12.410156 24.796875 -12.125 24.640625 -11.84375 C 22.753906 -8.507812 21.0625 -5.953125 19.5625 -4.171875 C 18.0625 -2.390625 16.53125 -1.597656 14.96875 -1.796875 C 12.957031 -2.035156 11.375 -4.203125 10.21875 -8.296875 C 9.8125 -9.617188 9.457031 -10.566406 9.15625 -11.140625 C 8.863281 -11.722656 8.625 -12.082031 8.4375 -12.21875 C 8.257812 -12.363281 8.128906 -12.4375 8.046875 -12.4375 C 7.929688 -12.476562 7.691406 -12.359375 7.328125 -12.078125 C 6.972656 -11.796875 6.453125 -11.175781 5.765625 -10.21875 C 5.085938 -9.257812 4.25 -7.765625 3.25 -5.734375 C 2.25 -3.710938 1.023438 -0.941406 -0.421875 2.578125 C -0.617188 3.066406 -0.957031 3.3125 -1.4375 3.3125 C -1.5625 3.3125 -1.664062 3.289062 -1.75 3.25 C -2.425781 3.082031 -2.722656 2.660156 -2.640625 1.984375 C -2.441406 0.335938 -2.082031 -1.5625 -1.5625 -3.71875 C -1.039062 -5.882812 -0.472656 -8.085938 0.140625 -10.328125 C 0.765625 -12.578125 1.335938 -14.582031 1.859375 -16.34375 C 1.984375 -16.75 2.09375 -17.117188 2.1875 -17.453125 C 2.289062 -17.796875 2.382812 -18.128906 2.46875 -18.453125 C 2.582031 -18.765625 2.78125 -18.988281 3.0625 -19.125 C 3.34375 -19.269531 3.625 -19.304688 3.90625 -19.234375 C 4.226562 -19.148438 4.46875 -18.96875 4.625 -18.6875 C 4.789062 -18.40625 4.8125 -18.101562 4.6875 -17.78125 C 4.601562 -17.46875 4.507812 -17.140625 4.40625 -16.796875 C 4.3125 -16.453125 4.207031 -16.082031 4.09375 -15.6875 C 3.8125 -14.644531 3.488281 -13.5 3.125 -12.25 C 2.757812 -11.007812 2.398438 -9.75 2.046875 -8.46875 C 3.410156 -11.03125 4.570312 -12.734375 5.53125 -13.578125 C 6.488281 -14.421875 7.367188 -14.820312 8.171875 -14.78125 C 9.296875 -14.695312 10.175781 -14.070312 10.8125 -12.90625 C 11.457031 -11.75 12 -10.410156 12.4375 -8.890625 C 13.039062 -6.804688 13.601562 -5.484375 14.125 -4.921875 C 14.644531 -4.367188 15.023438 -4.09375 15.265625 -4.09375 C 15.785156 -4.007812 16.394531 -4.296875 17.09375 -4.953125 C 17.789062 -5.617188 18.488281 -6.460938 19.1875 -7.484375 C 19.894531 -8.503906 20.554688 -9.515625 21.171875 -10.515625 C 21.796875 -11.515625 22.269531 -12.335938 22.59375 -12.984375 C 22.75 -13.265625 22.988281 -13.441406 23.3125 -13.515625 C 23.632812 -13.597656 23.9375 -13.5625 24.21875 -13.40625 Z M 24.21875 -13.40625 "/></g></g></g><g fill="#bc9c22" fill-opacity="1"><g transform="translate(356.74319, 65.687161)"><g><path d="M 26.734375 -13.765625 C 26.984375 -13.566406 27.125 -13.304688 27.15625 -12.984375 C 27.195312 -12.660156 27.097656 -12.378906 26.859375 -12.140625 C 25.703125 -10.773438 24.421875 -9.269531 23.015625 -7.625 C 21.609375 -5.988281 20.234375 -4.390625 18.890625 -2.828125 C 17.554688 -1.265625 16.40625 0.0820312 15.4375 1.21875 C 14.476562 2.363281 13.835938 3.140625 13.515625 3.546875 C 12.835938 4.429688 12.175781 5.289062 11.53125 6.125 C 12.050781 8.445312 12.101562 10.640625 11.6875 12.703125 C 11.269531 14.765625 10.566406 16.597656 9.578125 18.203125 C 8.597656 19.804688 7.566406 21.050781 6.484375 21.9375 C 5.367188 22.894531 4.328125 23.375 3.359375 23.375 C 2.765625 23.375 2.265625 23.175781 1.859375 22.78125 C 1.179688 22.132812 0.953125 21.179688 1.171875 19.921875 C 1.390625 18.660156 1.898438 17.226562 2.703125 15.625 C 3.503906 14.019531 4.460938 12.351562 5.578125 10.625 C 6.703125 8.90625 7.847656 7.25 9.015625 5.65625 C 8.816406 4.925781 8.535156 4.191406 8.171875 3.453125 C 7.804688 2.710938 7.382812 1.960938 6.90625 1.203125 C 5.269531 -1.285156 3.878906 -3.617188 2.734375 -5.796875 C 1.585938 -7.984375 1.054688 -9.976562 1.140625 -11.78125 C 1.335938 -15.101562 2.820312 -17.585938 5.59375 -19.234375 C 6.707031 -19.910156 7.882812 -20.304688 9.125 -20.421875 C 10.375 -20.546875 11.519531 -20.367188 12.5625 -19.890625 C 12.84375 -19.734375 13.03125 -19.503906 13.125 -19.203125 C 13.226562 -18.898438 13.21875 -18.609375 13.09375 -18.328125 C 12.9375 -18.046875 12.707031 -17.851562 12.40625 -17.75 C 12.101562 -17.65625 11.8125 -17.664062 11.53125 -17.78125 C 10.09375 -18.46875 8.515625 -18.289062 6.796875 -17.25 C 4.710938 -16.007812 3.609375 -14.144531 3.484375 -11.65625 C 3.398438 -10.175781 3.898438 -8.429688 4.984375 -6.421875 C 6.066406 -4.421875 7.347656 -2.320312 8.828125 -0.125 C 9.585938 1.039062 10.210938 2.222656 10.703125 3.421875 C 11.015625 3.023438 11.351562 2.585938 11.71875 2.109375 C 12.039062 1.703125 12.691406 0.921875 13.671875 -0.234375 C 14.648438 -1.398438 15.800781 -2.765625 17.125 -4.328125 C 18.445312 -5.890625 19.816406 -7.488281 21.234375 -9.125 C 22.660156 -10.769531 23.957031 -12.273438 25.125 -13.640625 C 25.320312 -13.878906 25.578125 -14.019531 25.890625 -14.0625 C 26.210938 -14.101562 26.492188 -14.003906 26.734375 -13.765625 Z M 7.21875 17.671875 C 7.488281 17.222656 7.820312 16.585938 8.21875 15.765625 C 8.625 14.953125 8.976562 13.953125 9.28125 12.765625 C 9.582031 11.585938 9.675781 10.273438 9.5625 8.828125 C 7.71875 11.429688 6.34375 13.59375 5.4375 15.3125 C 4.539062 17.039062 3.960938 18.351562 3.703125 19.25 C 3.441406 20.15625 3.347656 20.75 3.421875 21.03125 C 3.703125 21.03125 4.203125 20.769531 4.921875 20.25 C 5.648438 19.726562 6.414062 18.867188 7.21875 17.671875 Z M 7.21875 17.671875 "/></g></g></g><g fill="#bc9c22" fill-opacity="1"><g transform="translate(380.98213, 65.687161)"><g/></g></g></g></g><g transform="matrix(1, 0, 0, 1, 416, 103)"><g clip-path="url(#8802e7eae2)"><g fill="#bc9c22" fill-opacity="1"><g transform="translate(18.498969, 81.157865)"><g><path d="M -6.984375 -10.109375 L -0.96875 -16.203125 L 0.3125 -14.9375 L -4.40625 -10.171875 L -2.140625 -7.9375 L 1.921875 -12.03125 L 3.203125 -10.765625 L -0.859375 -6.671875 L 1.625 -4.21875 L 6.34375 -8.984375 L 7.625 -7.71875 L 1.609375 -1.625 Z M -6.984375 -10.109375 "/></g></g></g><g fill="#bc9c22" fill-opacity="1"><g transform="translate(31.159696, 68.752155)"><g><path d="M -0.21875 -4.515625 C 0.644531 -4.316406 1.429688 -4.257812 2.140625 -4.34375 C 2.847656 -4.425781 3.5625 -4.753906 4.28125 -5.328125 C 4.65625 -5.628906 4.972656 -5.960938 5.234375 -6.328125 C 5.492188 -6.703125 5.644531 -7.078125 5.6875 -7.453125 C 5.738281 -7.835938 5.644531 -8.179688 5.40625 -8.484375 C 5.039062 -8.929688 4.550781 -9.082031 3.9375 -8.9375 C 3.320312 -8.789062 2.566406 -8.457031 1.671875 -7.9375 C 0.515625 -7.289062 -0.535156 -6.945312 -1.484375 -6.90625 C -2.429688 -6.875 -3.242188 -7.28125 -3.921875 -8.125 C -4.359375 -8.675781 -4.570312 -9.289062 -4.5625 -9.96875 C -4.5625 -10.644531 -4.375 -11.304688 -4 -11.953125 C -3.625 -12.597656 -3.109375 -13.1875 -2.453125 -13.71875 C -1.617188 -14.375 -0.78125 -14.800781 0.0625 -15 C 0.90625 -15.195312 1.707031 -15.164062 2.46875 -14.90625 L 2.28125 -13.0625 C 1.664062 -13.257812 1.035156 -13.304688 0.390625 -13.203125 C -0.242188 -13.109375 -0.851562 -12.832031 -1.4375 -12.375 C -2.019531 -11.90625 -2.414062 -11.394531 -2.625 -10.84375 C -2.84375 -10.300781 -2.789062 -9.828125 -2.46875 -9.421875 C -2.082031 -8.941406 -1.597656 -8.765625 -1.015625 -8.890625 C -0.429688 -9.015625 0.257812 -9.300781 1.0625 -9.75 C 1.570312 -10.039062 2.085938 -10.289062 2.609375 -10.5 C 3.140625 -10.71875 3.648438 -10.859375 4.140625 -10.921875 C 4.640625 -10.984375 5.101562 -10.945312 5.53125 -10.8125 C 5.957031 -10.6875 6.34375 -10.410156 6.6875 -9.984375 C 7.164062 -9.378906 7.425781 -8.726562 7.46875 -8.03125 C 7.519531 -7.34375 7.359375 -6.644531 6.984375 -5.9375 C 6.609375 -5.238281 6.023438 -4.578125 5.234375 -3.953125 C 4.410156 -3.285156 3.546875 -2.828125 2.640625 -2.578125 C 1.734375 -2.335938 0.765625 -2.332031 -0.265625 -2.5625 Z M -0.21875 -4.515625 "/></g></g></g><g fill="#bc9c22" fill-opacity="1"><g transform="translate(45.366208, 57.842556)"><g><path d="M 4.171875 -2.609375 L -1.265625 -11.34375 L -4.546875 -9.28125 L -5.5 -10.796875 L 2.734375 -15.9375 L 3.6875 -14.421875 L 0.3125 -12.3125 L 5.75 -3.578125 Z M 4.171875 -2.609375 "/></g></g></g><g fill="#bc9c22" fill-opacity="1"><g transform="translate(59.92544, 49.214011)"><g/></g></g><g fill="#bc9c22" fill-opacity="1"><g transform="translate(70.17256, 44.244604)"><g><path d="M 8.609375 -5.265625 L 9.265625 -3.59375 L 1.875 -0.734375 L 0.84375 -1.859375 L 3.015625 -6.90625 C 3.210938 -7.40625 3.410156 -7.894531 3.609375 -8.375 C 3.816406 -8.863281 3.957031 -9.328125 4.03125 -9.765625 C 4.101562 -10.203125 4.070312 -10.597656 3.9375 -10.953125 C 3.738281 -11.472656 3.414062 -11.804688 2.96875 -11.953125 C 2.53125 -12.109375 2.019531 -12.070312 1.4375 -11.84375 C 0.96875 -11.65625 0.535156 -11.296875 0.140625 -10.765625 C -0.242188 -10.234375 -0.453125 -9.523438 -0.484375 -8.640625 L -2.109375 -8.984375 C -2.097656 -10.046875 -1.8125 -10.976562 -1.25 -11.78125 C -0.695312 -12.582031 0.0625 -13.171875 1.03125 -13.546875 C 1.707031 -13.804688 2.351562 -13.910156 2.96875 -13.859375 C 3.582031 -13.804688 4.125 -13.609375 4.59375 -13.265625 C 5.0625 -12.921875 5.414062 -12.4375 5.65625 -11.8125 C 5.875 -11.257812 5.941406 -10.660156 5.859375 -10.015625 C 5.773438 -9.378906 5.613281 -8.734375 5.375 -8.078125 C 5.132812 -7.429688 4.882812 -6.78125 4.625 -6.125 L 3.34375 -3.234375 Z M 8.609375 -5.265625 "/></g></g></g><g fill="#bc9c22" fill-opacity="1"><g transform="translate(85.23434, 38.659722)"><g><path d="M 5.859375 -1.375 C 4.835938 -1.101562 3.910156 -1.132812 3.078125 -1.46875 C 2.242188 -1.8125 1.523438 -2.378906 0.921875 -3.171875 C 0.328125 -3.972656 -0.117188 -4.957031 -0.421875 -6.125 C -0.734375 -7.289062 -0.828125 -8.375 -0.703125 -9.375 C -0.585938 -10.375 -0.253906 -11.222656 0.296875 -11.921875 C 0.847656 -12.628906 1.632812 -13.117188 2.65625 -13.390625 C 3.675781 -13.660156 4.597656 -13.625 5.421875 -13.28125 C 6.242188 -12.945312 6.953125 -12.375 7.546875 -11.5625 C 8.140625 -10.757812 8.59375 -9.773438 8.90625 -8.609375 C 9.207031 -7.441406 9.300781 -6.363281 9.1875 -5.375 C 9.070312 -4.382812 8.742188 -3.535156 8.203125 -2.828125 C 7.660156 -2.128906 6.878906 -1.644531 5.859375 -1.375 Z M 5.421875 -3.015625 C 6.328125 -3.253906 6.929688 -3.816406 7.234375 -4.703125 C 7.546875 -5.597656 7.519531 -6.742188 7.15625 -8.140625 C 6.78125 -9.546875 6.234375 -10.554688 5.515625 -11.171875 C 4.804688 -11.796875 4 -11.988281 3.09375 -11.75 C 2.164062 -11.5 1.546875 -10.925781 1.234375 -10.03125 C 0.921875 -9.144531 0.953125 -8 1.328125 -6.59375 C 1.691406 -5.195312 2.234375 -4.1875 2.953125 -3.5625 C 3.671875 -2.945312 4.492188 -2.765625 5.421875 -3.015625 Z M 5.421875 -3.015625 "/></g></g></g><g fill="#bc9c22" fill-opacity="1"><g transform="translate(101.773746, 34.590586)"><g><path d="M 8.203125 -1.28125 L 2.15625 -0.34375 L 1.875 -2.125 L 4.046875 -2.453125 L 2.796875 -10.53125 L 1.03125 -9.203125 L 0.234375 -10.671875 L 3.109375 -12.890625 L 4.3125 -13.078125 L 5.90625 -2.75 L 7.921875 -3.0625 Z M 8.203125 -1.28125 "/></g></g></g><g fill="#bc9c22" fill-opacity="1"><g transform="translate(116.458056, 32.540119)"><g><path d="M 9.828125 -2.296875 L 9.921875 -0.5 L 2.015625 -0.109375 L 1.375 -1.5 L 5.046875 -5.609375 C 5.398438 -6.023438 5.742188 -6.429688 6.078125 -6.828125 C 6.410156 -7.222656 6.679688 -7.613281 6.890625 -8 C 7.097656 -8.394531 7.191406 -8.78125 7.171875 -9.15625 C 7.148438 -9.71875 6.953125 -10.132812 6.578125 -10.40625 C 6.210938 -10.6875 5.722656 -10.8125 5.109375 -10.78125 C 4.597656 -10.757812 4.070312 -10.554688 3.53125 -10.171875 C 2.988281 -9.785156 2.566406 -9.179688 2.265625 -8.359375 L 0.828125 -9.1875 C 1.160156 -10.195312 1.71875 -10.992188 2.5 -11.578125 C 3.289062 -12.160156 4.203125 -12.476562 5.234375 -12.53125 C 5.953125 -12.570312 6.59375 -12.46875 7.15625 -12.21875 C 7.726562 -11.976562 8.179688 -11.617188 8.515625 -11.140625 C 8.859375 -10.660156 9.050781 -10.085938 9.09375 -9.421875 C 9.125 -8.828125 9 -8.238281 8.71875 -7.65625 C 8.4375 -7.082031 8.078125 -6.523438 7.640625 -5.984375 C 7.210938 -5.453125 6.769531 -4.914062 6.3125 -4.375 L 4.203125 -2.015625 Z M 9.828125 -2.296875 "/></g></g></g><g fill="#bc9c22" fill-opacity="1"><g transform="translate(132.612477, 32.059112)"><g/></g></g></g></g></svg>